<?xml version="1.0" encoding="UTF-8"?>
<svg id="Layer_1" data-name="Layer 1" xmlns="http://www.w3.org/2000/svg" viewBox="0 0 500 500">
  <defs>
    <style>
      .cls-1 {
        fill: #ecaec7;
      }

      .cls-1, .cls-2 {
        stroke-width: 0px;
      }

      .cls-2 {
        fill: #231f20;
      }
    </style>
  </defs>
  <rect class="cls-1" width="500" height="500"/>
  <path class="cls-2" d="M104.26,185.9c0-50.69,48.74-113.57,143.3-113.57,31.19,0,66.29,13.65,73.6,13.65,6.82,0,13.65-6.82,23.88-6.82,16.57,0,53.62,37.53,53.62,78.47,0,16.57-10.72,33.15-28.76,33.15-32.66,0-51.67-55.57-102.36-55.57-15.11,0-31.19,6.82-31.19,24.37,0,38.51,66.78,28.27,123.32,65.8,30.22,19.98,45.33,44.35,45.33,80.91,0,57.03-46.79,121.37-160.36,121.37-32.17,0-87.25-8.29-115.03-23.4-23.4-13.16-34.61-64.83-34.61-89.69,0-13.16,5.85-26.32,20.47-26.32,34.61,0,28.76,77.5,118.44,77.5,10.72,0,37.53-5.36,37.53-23.88,0-35.09-66.78-26.32-120.88-69.7-26.81-21.45-46.3-51.18-46.3-86.27Z"/>
</svg>