<svg xmlns="http://www.w3.org/2000/svg" viewBox="0 0 1044 702">
  <defs>
    <style>
      .cls-1 {
        fill: #d93530;
      }

      .cls-1, .cls-2 {
        stroke-width: 0px;
      }

      .cls-2 {
        fill: #fff200;
      }

      .cls-3 {
        fill: none;
        stroke: #fff200;
        stroke-width: 3px;
      }
    </style>
  </defs>
  <g>
    <path class="cls-1" d="M50.3,329.5c0-6.1,0-12.2,0-18.3,0-.7,0-1.3,0-2,.1-1.3.7-2,2-2,2.1,0,4.3,0,6.4,0,1.1,0,1.4.4,1.5,1.5,0,.7,0,1.3,0,2,0,10.3,0,20.6,0,30.9,0,2.5.4,4.9.4,7.4,0,2.2-.5,2.7-2.8,2.7-1.5,0-3,0-4.5,0-2.7,0-3.2-.5-3.2-3.2,0-6.3,0-12.7,0-19h0Z"/>
    <path class="cls-1" d="M110.5,320.4c1.1-.8,2-1.4,2.7-2,3.3-3.1,6.6-6.1,9.8-9.3,1.3-1.3,2.7-1.9,4.6-1.8,2.4,0,4.8-.3,7.2-.4,1.3,0,2.5.3,4.2.5-.7.8-1,1.3-1.5,1.8-5,4.8-10.1,9.6-15.1,14.4-1.2,1.1-2.2,2.3-3.3,3.5-1.2,1.4-1.4,2.5-.4,4,.6,1,1.4,1.9,2.3,2.7,3,2.9,6,5.7,9,8.6,2.3,2.2,4.3,4.8,6.9,6.6.6.4,1.5,1,1.1,2.1-3.8.5-7.7.9-11.5.6-.9,0-1.8-.7-2.4-1.3-1.7-1.4-3.2-3-4.9-4.5-1.8-1.6-3.7-3.3-5.6-4.8-.9-.8-1.9-1.4-3.5-1.1-.2.6-.6,1.3-.6,2,0,2.3,0,4.6.2,6.9.2,2-.4,2.9-2.6,2.9-2.1,0-4.2,0-6.3,0-1.5,0-1.8-.4-1.9-1.8-.2-3-.4-5.9-.4-8.9,0-9.7,0-19.5,0-29.2,0-.2,0-.5,0-.7-.2-2.8,1.2-4.1,4.2-3.9,1.3,0,2.6,0,3.9,0,2.2.1,2.7.7,2.8,2.7,0,1.9,0,3.8,0,5.7,0,1.5.6,2.8,1,4.6Z"/>
    <path class="cls-1" d="M154.1,325.4c-1.3,1.6-1.2,3.5-1.3,5.2,0,2.5.2,5.1.3,7.6,0,3.9.1,7.8.1,11.6,0,1.4-.4,1.8-1.7,1.8-2.1,0-4.3,0-6.5,0-1.3,0-1.8-.4-2.1-1.7-.1-.5-.1-1.1-.1-1.7,0-12.4,0-24.7,0-37.1,0-3.6.5-4.1,4.2-4.1,5.8,0,4.7-.4,8.6,3.6,5.8,5.9,11.5,11.8,17.3,17.7,1.4,1.4,2.9,2.7,4.7,3.5,1.6.7,2.3.4,2.7-1.2.2-.7.2-1.5.2-2.2,0-5.5,0-11.1,0-16.6,0-.5,0-1,0-1.5.1-2.3.9-3.1,3.2-3.3,1.5,0,3,0,4.5,0,2,0,2.6.7,2.7,2.7,0,2.1,0,4.1,0,6.2,0,3.9,0,7.8,0,11.6,0,3.5-.4,7.1-.3,10.6,0,3.1.3,6.2.4,9.3,0,.6,0,1.2,0,1.7,0,2.1-.2,2.3-2.2,2.3-1.8,0-3.6,0-5.5,0-1.3,0-2.4-.4-3.3-1.3-7.2-7.2-14.4-14.3-21.5-21.6-1-1-1.8-2.3-3.2-3-.3-.2-.7-.3-1.2-.4Z"/>
    <path class="cls-1" d="M223,351.6c-4.3.4-8.3-.6-12.4-1.8-1.5-.5-2.7-1.1-3.8-2.3-.6-.6-1.3-1.1-1.9-1.6-.6-.5-1.2-1-1.6-1.6-4.6-5.8-6.7-12.4-5.2-19.9.1-.6,0-1.2.1-1.8.3-2.1.7-4.2,2.4-5.7.7-.6,1-1.8,1.6-2.5,1.8-2.1,3.8-4,6.3-5.3,3.5-1.8,7-3.3,11-3.2,1.3,0,2.6-.5,3.9-.4,3.8.4,7.7.5,11.4,2,2.2.9,4,2.4,5.9,3.7,2.3,1.5,3.7,3.8,4.6,6.4.2.6.4,1.1.7,1.6,2.8,4.1,2.4,8.7,2.2,13.3,0,1.2-.9,2.3-1.4,3.5-.5,1.2-1.1,2.3-1.5,3.5-1,2.8-2.7,4.9-4.9,6.8-4.6,4.1-10,5.3-15.8,5.3-.6,0-1.2,0-1.7,0ZM223.1,314.7c-4.6,0-7.8.8-10.7,4.6-.4.5-.8.9-1.2,1.3-1.2,1-1.8,2.4-2.3,3.9-1.2,4-1.1,8,1,11.6,3,4.9,7.5,7.4,13.2,7.5,2,0,3.9-.8,5.7-1.3,2.8-.8,4.8-2.6,6-5.3.9-1.8,1.4-3.8,2.3-5.6.9-2,1-3.9,0-5.9-.2-.4-.4-.8-.5-1.2-1.5-5.3-8.1-10.1-13.5-9.5Z"/>
    <path class="cls-1" d="M291.5,333.2c1.5-1.3,2.1-2.8,2.7-4.5,2-5.9,4-11.8,5.9-17.7,1.2-3.5,1.6-3.8,5.3-3.9.8,0,1.7,0,2.5.1,1.6.4,2,1.1,1.5,2.7-.7,2.3-1.5,4.7-2.3,7-3.1,9.6-6.1,19.2-9.2,28.8-.4,1.2-.7,2.5-1.1,3.8-.6,1.9-1.7,2.6-3.7,2.6-1.4,0-2.8-.2-4.2-.5-.4,0-.8-.3-1-.6-.6-.9-1.3-1.7-1.6-2.7-.9-2.9-1.7-5.8-2.5-8.7-.3-1-.6-2-1-3-.2-.5-.6-1-1-1.3-1.5-1.3-2.3-1.3-3.4.3-.5.7-1,1.6-1.3,2.4-1.3,3.7-2.5,7.5-3.7,11.2-.7,2.3-1.5,2.9-3.9,2.9-1.5,0-3.1-.2-4.8-.3-1-2.7-2.1-5.2-2.9-7.7-2-6.2-4-12.5-6-18.7-1.8-5.7-3.7-11.4-5.6-17.1,0-.2,0-.5,0-.8,1.6-1.3,3.4-.7,5.2-.7.7,0,1.5.3,2.2.3,1.6,0,2.6.9,3,2.4,1.5,4.8,2.9,9.6,4.5,14.3,1,2.9,2.2,5.8,3.3,8.7,0,.1.3.2.5.4,1.5-.6,2-2.1,2.5-3.4.6-1.4,1-2.9,1.5-4.4,1.5-4.9,2.9-9.9,4.3-14.9.1-.5.3-1,.5-1.4.6-1.3,1.7-1.8,3.3-1.6,1.3.1,2.1.8,2.4,2.1.8,3.2,1.6,6.3,2.5,9.5,1,3.5,2,6.9,3,10.4.5,1.6,1.2,3.1,2.8,4.2Z"/>
    <path class="cls-1" d="M379.6,333.2c1.5-1.3,2.1-2.8,2.7-4.5,2-5.9,4-11.8,5.9-17.7,1.2-3.5,1.6-3.8,5.3-3.9.8,0,1.7,0,2.5.1,1.6.4,2,1.1,1.5,2.7-.7,2.3-1.5,4.7-2.3,7-3.1,9.6-6.1,19.2-9.2,28.8-.4,1.2-.7,2.5-1.1,3.8-.6,1.9-1.7,2.6-3.7,2.6-1.4,0-2.8-.2-4.2-.5-.4,0-.8-.3-1-.6-.6-.9-1.3-1.7-1.6-2.7-.9-2.9-1.7-5.8-2.5-8.7-.3-1-.6-2-1-3-.2-.5-.6-1-1-1.3-1.5-1.3-2.3-1.3-3.4.3-.5.7-1,1.6-1.3,2.4-1.3,3.7-2.5,7.5-3.7,11.2-.7,2.3-1.5,2.9-3.9,2.9-1.5,0-3.1-.2-4.8-.3-1-2.7-2.1-5.2-2.9-7.7-2-6.2-4-12.5-6-18.7-1.8-5.7-3.7-11.4-5.6-17.1,0-.2,0-.5,0-.8,1.6-1.3,3.4-.7,5.2-.7.7,0,1.5.3,2.2.3,1.6,0,2.6.9,3,2.4,1.5,4.8,2.9,9.6,4.5,14.3,1,2.9,2.2,5.8,3.3,8.7,0,.1.3.2.5.4,1.5-.6,2-2.1,2.5-3.4.6-1.4,1-2.9,1.5-4.4,1.5-4.9,2.9-9.9,4.3-14.9.1-.5.3-1,.5-1.4.6-1.3,1.7-1.8,3.3-1.6,1.3.1,2.1.8,2.4,2.1.8,3.2,1.6,6.3,2.5,9.5,1,3.5,2,6.9,3,10.4.5,1.6,1.2,3.1,2.8,4.2Z"/>
    <path class="cls-1" d="M403.8,306.9c2.9-1.2,5.5-.6,8.1-.7.4,0,1.1.6,1.2,1,.3,1.2.5,2.4.5,3.6,0,4.5,0,8.9,0,13.4,0,.5,0,1,0,1.5,0,1.4.3,1.6,1.8,1.7,0,0,.2,0,.2,0,5.2,0,10.4,0,15.6,0,2.5,0,3.3-.7,3.8-3.2.2-.8.3-1.6.3-2.4,0-3.9,0-7.8,0-11.6,0-2.4,1-3.4,3.5-3.5,1.2,0,2.3,0,3.5,0,1.8,0,2.7.8,3.1,2.6.2,1,.4,2.1.4,3.2,0,6.8,0,13.5,0,20.3,0,.8-.2,1.6-.2,2.4,0,.8-.2,1.7,0,2.5.7,4.3.2,8.6.4,12.8,0,1.5-.3,1.8-1.9,1.9-2,0-4,0-6,0-1.7,0-2.3-.6-2.5-2.3,0-1,0-2,0-3,0-2.4,0-4.8,0-7.2,0-1.4-.3-2.8-1.6-3.7-.5-.4-1.2-.7-1.8-.7-3.6,0-7.2-1-10.8-.2-1.3.3-2.8.2-4.2.1-3.1-.1-4,1.7-3.8,4.2.2,3.1.3,6.2.5,9.3,0,.4,0,.8,0,1.2,0,1.8-.3,2.1-2.2,2.1-1.9,0-3.8,0-5.7,0-1.7,0-2.3-.6-2.5-2.3,0-.3,0-.7,0-1,0-12.7,0-25.4,0-38.1,0-1.3.3-2.6.5-3.9Z"/>
    <path class="cls-1" d="M482.6,325.4c1,2.9.8,5.6.1,8.4-1,0-1.8,0-2.6.1-4.6.1-9.2.3-13.8.4-2,0-2.8.7-3.3,2.7-.9,3.4.9,5.7,4.4,5.7.7,0,1.3,0,2,0,6.2,0,12.4,0,18.6,0,1.1,0,2.2,0,3.2,0,1.1,0,1.4.4,1.5,1.6.2,2-.2,3.9-.9,5.8-.3.9-.9,1.3-1.7,1.5-.5,0-1,0-1.5,0-10.6,0-21.2,0-31.8,0-1.1,0-2.3.2-3.5-1,0-1.4,0-3,0-4.7,0-2-.3-3.9-.3-5.9,0-1.5.1-2.9.2-4.4,0-.9,0-1.8,0-2.7,0-2.5-.5-5-.1-7.4.3-2.2.3-4.4.2-6.6,0-2.7-.2-5.4-.3-8.1,0-.6.1-1.3.3-1.9.3-1.1,1.1-1.8,2.4-1.8.7,0,1.3,0,2,0,10.4,0,20.9,0,31.3,0,.4,0,.8,0,1.2,0,1.2.1,1.9.6,2,1.8.1,1.9.1,3.8,0,5.7,0,1-.5,1.4-1.6,1.4-.7,0-1.3,0-2,0-6.7,0-13.4,0-20.1,0-1.1,0-2.1.3-3.2.5-.2,0-.5.1-.7.2-1.3.5-2.1,3.1-1.6,5.4.4,2,1.4,2.7,3.4,2.9,4.5.5,9.1.4,13.6.4.8,0,1.6,0,2.6,0Z"/>
    <path class="cls-1" d="M548,350.8c-.4.2-.6.3-.8.3-3,.2-6.1.2-9.1.5-2.4.2-4.3-.7-6-2.3-2.7-2.5-5.5-5-8.1-7.6-2.1-2.1-4.4-3-7.3-3-1.3,0-2.6,0-4,0-2.3,0-3.3,1.1-3.4,3.3,0,1.2-.2,2.4.1,3.4.5,1.5,0,2.9-.2,4.4-.1,1.1-.8,1.7-2,1.7-1.9,0-3.8,0-5.7,0-1.2,0-1.6-.4-1.7-1.6-.2-2.1-.4-4.3-.4-6.4,0-10.7,0-21.5,0-32.2,0-3.1.4-4.3,4.4-4.3,6.5,0,13.1,0,19.6,0,2.6,0,5.3.1,7.9.5,2.4.4,4.6,1.3,6.6,2.7,4.5,3.2,7,7.3,6.8,12.9,0,.6,0,1.2,0,1.7.2,3.3-1.1,6.1-3.4,8.4-1,1.1-1.9,2.2-2.9,3.4-1,1.3-1.1,2.3-.1,3.6,1.4,1.7,2.8,3.4,4.4,5,1.5,1.5,3.3,2.7,4.9,4.2.3.3.4.8.6,1.3ZM509.6,317.1c0,2.9,0,5.6,0,8.3-.1,2.5,1.3,4.1,4.1,4,2-.1,4-.2,6,0,2.7.4,5.4-.2,8.1-.2,1.5,0,3.1-.6,4.5-1.1,1.7-.6,2.7-1.9,2.7-3.7,0-.6,0-1.2,0-1.7.1-3-1.7-5.7-5.1-6.2-1.9-.3-3.8-.2-5.6-.6-3.8-.8-7.6,0-11.3.2-1.1,0-2.2.7-3.4,1Z"/>
    <path class="cls-1" d="M583.1,325.4c1,2.9.8,5.6.1,8.4-1,0-1.8,0-2.6.1-4.6.1-9.2.3-13.8.4-2,0-2.8.7-3.3,2.7-.9,3.4.9,5.7,4.4,5.7.7,0,1.3,0,2,0,6.2,0,12.4,0,18.6,0,1.1,0,2.2,0,3.2,0,1.1,0,1.4.4,1.5,1.6.2,2-.2,3.9-.9,5.8-.3.9-.9,1.3-1.7,1.5-.5,0-1,0-1.5,0-10.6,0-21.2,0-31.8,0-1.1,0-2.3.2-3.5-1,0-1.4,0-3,0-4.7,0-2-.3-3.9-.3-5.9,0-1.5.1-2.9.2-4.4,0-.9,0-1.8,0-2.7,0-2.5-.5-5-.1-7.4.3-2.2.3-4.4.2-6.6,0-2.7-.2-5.4-.3-8.1,0-.6.1-1.3.3-1.9.3-1.1,1.1-1.8,2.4-1.8.7,0,1.3,0,2,0,10.4,0,20.9,0,31.3,0,.4,0,.8,0,1.2,0,1.2.1,1.9.6,2,1.8.1,1.9.1,3.8,0,5.7,0,1-.5,1.4-1.6,1.4-.7,0-1.3,0-2,0-6.7,0-13.4,0-20.1,0-1.1,0-2.1.3-3.2.5-.2,0-.5.1-.7.2-1.3.5-2.1,3.1-1.6,5.4.4,2,1.4,2.7,3.4,2.9,4.5.5,9.1.4,13.6.4.8,0,1.6,0,2.6,0Z"/>
    <path class="cls-1" d="M622.3,329.5c0-6.1,0-12.2,0-18.3,0-.7,0-1.3,0-2,.1-1.3.7-2,2-2,2.1,0,4.3,0,6.4,0,1.1,0,1.4.4,1.5,1.5,0,.7,0,1.3,0,2,0,10.3,0,20.6,0,30.9,0,2.5.4,4.9.4,7.4,0,2.2-.5,2.7-2.8,2.7-1.5,0-3,0-4.5,0-2.7,0-3.2-.5-3.2-3.2,0-6.3,0-12.7,0-19h0Z"/>
    <path class="cls-1" d="M642.1,311c0-.7,0-1.4,0-2.1,0-.5.1-1,.3-1.5.2-.3.6-.7.9-.7,1.2,0,2.3,0,3.5,0,1.1.2,1.3.5,1.5,1.7.3,2,.4,4,0,6-.2,1.1-.3,1.2-1.5,1.2-.8,0-1.7,0-2.5,0-1.3,0-2.1-.9-2.2-2.2,0-.8,0-1.6,0-2.4h0Z"/>
    <path class="cls-1" d="M654.4,307c1.2-.2,2.4-.4,3.7-.4,1.9,0,3.8.2,5.7.4,1.2,0,1.9.8,2.4,1.8,1.5,3.2,3,6.4,4.5,9.6.6,1.3,1.2,2.5,1.7,3.8,1.7,3.7,3.4,7.3,5,11,.3.7.6,1.4,1,2,1.3,1.9,3.1,1.9,4.2-.1,1.4-2.6,2.6-5.3,3.9-8,.1-.2.2-.5.3-.7,2.4-5.4,4.9-10.8,7.3-16.2.3-.6.5-1.2.9-1.7.3-.4.8-.9,1.3-.9,2.4-.2,4.8-.4,7.1-.5.2,0,.5,0,.7,0,1.3.2,1.9,1.3,1.4,2.5-1.1,2.5-2.2,5-3.4,7.4-3.3,6.3-5.9,13-8.8,19.5-2,4.5-4.2,8.9-6.2,13.4-.7,1.6-1.8,2.2-3.5,2.1-2.6-.2-5.3-.3-7.9-.4-1,0-1.5-.6-1.8-1.4-1.3-2.8-2.7-5.6-4-8.5-1.6-3.5-3-7.1-4.7-10.6-2.8-6.1-5.7-12.2-8.6-18.3-.5-1-1.1-2-1.8-2.9-.6-.8-.8-1.6-.5-2.9Z"/>
    <path class="cls-1" d="M738.9,325.4c1,2.9.8,5.6.1,8.4-1,0-1.8,0-2.6.1-4.6.1-9.2.3-13.8.4-2,0-2.8.7-3.3,2.7-.9,3.4.9,5.7,4.4,5.7.7,0,1.3,0,2,0,6.2,0,12.4,0,18.6,0,1.1,0,2.2,0,3.2,0,1.1,0,1.4.4,1.5,1.6.2,2-.2,3.9-.9,5.8-.3.9-.9,1.3-1.7,1.5-.5,0-1,0-1.5,0-10.6,0-21.2,0-31.8,0-1.1,0-2.3.2-3.5-1,0-1.4,0-3,0-4.7,0-2-.3-3.9-.3-5.9,0-1.5.1-2.9.2-4.4,0-.9,0-1.8,0-2.7,0-2.5-.5-5-.1-7.4.3-2.2.3-4.4.2-6.6,0-2.7-.2-5.4-.3-8.1,0-.6.1-1.3.3-1.9.3-1.1,1.1-1.8,2.4-1.8.7,0,1.3,0,2,0,10.4,0,20.9,0,31.3,0,.4,0,.8,0,1.2,0,1.2.1,1.9.6,2,1.8.1,1.9.1,3.8,0,5.7,0,1-.5,1.4-1.6,1.4-.7,0-1.3,0-2,0-6.7,0-13.4,0-20.1,0-1.1,0-2.1.3-3.2.5-.2,0-.5.1-.7.2-1.3.5-2.1,3.1-1.6,5.4.4,2,1.4,2.7,3.4,2.9,4.5.5,9.1.4,13.6.4.8,0,1.6,0,2.6,0Z"/>
    <path class="cls-1" d="M782.6,350.7c-.1-3.3-.3-6.7-.3-10.2,0-9.9,0-19.8,0-29.7,0-.6,0-1.2,0-1.7.1-1.1,1.1-2.1,2.2-2.3.2,0,.3,0,.5,0,4.4-.2,8.8-.6,13.1-.4,5,.2,10,.4,14.9,1.8,2,.6,3.9,1.4,5.3,3,1.2,1.4,2.5,2.8,3.4,4.5,1.4,2.5.5,8.9-1.3,11.3-.5.6-.9,1.3-1.4,2.1.5.8.9,1.5,1.4,2.1,4.2,5,4,10.4,1.3,15.9-1.3,2.7-3.7,4.1-6.7,4.3-3.6.3-7.2.8-10.8.9-3.5,0-6.9-.2-10.4-.3-2.6,0-5.1,0-7.7,0-1.1,0-2.2,0-3.4-1.1ZM792.6,324.4c.9.2,1.8.5,2.6.5,3.1,0,6.1.1,9.2,0,1.6,0,3.3-.3,4.9-.7.8-.2,1.6-.5,2.2-1.1,2.7-2.5,1.4-6.4-.9-7.6-1.1-.6-2.5-.9-3.8-1-3-.2-5.9-.3-8.9-.3-.9,0-1.8.1-2.7.3-1.7.4-2.5,1.4-2.6,3.1,0,2.1,0,4.3,0,6.7ZM801.1,344.5c0,0,0-.1,0-.2,1.1,0,2.2.1,3.2,0,2-.3,4.1-.6,6-1.1,2-.6,2.9-2.1,3-4.3,0-2.1-1.2-3.8-3.3-4.3-1.8-.5-3.7-.9-5.6-.9-3.1,0-6.3.2-9.4.4-1.7.1-2.5,1-2.5,2.7s.4,2.9.3,4.4c0,1.8,1,2.6,2.5,2.8,1.9.3,3.7.4,5.6.7Z"/>
    <path class="cls-1" d="M857.8,325.4c1,2.9.8,5.6.1,8.4-1,0-1.8,0-2.6.1-4.6.1-9.2.3-13.8.4-2,0-2.8.7-3.3,2.7-.9,3.4.9,5.7,4.4,5.7.7,0,1.3,0,2,0,6.2,0,12.4,0,18.6,0,1.1,0,2.2,0,3.2,0,1.1,0,1.4.4,1.5,1.6.2,2-.2,3.9-.9,5.8-.3.9-.9,1.3-1.7,1.5-.5,0-1,0-1.5,0-10.6,0-21.2,0-31.8,0-1.1,0-2.3.2-3.5-1,0-1.4,0-3,0-4.7,0-2-.3-3.9-.3-5.9,0-1.5.1-2.9.2-4.4,0-.9,0-1.8,0-2.7,0-2.5-.5-5-.1-7.4.3-2.2.3-4.4.2-6.6,0-2.7-.2-5.4-.3-8.1,0-.6.1-1.3.3-1.9.3-1.1,1.1-1.8,2.4-1.8.7,0,1.3,0,2,0,10.4,0,20.9,0,31.3,0,.4,0,.8,0,1.2,0,1.2.1,1.9.6,2,1.8.1,1.9.1,3.8,0,5.7,0,1-.5,1.4-1.6,1.4-.7,0-1.3,0-2,0-6.7,0-13.4,0-20.1,0-1.1,0-2.1.3-3.2.5-.2,0-.5.1-.7.2-1.3.5-2.1,3.1-1.6,5.4.4,2,1.4,2.7,3.4,2.9,4.5.5,9.1.4,13.6.4.8,0,1.6,0,2.6,0Z"/>
    <path class="cls-1" d="M902.4,325.4c1,2.9.8,5.6.1,8.4-1,0-1.8,0-2.6.1-4.6.1-9.2.3-13.8.4-2,0-2.8.7-3.3,2.7-.9,3.4.9,5.7,4.4,5.7.7,0,1.3,0,2,0,6.2,0,12.4,0,18.6,0,1.1,0,2.2,0,3.2,0,1.1,0,1.4.4,1.5,1.6.2,2-.2,3.9-.9,5.8-.3.9-.9,1.3-1.7,1.5-.5,0-1,0-1.5,0-10.6,0-21.2,0-31.8,0-1.1,0-2.3.2-3.5-1,0-1.4,0-3,0-4.7,0-2-.3-3.9-.3-5.9,0-1.5.1-2.9.2-4.4,0-.9,0-1.8,0-2.7,0-2.5-.5-5-.1-7.4.3-2.2.3-4.4.2-6.6,0-2.7-.2-5.4-.3-8.1,0-.6.1-1.3.3-1.9.3-1.1,1.1-1.8,2.4-1.8.7,0,1.3,0,2,0,10.4,0,20.9,0,31.3,0,.4,0,.8,0,1.2,0,1.2.1,1.9.6,2,1.8.1,1.9.1,3.8,0,5.7,0,1-.5,1.4-1.6,1.4-.7,0-1.3,0-2,0-6.7,0-13.4,0-20.1,0-1.1,0-2.1.3-3.2.5-.2,0-.5.1-.7.2-1.3.5-2.1,3.1-1.6,5.4.4,2,1.4,2.7,3.4,2.9,4.5.5,9.1.4,13.6.4.8,0,1.6,0,2.6,0Z"/>
    <path class="cls-1" d="M929,325.4c-1.3,1.6-1.2,3.5-1.3,5.2,0,2.5.2,5.1.3,7.6,0,3.9.1,7.8.1,11.6,0,1.4-.4,1.8-1.7,1.8-2.1,0-4.3,0-6.5,0-1.3,0-1.8-.4-2.1-1.7-.1-.5-.1-1.1-.1-1.7,0-12.4,0-24.7,0-37.1,0-3.6.5-4.1,4.2-4.1,5.8,0,4.7-.4,8.6,3.6,5.8,5.9,11.5,11.8,17.3,17.7,1.4,1.4,2.9,2.7,4.7,3.5,1.6.7,2.3.4,2.7-1.2.2-.7.2-1.5.2-2.2,0-5.5,0-11.1,0-16.6,0-.5,0-1,0-1.5.1-2.3.9-3.1,3.2-3.3,1.5,0,3,0,4.5,0,2,0,2.6.7,2.7,2.7,0,2.1,0,4.1,0,6.2,0,3.9,0,7.8,0,11.6,0,3.5-.4,7.1-.3,10.6,0,3.1.3,6.2.4,9.3,0,.6,0,1.2,0,1.7,0,2.1-.2,2.3-2.2,2.3-1.8,0-3.6,0-5.5,0-1.3,0-2.4-.4-3.3-1.3-7.2-7.2-14.4-14.3-21.5-21.6-1-1-1.8-2.3-3.2-3-.3-.2-.7-.3-1.2-.4Z"/>
  </g>
  <g>
    <path class="cls-1" d="M80.2,395.7c-1.1.8-2.4.4-3.7.4-.6,0-1.2-.2-1.8-.2-.9,0-1.5-.4-1.8-1.2-.2-.5-.4-.9-.6-1.3-.4-1.1-1.2-1.7-2.4-1.8-1.6-.2-3.3-.3-4.9-.3-2.5,0-4.9.2-7.4.3-1.5,0-2.7.7-3.1,2.2-.6,2.3-2.2,2.8-4.3,2.7-.8,0-1.7,0-2.5,0-.8,0-1.4-.2-1.9-.8.1-.3.2-.6.4-.9,1.1-2.1,2.1-4.2,3.2-6.3,2.2-4.1,3.9-8.4,5.8-12.7,1.3-2.8,2.6-5.7,3.8-8.6.3-.7.9-1,1.5-1,1.9,0,3.8,0,5.6,0,1,0,1.4.7,1.8,1.5.8,1.6,1.5,3.2,2.2,4.8,1,2.2,1.8,4.3,2.8,6.5,2.3,4.9,4.6,9.8,6.9,14.8.3.7.5,1.3.2,2.1ZM63.6,387.6h0c.9,0,1.9,0,2.8,0,1.9-.2,2.6-1.6,1.8-3.3-1-2.1-1.9-4.2-2.9-6.3-.2-.3-.4-.7-.6-1-.8-.9-1.5-.9-2.4,0-.2.2-.4.5-.5.8-.6,1.3-1.2,2.6-1.7,3.9-.5,1.1-1,2.1-1.4,3.2-.3.9-.1,1.7.7,2.1.5.3,1.1.5,1.7.5.8,0,1.7,0,2.5,0Z"/>
    <path class="cls-1" d="M108.2,389.9c.2.1.3.3.4.3.9.2,1.8.4,2.7.4,1.3.1,2.6.2,3.9.2.9,0,1.7-.1,2.6-.1.5,0,1,0,1.4,0,.9,0,1.8.1,2.7.2.7,0,1.4.1,2.1.2.4,0,.6.2.6.6,0,1.3.3,2.6,0,3.9-.2.7-.3.9-1.1.7-.4,0-.8,0-1.2,0-7.2,0-14.4,0-21.6,0-1.1,0-2.1.1-3.2.1-.4,0-.8,0-1.1-.2-.4-.1-.5-.3-.3-.7.3-.9.7-1.8,1.1-2.6.5-1,1-1.9,1.7-2.8.4-.5.9-1,1.3-1.5.3-.4.8-.7,1.1-1.1.7-1.1,1.7-1.8,2.6-2.6,1.1-.9,2.2-1.8,3.2-2.7.2-.1.3-.3.5-.4.8-.5,1.4-1,2-1.7.7-.8,1.7-1.3,2.7-1.8,1.2-.7,2-1.7,2.3-3.1,0-.2,0-.5,0-.7-.3-1.3-1.2-2-2.5-2.4-2.3-.8-4.3-.2-6.1,1.4-.4.4-.7.9-1,1.4-.2.3-.4.5-.8.5-2.2,0-4.3,0-6.5-.2-.7,0-.9-.2-.9-1,0-.4,0-.8.2-1.2.4-.9.8-1.8,1.3-2.7.7-1.2,1.9-1.9,3.1-2.5,3.1-1.6,6.4-2.5,10-2.2,1.6.1,3.1.4,4.6.9,1.2.4,2.3.8,3.5,1.3.5.2.9.6,1.2,1.1,1,1.5,1.6,3.2,1.9,4.9,0,.2,0,.5,0,.8,0,.6,0,1.2-.2,1.8,0,.4-.2.7-.4,1-.5.8-1,1.6-1.4,2.4-.3.5-.8.8-1.2,1.1-.7.5-1.3,1.1-2,1.7-.6.6-1.3,1-1.9,1.5-.5.4-1.1.7-1.5,1.2-1.6,1.8-3.5,3.1-5.4,4.5-.1,0-.2.2-.4.4Z"/>
    <path class="cls-1" d="M132.4,387.8c2.1.8,4,1.5,5.9,2.3,2.6,1,5.4,1.1,8.1.8,1.7-.2,3.4-.7,4.7-2,1.5-1.5,1.3-3.5-.6-4.6-1.1-.6-2.3-1-3.6-1-.9,0-1.9,0-2.8,0-1.6-.1-3.2-.3-4.7-.5-1-.1-2.1-.2-3.1-.5-2.3-.6-4.4-1.6-5.8-3.6-2-2.8-1.1-6.5.7-8.6,2.5-2.9,5.8-4,9.6-4.3,1.2,0,2.4-.3,3.6-.2,3.6,0,7.1.8,10.4,1.9,1.5.5,1.8,1.2,1.4,2.7-.1.5-.3.9-.5,1.3-.9,1.4-1.5,1.5-2.7,1-1.7-.6-3.4-1.1-5.2-1.4-3.2-.6-6.4-.3-9.4.9-1.1.5-2,1.1-2,2.5,0,1.4.9,2.3,2.2,2.7,1.8.6,3.7.9,5.6.9,1.1,0,2.2,0,3.3,0,2.5,0,4.8.7,6.9,1.9,2.7,1.5,4.1,4.5,3.7,7.4-.2,1.3-.3,2.6-1.4,3.6-.6.6-1.2,1.1-1.8,1.6-.3.2-.7.3-1,.6-1.1,1.3-2.7,1.7-4.3,2.1-1.8.5-3.7.7-5.5.6-1.9,0-3.8.2-5.8-.3-2.7-.7-5.4-1.3-7.9-2.7-.4-.2-.8-.4-1.1-.7-.2-.2-.3-.7-.2-1,.6-1.5,1.7-2.7,3-3.6Z"/>
    <path class="cls-1" d="M164.2,395.7c0-.7-.2-1.4-.2-2.2,0-4.1,0-8.3,0-12.4,0-1.4.2-2.7.3-4.1,0-.2,0-.4,0-.7-.5-2.5-.2-5-.3-7.6,0-.4,0-.8.1-1.1.2-.8.5-1.1,1.4-1.1,1.6,0,3.2,0,4.8,0,.9.9.6,1.9.6,2.8,0,.8,0,1.6,0,2.4,0,.2.1.4,0,.6-.6,5,0,10-.3,15,0,1.5.6,2.7,2.7,2.8.7,0,1.4,0,2.2,0,2.6,0,5.2,0,7.8,0,1.3,0,2.6-.2,3.9-.2.7,0,1.4.1,2.1.2,1.2.2,1.1.3,1.2,1.3.1,1.3-.3,2.5-.7,3.7,0,.3-.5.5-.8.6-.4.1-.8,0-1.2,0-5.4,0-10.8,0-16.2,0-1.3,0-2.5.2-3.8.2-1.1,0-2.2.2-3.5-.5Z"/>
    <path class="cls-1" d="M215.3,380.3c.7,0,1.4,0,2.2,0,2.4,0,4.7.2,7.1.3.9,0,1.2.4,1.1,1.3-.4,3.6-1.9,6.7-4,9.6-1.4,1.9-3.2,2.9-5.3,3.7-2,.8-4.1,1.2-6.2,1.3-2.7.1-5.3-.7-7.9-1.5-.7-.2-1.3-.5-2-.8-.9-.3-1.6-.7-2.3-1.5-.9-1.1-2-2-3.1-3-.2-.2-.4-.3-.5-.5-1.4-2.8-2.9-5.5-2.7-8.7.1-1.7.4-3.3.7-5,.2-1,.7-1.9,1.4-2.6.1-.2.3-.3.4-.5,1.7-2.9,4.3-4.5,7.3-5.8,1.3-.5,2.6-.9,4-.9,1.4,0,2.8-.3,4.3-.3,2,0,4,0,5.9.4,1.9.4,3.8,1.2,5.3,2.5.7.7.8,1,.2,1.9-.7,1-1.6,1.9-2.3,2.8-.5.6-1.1.6-1.8.4-.6-.3-1.2-.6-1.8-.9-2.2-1.1-4.5-1.5-7-1.1-2.2.3-4.1,1-5.8,2.4-2.2,1.7-3.3,3.9-3.5,6.8-.1,2.5.6,4.7,2.3,6.5,1.3,1.5,3.1,2.3,5,2.7,3.7.9,6.7.3,10.1-1.2.4-.2.8-.6,1.1-.9.4-.6.9-1.5.6-2.1-.2-.6-.8-.5-1.3-.5-2.2,0-4.3,0-6.5,0-1.2,0-1.2,0-1.6-1.3-.4-1.1,0-2,.3-3,.1-.5.7-.5,1.1-.5,1.4,0,2.9,0,4.3,0,.3,0,.7,0,1,0,0,0,0,0,0,0Z"/>
    <path class="cls-1" d="M230.8,395.6c0-2.2-.2-4.5-.2-6.8,0-6.6,0-13.2,0-19.8,0-.4,0-.8,0-1.2,0-.8.7-1.4,1.5-1.6.1,0,.2,0,.3,0,2.9-.1,5.8-.4,8.7-.3,3.3.1,6.7.2,9.9,1.2,1.3.4,2.6,1,3.5,2,.8,1,1.7,1.9,2.3,3,.9,1.7.3,5.9-.9,7.5-.3.4-.6.9-1,1.4.3.5.6,1,1,1.4,2.8,3.3,2.7,6.9.8,10.6-.9,1.8-2.5,2.7-4.5,2.9-2.4.2-4.8.5-7.2.6-2.3,0-4.6-.1-6.9-.2-1.7,0-3.4,0-5.1,0-.7,0-1.4,0-2.3-.8ZM237.5,378.1c.6.1,1.2.3,1.8.3,2,0,4.1,0,6.1,0,1.1,0,2.2-.2,3.2-.4.5-.1,1.1-.4,1.4-.7,1.8-1.7.9-4.2-.6-5-.8-.4-1.7-.6-2.5-.7-2-.2-4-.2-5.9-.2-.6,0-1.2,0-1.8.2-1.1.2-1.7.9-1.7,2.1,0,1.4,0,2.8,0,4.4ZM243.2,391.4s0,0,0-.1c.7,0,1.4,0,2.2,0,1.4-.2,2.7-.4,4-.8,1.3-.4,2-1.4,2-2.9,0-1.4-.8-2.5-2.2-2.9-1.2-.3-2.5-.6-3.7-.6-2.1,0-4.2.1-6.3.3-1.1,0-1.7.6-1.7,1.8s.2,2,.2,2.9c0,1.2.6,1.7,1.7,1.9,1.2.2,2.5.3,3.7.4Z"/>
    <path class="cls-1" d="M272.9,384.5c0-3,0-6,0-9.1,0-.4,0-.8,0-1.2,0-1.1-.5-1.5-1.6-1.7-.4,0-.9,0-1.3,0-2.2,0-4.4,0-6.6,0-.5,0-1.1,0-1.6-.3-.3-.1-.7-.5-.7-.8,0-1.3,0-2.6.2-3.9.2-1.2.3-1.2,1.5-1.2,1.9,0,3.9,0,5.8,0,6.6,0,13.2,0,19.9,0,.3,0,.6,0,.8,0,1.6-.1,2.3.5,2.2,2.2,0,.8,0,1.6,0,2.5,0,.9-.3,1.2-1.1,1.4-.4,0-.9,0-1.3,0-2.2,0-4.4,0-6.6,0-.4,0-.8,0-1.2,0-1.1.2-1.7.9-1.7,2,0,1.1,0,2.2,0,3.3,0,1.3-.2,2.6-.2,3.9,0,.9.2,1.8.2,2.8,0,3.3,0,6.6,0,9.9,0,.2,0,.3,0,.5-.1.9-.5,1.3-1.4,1.3-1.1,0-2.2,0-3.3,0-1.4,0-1.9-.5-1.9-1.9,0-3.3,0-6.6,0-9.9,0,0,0,0,0,0Z"/>
    <path class="cls-1" d="M328.7,395.8c-2,0-3.8,0-5.6,0-.2,0-.4,0-.6,0-1-.3-1.9-.7-3.1-1.2-.9.3-2,.7-3.2,1.1-1.1.4-2.2.6-3.4.6-2,0-4,0-6,0-.8,0-1.6-.3-2.4-.5-.4-.1-.8-.4-1.2-.4-2.6-.4-4.4-2-6-3.9-1.7-2-3.2-4.1-3.5-6.8-.2-1.5-.6-2.9-.3-4.5.3-1.4.3-2.9.5-4.4.1-.9.5-1.7,1.2-2.4.4-.3.7-.8.9-1.2.5-1.1,1.3-1.8,2.2-2.6,1.9-1.6,4.1-2.7,6.5-3.6.2,0,.3,0,.5-.1,2-.1,4.1-.4,6.1-.3,2.4.1,5,.2,7.2,1.4,3,1.6,5.9,3.3,7,7,0,.3.2.7.4.9,1.3,1.8,1.4,3.9,1.5,6,.1,1.9-.1,3.7-1,5.4-.7,1.3-1.1,2.8-.6,4.4.3,1,.8,1.7,1.4,2.4.5.5,1,1.1,1.4,1.7.2.2.2.6.3,1.1ZM310.2,371.6c-.2,0-.6,0-.9,0-2.3,0-4.3.8-5.9,2.6-.4.4-.8.8-1.2,1.2-1.2,1.1-1.7,2.6-1.8,4.2,0,.8,0,1.7,0,2.6,0,1.9.8,3.6,2,5.1,1.7,1.9,3.8,3,6.3,3.5,2.3.4,4.4-.6,6.5-1.3.3-.1.6-.4.9-.7,1.8-1.5,2.6-3.6,3.1-5.8.3-1.5.5-3,.1-4.5-.9-3.4-4.8-7.4-9.2-6.8Z"/>
    <path class="cls-1" d="M333.8,381.4c0-4.1,0-8.1,0-12.2,0-.4,0-.9,0-1.3,0-.9.5-1.3,1.3-1.4,1.4,0,2.9,0,4.3,0,.7,0,.9.3,1,1,0,.4,0,.9,0,1.3,0,6.9,0,13.7,0,20.6,0,1.6.2,3.3.3,4.9,0,1.5-.3,1.8-1.8,1.8-1,0-2,0-3,0-1.8,0-2.1-.4-2.1-2.1,0-4.2,0-8.5,0-12.7h0Z"/>
    <path class="cls-1" d="M379.2,395.7c-1.1.8-2.4.4-3.7.4-.6,0-1.2-.2-1.8-.2-.9,0-1.5-.4-1.8-1.2-.2-.5-.4-.9-.6-1.3-.4-1.1-1.2-1.7-2.4-1.8-1.6-.2-3.3-.3-4.9-.3-2.5,0-4.9.2-7.4.3-1.5,0-2.7.7-3.1,2.2-.6,2.3-2.2,2.8-4.3,2.7-.8,0-1.7,0-2.5,0-.8,0-1.4-.2-1.9-.8.1-.3.2-.6.4-.9,1.1-2.1,2.1-4.2,3.2-6.3,2.2-4.1,3.9-8.4,5.8-12.7,1.3-2.8,2.6-5.7,3.8-8.6.3-.7.9-1,1.5-1,1.9,0,3.8,0,5.6,0,1,0,1.4.7,1.8,1.5.8,1.6,1.5,3.2,2.2,4.8,1,2.2,1.8,4.3,2.8,6.5,2.3,4.9,4.6,9.8,6.9,14.8.3.7.5,1.3.2,2.1ZM362.6,387.6h0c.9,0,1.9,0,2.8,0,1.9-.2,2.6-1.6,1.8-3.3-1-2.1-1.9-4.2-2.9-6.3-.2-.3-.4-.7-.6-1-.8-.9-1.5-.9-2.4,0-.2.2-.4.5-.5.8-.6,1.3-1.2,2.6-1.7,3.9-.5,1.1-1,2.1-1.4,3.2-.3.9-.1,1.7.7,2.1.5.3,1.1.5,1.7.5.8,0,1.7,0,2.5,0Z"/>
  </g>
  <path class="cls-1" d="M399,387.6c-1.2,0-1.8,0-2,.2-.3.3-.2.8-.2,2.1v3c0,2,.2,2.9-2.6,2.9s-2.6-.9-2.6-2.9v-3c0-1.2,0-1.9-.2-2.1-.3-.2-.8-.2-2.1-.2h-3c-2,0-2.9.2-2.9-2.6s.9-2.6,2.9-2.6h3c1.2,0,1.8,0,2.1-.2.2-.2.2-.8.2-2v-3c0-2-.2-2.9,2.6-2.9s2.6.9,2.6,2.9v3c0,1.2,0,1.8.2,2,.2.3.8.2,2,.2h3c2,0,2.9-.2,2.9,2.6s-.9,2.6-2.9,2.6h-3Z"/>
  <g>
    <path class="cls-1" d="M424.5,366.3c1.9-.8,3.7-.4,5.4-.4.3,0,.7.4.8.7.2.8.4,1.6.4,2.4,0,3,0,5.9,0,8.9,0,.3,0,.7,0,1,0,.9.2,1.1,1.2,1.2,0,0,.1,0,.2,0,3.5,0,7,0,10.4,0,1.7,0,2.2-.5,2.5-2.2.1-.5.2-1.1.2-1.6,0-2.6,0-5.2,0-7.8,0-1.6.6-2.2,2.3-2.3.8,0,1.5,0,2.3,0,1.2,0,1.8.6,2,1.7.1.7.2,1.4.3,2.1,0,4.5,0,9,0,13.5,0,.5-.1,1.1-.2,1.6,0,.5-.1,1.1,0,1.6.5,2.8.1,5.7.3,8.5,0,1-.2,1.2-1.3,1.3-1.3,0-2.6,0-4,0-1.1,0-1.6-.4-1.7-1.6,0-.7,0-1.3,0-2,0-1.6,0-3.2,0-4.8,0-.9-.2-1.9-1.1-2.5-.4-.2-.8-.5-1.2-.4-2.4,0-4.8-.7-7.2-.1-.9.2-1.9.1-2.8,0-2.1,0-2.6,1.1-2.5,2.8.1,2.1.2,4.2.3,6.2,0,.3,0,.6,0,.8,0,1.2-.2,1.4-1.5,1.4-1.3,0-2.5,0-3.8,0-1.2,0-1.6-.4-1.7-1.5,0-.2,0-.4,0-.7,0-8.5,0-16.9,0-25.4,0-.9.2-1.7.3-2.6Z"/>
    <path class="cls-1" d="M459.3,381.4c0-4.1,0-8.1,0-12.2,0-.4,0-.9,0-1.3,0-.9.5-1.3,1.3-1.4,1.4,0,2.9,0,4.3,0,.7,0,.9.3,1,1,0,.4,0,.9,0,1.3,0,6.9,0,13.7,0,20.6,0,1.6.2,3.3.3,4.9,0,1.5-.3,1.8-1.8,1.8-1,0-2,0-3,0-1.8,0-2.1-.4-2.1-2.1,0-4.2,0-8.5,0-12.7h0Z"/>
    <path class="cls-1" d="M474.9,387.8c2.1.8,4,1.5,5.9,2.3,2.6,1,5.4,1.1,8.1.8,1.7-.2,3.4-.7,4.7-2,1.5-1.5,1.3-3.5-.6-4.6-1.1-.6-2.3-1-3.6-1-.9,0-1.9,0-2.8,0-1.6-.1-3.2-.3-4.7-.5-1-.1-2.1-.2-3.1-.5-2.3-.6-4.4-1.6-5.8-3.6-2-2.8-1.1-6.5.7-8.6,2.5-2.9,5.8-4,9.6-4.3,1.2,0,2.4-.3,3.6-.2,3.6,0,7.1.8,10.4,1.9,1.5.5,1.8,1.2,1.4,2.7-.1.5-.3.9-.5,1.3-.9,1.4-1.5,1.5-2.7,1-1.7-.6-3.4-1.1-5.2-1.4-3.2-.6-6.4-.3-9.4.9-1.1.5-2,1.1-2,2.5,0,1.4.9,2.3,2.2,2.7,1.8.6,3.7.9,5.6.9,1.1,0,2.2,0,3.3,0,2.5,0,4.8.7,6.9,1.9,2.7,1.5,4.1,4.5,3.7,7.4-.2,1.3-.3,2.6-1.4,3.6-.6.6-1.2,1.1-1.8,1.6-.3.2-.7.3-1,.6-1.1,1.3-2.7,1.7-4.3,2.1-1.8.5-3.7.7-5.5.6-1.9,0-3.8.2-5.8-.3-2.7-.7-5.4-1.3-7.9-2.7-.4-.2-.8-.4-1.1-.7-.2-.2-.3-.7-.2-1,.6-1.5,1.7-2.7,3-3.6Z"/>
    <path class="cls-1" d="M515.4,384.5c0-3,0-6,0-9.1,0-.4,0-.8,0-1.2,0-1.1-.5-1.5-1.6-1.7-.4,0-.9,0-1.3,0-2.2,0-4.4,0-6.6,0-.5,0-1.1,0-1.6-.3-.3-.1-.7-.5-.7-.8,0-1.3,0-2.6.2-3.9.2-1.2.3-1.2,1.5-1.2,1.9,0,3.9,0,5.8,0,6.6,0,13.2,0,19.9,0,.3,0,.6,0,.8,0,1.6-.1,2.3.5,2.2,2.2,0,.8,0,1.6,0,2.5,0,.9-.3,1.2-1.1,1.4-.4,0-.9,0-1.3,0-2.2,0-4.4,0-6.6,0-.4,0-.8,0-1.2,0-1.1.2-1.7.9-1.7,2,0,1.1,0,2.2,0,3.3,0,1.3-.2,2.6-.2,3.9,0,.9.2,1.8.2,2.8,0,3.3,0,6.6,0,9.9,0,.2,0,.3,0,.5-.1.9-.5,1.3-1.4,1.3-1.1,0-2.2,0-3.3,0-1.4,0-1.9-.5-1.9-1.9,0-3.3,0-6.6,0-9.9,0,0,0,0,0,0Z"/>
    <path class="cls-1" d="M552.6,396.2c-2.8.3-5.6-.4-8.3-1.2-1-.3-1.8-.8-2.5-1.5-.4-.4-.8-.7-1.3-1.1-.4-.3-.8-.7-1.1-1-3.1-3.9-4.5-8.2-3.5-13.3,0-.4,0-.8,0-1.2.2-1.4.5-2.8,1.6-3.8.5-.4.7-1.2,1.1-1.7,1.2-1.4,2.5-2.7,4.2-3.5,2.3-1.2,4.7-2.2,7.4-2.1.9,0,1.8-.3,2.6-.2,2.6.3,5.1.4,7.6,1.3,1.5.6,2.6,1.6,3.9,2.4,1.6,1,2.5,2.5,3.1,4.3.1.4.3.8.5,1.1,1.9,2.7,1.6,5.8,1.5,8.9,0,.8-.6,1.6-.9,2.3-.3.8-.7,1.5-1,2.3-.7,1.9-1.8,3.3-3.3,4.6-3.1,2.7-6.6,3.6-10.5,3.5-.4,0-.8,0-1.2,0ZM552.7,371.5c-3,0-5.2.6-7.1,3.1-.2.3-.5.6-.8.8-.8.7-1.2,1.6-1.5,2.6-.8,2.7-.7,5.4.7,7.7,2,3.3,5,4.9,8.8,5,1.4,0,2.6-.5,3.8-.9,1.8-.5,3.2-1.7,4-3.5.6-1.2.9-2.5,1.5-3.8.6-1.3.6-2.6,0-3.9-.1-.3-.3-.5-.3-.8-1-3.5-5.4-6.7-9-6.3Z"/>
    <path class="cls-1" d="M607.5,395.7c-.2.1-.4.2-.5.2-2,.1-4.1.1-6.1.3-1.6.2-2.9-.5-4-1.5-1.8-1.7-3.7-3.3-5.4-5.1-1.4-1.4-2.9-2-4.9-2-.9,0-1.8,0-2.6,0-1.5,0-2.2.7-2.3,2.2,0,.8-.2,1.6,0,2.3.4,1,0,2-.1,2.9,0,.8-.5,1.1-1.4,1.1-1.3,0-2.5,0-3.8,0-.8,0-1.1-.2-1.1-1.1-.1-1.4-.3-2.8-.3-4.3,0-7.2,0-14.3,0-21.5,0-2.1.3-2.9,2.9-2.9,4.4,0,8.7,0,13.1,0,1.8,0,3.5,0,5.3.4,1.6.2,3,.9,4.4,1.8,3,2.1,4.7,4.9,4.5,8.6,0,.4,0,.8,0,1.2.1,2.2-.7,4-2.3,5.6-.7.7-1.3,1.5-1.9,2.3-.7.9-.8,1.5,0,2.4.9,1.2,1.9,2.3,3,3.3,1,1,2.2,1.8,3.3,2.8.2.2.2.5.4.8ZM582,373.2c0,1.9,0,3.7,0,5.5,0,1.6.8,2.8,2.7,2.7,1.3,0,2.7-.1,4,0,1.8.2,3.6-.1,5.4-.1,1,0,2-.4,3-.7,1.2-.4,1.8-1.2,1.8-2.5,0-.4,0-.8,0-1.2,0-2-1.1-3.8-3.4-4.2-1.2-.2-2.5-.1-3.8-.4-2.5-.5-5,0-7.6.1-.7,0-1.4.4-2.2.7Z"/>
    <path class="cls-1" d="M612.3,381.4c0-4.1,0-8.1,0-12.2,0-.4,0-.9,0-1.3,0-.9.5-1.3,1.3-1.4,1.4,0,2.9,0,4.3,0,.7,0,.9.3,1,1,0,.4,0,.9,0,1.3,0,6.9,0,13.7,0,20.6,0,1.6.2,3.3.3,4.9,0,1.5-.3,1.8-1.8,1.8-1,0-2,0-3,0-1.8,0-2.1-.4-2.1-2.1,0-4.2,0-8.5,0-12.7h0Z"/>
    <path class="cls-1" d="M649.7,374.8c-.7-.5-1.3-1-2-1.4-2.5-1.6-5.1-2.2-8.1-1.9-4.2.5-6.5,3.1-7.7,6.8-1.2,3.5,0,8.6,4.1,10.8,2.1,1.2,4.3,1.7,6.6,1.1.8-.2,1.6-.2,2.4-.4,1.2-.3,2.4-.7,3.4-1.7.3-.3.7-.5,1.1-.8.6-.4,1.4-.5,1.9,0,1,.8,2.2,1.3,2.7,2.8-1,2.5-2.9,4-5.3,4.9-1.7.7-3.5,1.2-5.5,1.1-.8,0-1.5.3-2.3.3-3.1,0-6.2-.5-9.1-1.8-.6-.2-1.1-.8-1.5-1.2-.5-.5-.8-1.1-1.3-1.5-1.7-1.1-2.5-2.8-3.2-4.6-1.3-3.2-1.3-6.6-.9-10.1.3-2.1,1.1-3.9,2.2-5.6.7-1,1.8-1.7,2.7-2.5,1.5-1.5,3.3-2.1,5.1-3,.2,0,.4-.2.6-.2,2.4-.1,4.8-.4,7.2-.3,2,0,4.1.2,5.9,1.3,1.5.9,3,1.7,4.3,2.8,1.1.9,1.1,2,0,3-.5.5-1,.9-1.6,1.2-.5.3-1.1.6-1.7.9Z"/>
    <path class="cls-1" d="M691,395.7c-1.1.8-2.4.4-3.7.4-.6,0-1.2-.2-1.8-.2-.9,0-1.5-.4-1.8-1.2-.2-.5-.4-.9-.6-1.3-.4-1.1-1.2-1.7-2.4-1.8-1.6-.2-3.3-.3-4.9-.3-2.5,0-4.9.2-7.4.3-1.5,0-2.7.7-3.1,2.2-.6,2.3-2.2,2.8-4.3,2.7-.8,0-1.7,0-2.5,0-.8,0-1.4-.2-1.9-.8.1-.3.2-.6.4-.9,1.1-2.1,2.1-4.2,3.2-6.3,2.2-4.1,3.9-8.4,5.8-12.7,1.3-2.8,2.6-5.7,3.8-8.6.3-.7.9-1,1.5-1,1.9,0,3.8,0,5.6,0,1,0,1.4.7,1.8,1.5.8,1.6,1.5,3.2,2.2,4.8,1,2.2,1.8,4.3,2.8,6.5,2.3,4.9,4.6,9.8,6.9,14.8.3.7.5,1.3.2,2.1ZM674.4,387.6h0c.9,0,1.9,0,2.8,0,1.9-.2,2.6-1.6,1.8-3.3-1-2.1-1.9-4.2-2.9-6.3-.2-.3-.4-.7-.6-1-.8-.9-1.5-.9-2.4,0-.2.2-.4.5-.5.8-.6,1.3-1.2,2.6-1.7,3.9-.5,1.1-1,2.1-1.4,3.2-.3.9,0,1.7.7,2.1.5.3,1.1.5,1.7.5.8,0,1.7,0,2.5,0Z"/>
    <path class="cls-1" d="M695.8,395.7c0-.7-.2-1.4-.2-2.2,0-4.1,0-8.3,0-12.4,0-1.4.2-2.7.3-4.1,0-.2,0-.4,0-.7-.5-2.5-.2-5-.3-7.6,0-.4,0-.8.1-1.1.2-.8.5-1.1,1.4-1.1,1.6,0,3.2,0,4.8,0,.9.9.6,1.9.6,2.8,0,.8,0,1.6,0,2.4,0,.2.1.4,0,.6-.6,5,0,10-.3,15,0,1.5.6,2.7,2.7,2.8.7,0,1.4,0,2.2,0,2.6,0,5.2,0,7.8,0,1.3,0,2.6-.2,3.9-.2.7,0,1.4.1,2.1.2,1.2.2,1.1.3,1.2,1.3.1,1.3-.3,2.5-.7,3.7,0,.3-.5.5-.8.6-.4.1-.8,0-1.2,0-5.4,0-10.8,0-16.2,0-1.3,0-2.5.2-3.8.2-1.1,0-2.2.2-3.5-.5Z"/>
    <path class="cls-1" d="M748.4,384.5c0-3,0-6,0-9.1,0-.4,0-.8,0-1.2,0-1.1-.5-1.5-1.6-1.7-.4,0-.9,0-1.3,0-2.2,0-4.4,0-6.6,0-.5,0-1.1,0-1.6-.3-.3-.1-.7-.5-.7-.8,0-1.3,0-2.6.2-3.9.2-1.2.3-1.2,1.5-1.2,1.9,0,3.9,0,5.8,0,6.6,0,13.2,0,19.9,0,.3,0,.6,0,.8,0,1.6-.1,2.3.5,2.2,2.2,0,.8,0,1.6,0,2.5,0,.9-.3,1.2-1.1,1.4-.4,0-.9,0-1.3,0-2.2,0-4.4,0-6.6,0-.4,0-.8,0-1.2,0-1.1.2-1.7.9-1.7,2,0,1.1,0,2.2,0,3.3,0,1.3-.2,2.6-.2,3.9,0,.9.2,1.8.2,2.8,0,3.3,0,6.6,0,9.9,0,.2,0,.3,0,.5-.1.9-.5,1.3-1.4,1.3-1.1,0-2.2,0-3.3,0-1.4,0-1.9-.5-1.9-1.9,0-3.3,0-6.6,0-9.9,0,0,0,0,0,0Z"/>
    <path class="cls-1" d="M771.4,381.4c0-4.1,0-8.1,0-12.2,0-.4,0-.9,0-1.3,0-.9.5-1.3,1.3-1.4,1.4,0,2.9,0,4.3,0,.7,0,.9.3,1,1,0,.4,0,.9,0,1.3,0,6.9,0,13.7,0,20.6,0,1.6.2,3.3.3,4.9,0,1.5-.3,1.8-1.8,1.8-1,0-2,0-3,0-1.8,0-2.1-.4-2.1-2.1,0-4.2,0-8.5,0-12.7h0Z"/>
    <path class="cls-1" d="M820.4,396.6c-1.7,0-3.4,0-5.1,0-1,0-1.2-.2-1.3-1.3,0-2.8,0-5.6,0-8.4,0-.6,0-1.2,0-1.8,0-.5-.2-1-.5-1.4-.6-.9-1.7-.9-2.2.2-.9,1.9-1.7,3.8-2.5,5.7-.8,1.8-1.5,3.5-2.2,5.3-.4.9-1.2,1.4-2.2,1.3-.9,0-1.9-.2-2.8-.2-.8,0-1.4-.3-1.8-.9-.3-.5-.7-1-1-1.5-1.2-2.5-2.4-5-3.7-7.6-.3-.5-.6-1.1-.9-1.5-.7-1-1.9-.8-2.3.3-.2.6-.3,1.4-.3,2.1,0,1.3.2,2.6.2,3.9,0,1.5,0,3,0,4.5,0,1.2-.2,1.4-1.5,1.4-1.3,0-2.6,0-4,0-1.1,0-1.5-.5-1.5-1.5,0-.2,0-.4,0-.7,0-8.5,0-16.9,0-25.4,0-.9.2-1.7.2-2.5.8-.5,1.6-.6,2.5-.6,1,0,2,0,3,0,1.3,0,2.3.5,2.8,1.8,1.9,4.3,3.9,8.6,5.8,12.9.6,1.2,1.2,2.5,1.8,3.7,0,0,0,.2.1.3,1,1.4,2.2,1.5,3.1,0,.9-1.6,1.6-3.2,2.4-4.9,0-.1,0-.3.1-.5,1.7-3.7,3.4-7.3,5-11.1.5-1.3,1.4-1.8,2.6-1.9,1.4,0,2.8,0,4.1,0,1.1,0,1.6.4,1.8,1.5.2.6.2,1.2.2,1.8,0,7.3,0,14.5,0,21.8,0,.9.2,1.8.2,2.8,0,.8.2,1.7-.6,2.5Z"/>
    <path class="cls-1" d="M847.1,378.7c.7,1.9.5,3.7,0,5.6-.6,0-1.2,0-1.7,0-3.1,0-6.2.2-9.2.3-1.3,0-1.8.5-2.2,1.8-.6,2.3.6,3.8,2.9,3.8.4,0,.9,0,1.3,0,4.1,0,8.3,0,12.4,0,.7,0,1.4,0,2.1,0,.7,0,.9.3,1,1,.1,1.3-.1,2.6-.6,3.9-.2.6-.6.9-1.2,1-.3,0-.7,0-1,0-7.1,0-14.1,0-21.2,0-.8,0-1.6.1-2.3-.7,0-.9,0-2,0-3.1,0-1.3-.2-2.6-.2-3.9,0-1,0-2,.1-2.9,0-.6,0-1.2,0-1.8,0-1.6-.3-3.3,0-4.9.2-1.5.2-3,.2-4.4,0-1.8-.2-3.6-.2-5.4,0-.4,0-.9.2-1.3.2-.8.7-1.2,1.6-1.2.4,0,.9,0,1.3,0,7,0,13.9,0,20.8,0,.3,0,.6,0,.8,0,.8,0,1.3.4,1.3,1.2,0,1.3,0,2.5,0,3.8,0,.7-.3.9-1.1,1-.4,0-.9,0-1.3,0-4.5,0-8.9,0-13.4,0-.7,0-1.4.2-2.1.3-.2,0-.3,0-.5.1-.8.4-1.4,2.1-1.1,3.6.3,1.3.9,1.8,2.3,1.9,3,.3,6,.3,9.1.3.5,0,1.1,0,1.7,0Z"/>
    <path class="cls-1" d="M859.5,395.7c0-.7-.2-1.4-.2-2.2,0-4.1,0-8.3,0-12.4,0-1.4.2-2.7.3-4.1,0-.2,0-.4,0-.7-.5-2.5-.2-5-.3-7.6,0-.4,0-.8.1-1.1.2-.8.5-1.1,1.4-1.1,1.6,0,3.2,0,4.8,0,.9.9.6,1.9.6,2.8,0,.8,0,1.6,0,2.4,0,.2.1.4,0,.6-.6,5,0,10-.3,15,0,1.5.6,2.7,2.7,2.8.7,0,1.4,0,2.2,0,2.6,0,5.2,0,7.8,0,1.3,0,2.6-.2,3.9-.2.7,0,1.4.1,2.1.2,1.2.2,1.1.3,1.2,1.3.1,1.3-.3,2.5-.7,3.7,0,.3-.5.5-.8.6-.4.1-.8,0-1.2,0-5.4,0-10.8,0-16.2,0-1.3,0-2.5.2-3.8.2-1.1,0-2.2.2-3.5-.5Z"/>
    <path class="cls-1" d="M890.2,381.4c0-4.1,0-8.1,0-12.2,0-.4,0-.9,0-1.3,0-.9.5-1.3,1.3-1.4,1.4,0,2.9,0,4.3,0,.7,0,.9.3,1,1,0,.4,0,.9,0,1.3,0,6.9,0,13.7,0,20.6,0,1.6.2,3.3.3,4.9,0,1.5-.3,1.8-1.8,1.8-1,0-2,0-3,0-1.8,0-2.1-.4-2.1-2.1,0-4.2,0-8.5,0-12.7h0Z"/>
    <path class="cls-1" d="M911.4,378.7c-.8,1.1-.8,2.3-.9,3.5,0,1.7.2,3.4.2,5.1,0,2.6,0,5.2,0,7.8,0,1-.2,1.2-1.2,1.2-1.4,0-2.9,0-4.3,0-.9,0-1.2-.3-1.4-1.1,0-.4,0-.8,0-1.1,0-8.2,0-16.5,0-24.7,0-2.4.3-2.7,2.8-2.7,3.8,0,3.2-.3,5.7,2.4,3.8,3.9,7.7,7.9,11.5,11.8.9.9,1.9,1.8,3.1,2.3,1.1.5,1.5.3,1.8-.8.1-.5.1-1,.1-1.5,0-3.7,0-7.4,0-11.1,0-.3,0-.7,0-1,0-1.5.6-2.1,2.1-2.2,1,0,2,0,3,0,1.3,0,1.8.5,1.8,1.8,0,1.4,0,2.7,0,4.1,0,2.6,0,5.2,0,7.8,0,2.4-.2,4.7-.2,7.1,0,2.1.2,4.2.3,6.2,0,.4,0,.8,0,1.2,0,1.4-.1,1.5-1.5,1.6-1.2,0-2.4,0-3.6,0-.9,0-1.6-.3-2.2-.9-4.8-4.8-9.6-9.6-14.4-14.4-.7-.7-1.2-1.5-2.1-2-.2-.1-.5-.2-.8-.3Z"/>
    <path class="cls-1" d="M962.4,378.7c.7,1.9.5,3.7,0,5.6-.6,0-1.2,0-1.7,0-3.1,0-6.2.2-9.2.3-1.3,0-1.8.5-2.2,1.8-.6,2.3.6,3.8,2.9,3.8.4,0,.9,0,1.3,0,4.1,0,8.3,0,12.4,0,.7,0,1.4,0,2.1,0,.7,0,.9.3,1,1,.1,1.3-.1,2.6-.6,3.9-.2.6-.6.9-1.2,1-.3,0-.7,0-1,0-7.1,0-14.1,0-21.2,0-.8,0-1.6.1-2.3-.7,0-.9,0-2,0-3.1,0-1.3-.2-2.6-.2-3.9,0-1,0-2,.1-2.9,0-.6,0-1.2,0-1.8,0-1.6-.3-3.3,0-4.9.2-1.5.2-3,.2-4.4,0-1.8-.2-3.6-.2-5.4,0-.4,0-.9.2-1.3.2-.8.7-1.2,1.6-1.2.4,0,.9,0,1.3,0,7,0,13.9,0,20.8,0,.3,0,.6,0,.8,0,.8,0,1.3.4,1.3,1.2,0,1.3,0,2.5,0,3.8,0,.7-.3.9-1.1,1-.4,0-.9,0-1.3,0-4.5,0-8.9,0-13.4,0-.7,0-1.4.2-2.1.3-.2,0-.3,0-.5.1-.8.4-1.4,2.1-1.1,3.6.3,1.3.9,1.8,2.3,1.9,3,.3,6,.3,9.1.3.5,0,1.1,0,1.7,0Z"/>
  </g>
  <line class="cls-3" x1="40.9" y1="358.8" x2="989.6" y2="358.8"/>
  <line class="cls-3" x1="40.9" y1="346.3" x2="40.9" y2="371.3"/>
  <polygon class="cls-2" points="1005.1 358.8 979.4 349.5 979.4 368.2 1005.1 358.8"/>
</svg>
