<?xml version="1.0" encoding="UTF-8"?>
<svg id="Layer_1" data-name="Layer 1" xmlns="http://www.w3.org/2000/svg" viewBox="0 0 222.57 128.89">
  <defs>
    <style>
      .cls-1 {
        fill: #d93530;
      }

      .cls-1, .cls-2 {
        stroke-width: 0px;
      }

      .cls-3 {
        fill: none;
        stroke: #ffde17;
        stroke-miterlimit: 10;
        stroke-width: 5px;
      }

      .cls-2 {
        fill: #ffde17;
      }
    </style>
  </defs>
  <g>
    <line class="cls-3" x1="1.25" y1="91.95" x2="214.68" y2="91.95"/>
    <rect class="cls-2" y="83.83" width="2.5" height="16.25"/>
    <polygon class="cls-2" points="213.46 82.84 213.46 101.07 222.57 91.95 213.46 82.84"/>
  </g>
  <g>
    <path class="cls-1" d="M7.86,12.96c0-3.29,0-6.58,0-9.87,0-.36-.01-.71.02-1.07.06-.7.39-1.08,1.08-1.1,1.16-.04,2.32-.04,3.48,0,.6.02.76.22.81.83.03.35.01.71.01,1.07,0,5.56-.02,11.12,0,16.67,0,1.32.19,2.65.23,3.97.04,1.21-.24,1.46-1.49,1.47-.8.01-1.61.01-2.41,0-1.46-.02-1.72-.28-1.73-1.7,0-3.42,0-6.85,0-10.27h-.02Z"/>
    <path class="cls-1" d="M36.99,8.02c.61-.45,1.08-.73,1.46-1.09,1.77-1.66,3.55-3.31,5.27-5.01.7-.69,1.45-1,2.48-.99,1.3.02,2.61-.19,3.91-.21.68-.01,1.36.16,2.26.28-.37.43-.56.71-.81.95-2.71,2.59-5.44,5.17-8.14,7.77-.62.6-1.2,1.24-1.77,1.89-.65.73-.74,1.36-.22,2.16.34.52.77,1.01,1.22,1.45,1.6,1.56,3.24,3.1,4.86,4.65,1.25,1.2,2.3,2.58,3.75,3.59.34.24.82.51.59,1.16-2.05.25-4.13.49-6.23.33-.46-.04-.95-.37-1.32-.68-.91-.77-1.74-1.62-2.63-2.42-.98-.89-1.98-1.76-3-2.61-.49-.42-1.04-.76-1.89-.59-.1.33-.31.7-.31,1.07,0,1.24.02,2.49.13,3.72.1,1.1-.24,1.56-1.43,1.58-1.13.01-2.25.02-3.38,0-.8-.02-.98-.2-1.02-.97-.09-1.59-.21-3.19-.22-4.78-.03-5.26-.01-10.51-.02-15.77,0-.13.01-.27,0-.4-.11-1.52.63-2.22,2.27-2.13.7.04,1.41-.01,2.11.02,1.16.06,1.47.37,1.49,1.47.02,1.03.02,2.05.02,3.07,0,.8.3,1.53.55,2.49Z"/>
    <path class="cls-1" d="M62.65,10.74c-.69.86-.67,1.87-.69,2.81-.03,1.37.13,2.74.16,4.11.05,2.09.06,4.18.06,6.28,0,.78-.19.97-.93.99-1.16.03-2.32.03-3.48,0-.71-.01-.95-.21-1.13-.89-.08-.29-.08-.61-.08-.92-.01-6.68-.02-13.35-.03-20.03,0-1.94.27-2.2,2.27-2.2,3.12,0,2.56-.21,4.64,1.92,3.11,3.18,6.22,6.37,9.35,9.55.75.76,1.56,1.46,2.55,1.9.86.39,1.22.24,1.46-.66.1-.38.1-.79.1-1.19.02-2.98.03-5.96.04-8.95,0-.27,0-.53,0-.8.06-1.22.5-1.7,1.7-1.76.8-.04,1.61-.04,2.41,0,1.07.04,1.43.39,1.46,1.47.03,1.11.01,2.23,0,3.34,0,2.09.02,4.18-.01,6.28-.03,1.9-.19,3.81-.18,5.71,0,1.68.16,3.36.24,5.04.02.31.02.62.01.93-.01,1.13-.12,1.24-1.2,1.26-.98.02-1.97-.02-2.95.02-.72.03-1.29-.22-1.79-.72-3.88-3.88-7.77-7.74-11.63-11.63-.56-.56-.99-1.25-1.72-1.63-.19-.1-.4-.14-.63-.22Z"/>
    <path class="cls-1" d="M101.26,24.89c-2.31.24-4.5-.3-6.69-.98-.79-.25-1.47-.62-2.04-1.25-.3-.33-.68-.58-1.01-.88-.3-.27-.62-.53-.88-.85-2.51-3.14-3.63-6.67-2.82-10.75.06-.31.03-.64.07-.96.15-1.15.37-2.24,1.3-3.07.39-.34.53-.96.88-1.37.96-1.16,2.06-2.18,3.39-2.87,1.87-.97,3.79-1.8,5.96-1.71.7.03,1.42-.27,2.11-.2,2.06.22,4.16.28,6.14,1.08,1.18.48,2.14,1.29,3.19,1.98,1.27.83,2.02,2.03,2.51,3.45.1.3.21.62.38.88,1.52,2.2,1.3,4.71,1.18,7.18-.03.64-.47,1.27-.74,1.89-.27.62-.59,1.23-.82,1.87-.54,1.5-1.43,2.64-2.64,3.7-2.51,2.21-5.38,2.88-8.53,2.85-.31,0-.63,0-.94,0ZM101.31,4.95c-2.47,0-4.2.46-5.78,2.5-.19.25-.43.47-.67.67-.63.56-.98,1.27-1.22,2.08-.66,2.17-.6,4.34.55,6.24,1.61,2.66,4.07,3.97,7.15,4.04,1.1.02,2.08-.43,3.1-.72,1.49-.41,2.59-1.41,3.26-2.84.46-.99.77-2.05,1.22-3.05.49-1.08.52-2.12-.01-3.17-.1-.2-.22-.41-.28-.63-.79-2.87-4.37-5.45-7.31-5.14Z"/>
    <path class="cls-1" d="M140.47,14.95c.79-.7,1.16-1.54,1.45-2.43,1.06-3.19,2.14-6.38,3.21-9.57.64-1.9.87-2.07,2.84-2.11.44,0,.9-.02,1.33.08.89.2,1.09.58.82,1.46-.4,1.27-.84,2.52-1.24,3.78-1.65,5.18-3.3,10.37-4.95,15.55-.21.67-.38,1.36-.61,2.03-.35,1.04-.89,1.43-1.99,1.38-.75-.03-1.5-.14-2.24-.25-.2-.03-.45-.15-.56-.31-.33-.46-.71-.93-.88-1.46-.5-1.55-.91-3.14-1.37-4.71-.16-.55-.33-1.1-.56-1.63-.12-.27-.32-.53-.55-.73-.82-.71-1.24-.68-1.86.19-.28.39-.52.84-.68,1.29-.69,2.01-1.36,4.02-2,6.04-.4,1.23-.81,1.58-2.12,1.55-.84-.02-1.67-.11-2.59-.18-.55-1.44-1.12-2.78-1.57-4.16-1.1-3.36-2.13-6.75-3.22-10.11-.99-3.07-2.01-6.14-3.01-9.21-.04-.12-.02-.26-.04-.44.85-.72,1.85-.39,2.79-.36.4,0,.79.14,1.18.15.89.02,1.39.48,1.64,1.29.81,2.57,1.58,5.16,2.43,7.72.53,1.59,1.19,3.14,1.8,4.7.03.07.14.11.26.2.82-.32,1.07-1.12,1.36-1.83.32-.77.56-1.59.79-2.39.78-2.67,1.55-5.35,2.33-8.02.07-.25.14-.52.25-.75.35-.68.94-.95,1.78-.88.71.06,1.13.43,1.31,1.12.44,1.71.87,3.42,1.34,5.13.52,1.87,1.06,3.74,1.61,5.6.26.86.63,1.66,1.49,2.27Z"/>
    <path class="cls-1" d="M28.3,44.95c.79-.7,1.16-1.54,1.45-2.43,1.06-3.19,2.14-6.38,3.21-9.57.64-1.9.87-2.07,2.84-2.11.44,0,.9-.02,1.33.08.89.2,1.09.58.82,1.46-.4,1.27-.84,2.52-1.24,3.78-1.65,5.18-3.3,10.37-4.95,15.55-.21.67-.38,1.36-.61,2.03-.35,1.04-.89,1.43-1.99,1.38-.75-.03-1.5-.14-2.24-.25-.2-.03-.45-.15-.56-.31-.33-.46-.71-.93-.88-1.46-.5-1.55-.91-3.14-1.37-4.71-.16-.55-.33-1.1-.56-1.63-.12-.27-.32-.53-.55-.73-.82-.71-1.24-.68-1.86.19-.28.39-.52.84-.68,1.29-.69,2.01-1.36,4.02-2,6.04-.4,1.23-.81,1.58-2.12,1.55-.84-.02-1.67-.11-2.59-.18-.55-1.44-1.12-2.78-1.57-4.16-1.1-3.36-2.13-6.75-3.22-10.11-.99-3.07-2.01-6.14-3.01-9.21-.04-.12-.02-.26-.04-.44.85-.72,1.85-.39,2.79-.36.4,0,.79.14,1.18.15.89.02,1.39.48,1.64,1.29.81,2.57,1.58,5.16,2.43,7.72.53,1.59,1.19,3.14,1.8,4.7.03.07.14.11.26.2.82-.32,1.07-1.12,1.36-1.83.32-.77.56-1.59.79-2.39.78-2.67,1.55-5.35,2.33-8.02.07-.25.14-.52.25-.75.35-.68.94-.95,1.78-.88.71.06,1.13.43,1.31,1.12.44,1.71.87,3.42,1.34,5.13.52,1.87,1.06,3.74,1.61,5.6.26.86.63,1.66,1.49,2.27Z"/>
    <path class="cls-1" d="M42.75,30.74c1.54-.62,2.98-.32,4.4-.36.22,0,.58.31.64.54.17.64.29,1.3.29,1.96.03,2.4,0,4.81,0,7.21,0,.27-.01.54,0,.8.05.76.18.88.99.93.04,0,.09,0,.13,0,2.81,0,5.63.03,8.44.01,1.35,0,1.78-.4,2.06-1.75.09-.43.15-.87.15-1.31.02-2.09,0-4.19.03-6.28.01-1.31.52-1.81,1.86-1.88.62-.03,1.25-.03,1.88-.02.95.03,1.47.45,1.66,1.39.11.56.2,1.14.2,1.71.02,3.65.02,7.3,0,10.95,0,.44-.1.88-.13,1.31-.03.44-.11.9-.04,1.33.39,2.3.11,4.62.22,6.92.04.82-.18,1-1.03,1.01-1.07.02-2.14.02-3.22,0-.93-.02-1.26-.32-1.35-1.27-.05-.53-.01-1.07-.02-1.6-.01-1.29,0-2.58-.04-3.87-.02-.77-.17-1.52-.87-1.99-.29-.19-.66-.37-.98-.36-1.95.05-3.88-.55-5.85-.09-.72.17-1.51.08-2.27.06-1.69-.06-2.14.91-2.05,2.25.11,1.68.18,3.36.26,5.05.01.22.02.45.01.67-.02.99-.15,1.13-1.18,1.15-1.03.02-2.05.02-3.08,0-.94-.02-1.26-.32-1.37-1.25-.02-.18,0-.36,0-.53,0-6.86-.01-13.71,0-20.57,0-.7.16-1.4.25-2.12Z"/>
    <path class="cls-1" d="M87.68,40.75c.53,1.56.44,3,.07,4.54-.53.03-.96.05-1.4.07-2.49.08-4.98.14-7.47.23-1.09.04-1.49.4-1.77,1.45-.48,1.83.46,3.06,2.37,3.09.36,0,.71,0,1.07,0,3.35-.01,6.7-.03,10.05-.04.58,0,1.16,0,1.74.04.6.05.76.23.81.84.09,1.08-.11,2.1-.49,3.12-.19.5-.49.71-.94.79-.26.05-.53.02-.8.02-5.72,0-11.43,0-17.15.01-.62,0-1.26.11-1.86-.55,0-.76.02-1.64,0-2.53-.04-1.06-.16-2.12-.18-3.18-.02-.79.08-1.59.11-2.38.02-.48,0-.97,0-1.45-.04-1.33-.24-2.68-.07-3.98.16-1.2.14-2.39.13-3.58-.01-1.46-.13-2.92-.18-4.38-.01-.35.06-.71.15-1.04.18-.62.59-.98,1.27-.97.36,0,.71-.01,1.07-.01,5.63,0,11.25,0,16.88,0,.22,0,.45-.01.67,0,.65.06,1.04.35,1.07.95.05,1.02.06,2.05.03,3.07-.02.57-.25.73-.88.78-.36.03-.71,0-1.07,0-3.62,0-7.23-.02-10.85,0-.57,0-1.13.16-1.7.25-.13.02-.26.06-.38.11-.68.29-1.11,1.69-.87,2.89.21,1.08.76,1.46,1.85,1.58,2.44.27,4.89.21,7.34.22.44,0,.88,0,1.39,0Z"/>
    <path class="cls-1" d="M124.34,54.47c-.2.08-.32.17-.44.18-1.64.09-3.29.12-4.93.27-1.32.12-2.34-.37-3.25-1.22-1.46-1.37-2.97-2.7-4.38-4.12-1.11-1.11-2.38-1.64-3.94-1.59-.71.02-1.43-.03-2.14-.01-1.22.03-1.81.59-1.86,1.79-.03.62-.13,1.29.06,1.86.29.83-.02,1.58-.09,2.36-.06.61-.44.9-1.1.93-1.03.04-2.06.05-3.08.03-.67-.01-.85-.2-.91-.89-.09-1.15-.21-2.3-.21-3.45-.02-5.79,0-11.58-.03-17.37,0-1.66.22-2.33,2.37-2.34,3.53-.02,7.06-.03,10.59,0,1.42.02,2.85.08,4.26.29,1.27.19,2.46.69,3.54,1.46,2.41,1.72,3.77,3.96,3.66,6.98-.01.31-.03.62-.02.93.1,1.8-.59,3.27-1.83,4.54-.56.57-1.05,1.21-1.54,1.83-.55.71-.61,1.22-.06,1.93.74.94,1.53,1.85,2.39,2.69.82.8,1.77,1.48,2.64,2.24.16.15.2.44.31.69ZM103.65,36.28c0,1.55.05,3.02-.02,4.48-.06,1.32.69,2.24,2.22,2.16,1.07-.05,2.16-.1,3.21.04,1.47.2,2.92-.08,4.37-.12.82-.02,1.65-.31,2.45-.57.93-.31,1.44-1.01,1.47-2.01.01-.31,0-.62.01-.94.08-1.64-.92-3.07-2.76-3.37-1-.17-2.05-.11-3.04-.32-2.06-.44-4.08-.01-6.11.1-.59.03-1.17.35-1.82.56Z"/>
    <path class="cls-1" d="M144.74,40.75c.53,1.56.44,3,.07,4.54-.53.03-.96.05-1.4.07-2.49.08-4.98.14-7.47.23-1.09.04-1.49.4-1.77,1.45-.48,1.83.46,3.06,2.37,3.09.36,0,.71,0,1.07,0,3.35-.01,6.7-.03,10.05-.04.58,0,1.16,0,1.74.04.6.05.76.23.81.84.09,1.08-.11,2.1-.49,3.12-.19.5-.49.71-.94.79-.26.05-.53.02-.8.02-5.72,0-11.43,0-17.15.01-.62,0-1.26.11-1.86-.55,0-.76.02-1.64,0-2.53-.04-1.06-.16-2.12-.18-3.18-.02-.79.08-1.59.11-2.38.02-.48,0-.97,0-1.45-.04-1.33-.24-2.68-.07-3.98.16-1.2.14-2.39.13-3.58-.01-1.46-.13-2.92-.18-4.38-.01-.35.06-.71.15-1.04.18-.62.59-.98,1.27-.97.36,0,.71-.01,1.07-.01,5.63,0,11.25,0,16.88,0,.22,0,.45-.01.67,0,.65.06,1.04.35,1.07.95.05,1.02.06,2.05.03,3.07-.02.57-.25.73-.88.78-.36.03-.71,0-1.07,0-3.62,0-7.23-.02-10.85,0-.57,0-1.13.16-1.7.25-.13.02-.26.06-.38.11-.68.29-1.11,1.69-.87,2.89.21,1.08.76,1.46,1.85,1.58,2.44.27,4.89.21,7.34.22.44,0,.88,0,1.39,0Z"/>
    <path class="cls-1" d="M7.86,72.96c0-3.29,0-6.58,0-9.87,0-.36-.01-.71.02-1.07.06-.7.39-1.08,1.08-1.1,1.16-.04,2.32-.04,3.48,0,.6.02.76.22.81.83.03.35.01.71.01,1.07,0,5.56-.02,11.12,0,16.67,0,1.32.19,2.65.23,3.97.04,1.21-.24,1.46-1.49,1.47-.8.01-1.61.01-2.41,0-1.46-.02-1.72-.28-1.73-1.7,0-3.42,0-6.85,0-10.27h-.02Z"/>
    <path class="cls-1" d="M18.56,62.99c0-.38-.02-.76,0-1.14.02-.27.06-.56.18-.8.09-.18.31-.39.49-.4.62-.03,1.26-.04,1.87.05.61.09.72.29.81.91.15,1.08.21,2.16,0,3.23-.13.62-.18.65-.79.66-.45,0-.91.02-1.36-.01-.72-.04-1.15-.48-1.19-1.21-.02-.43,0-.86,0-1.29h0Z"/>
    <path class="cls-1" d="M25.19,60.79c.67-.08,1.32-.23,1.97-.22,1.02.01,2.04.13,3.06.21.65.05,1.04.43,1.3.99.8,1.73,1.61,3.46,2.41,5.19.32.68.63,1.37.94,2.06.9,1.98,1.81,3.95,2.72,5.93.17.36.32.74.54,1.07.72,1.05,1.68,1.04,2.28-.08.75-1.41,1.42-2.87,2.11-4.3.06-.12.08-.25.14-.37,1.32-2.91,2.64-5.82,3.96-8.72.15-.32.28-.67.49-.94.18-.22.45-.48.71-.51,1.28-.13,2.57-.2,3.85-.28.13,0,.27,0,.4.01.73.13,1.04.68.74,1.37-.6,1.34-1.17,2.69-1.85,3.98-1.8,3.42-3.2,7.02-4.77,10.54-1.08,2.43-2.25,4.83-3.33,7.26-.38.86-.95,1.21-1.87,1.14-1.42-.1-2.84-.17-4.26-.23-.53-.02-.79-.3-.99-.74-.71-1.53-1.45-3.05-2.14-4.58-.85-1.9-1.64-3.83-2.51-5.72-1.52-3.31-3.08-6.6-4.64-9.88-.27-.56-.59-1.1-.97-1.58-.34-.43-.45-.85-.28-1.57Z"/>
    <path class="cls-1" d="M72.96,70.75c.53,1.56.44,3,.07,4.54-.53.03-.96.05-1.4.07-2.49.08-4.98.14-7.47.23-1.09.04-1.49.4-1.77,1.45-.48,1.83.46,3.06,2.37,3.09.36,0,.71,0,1.07,0,3.35-.01,6.7-.03,10.05-.04.58,0,1.16,0,1.74.04.6.05.76.23.81.84.09,1.08-.11,2.1-.49,3.12-.19.5-.49.71-.94.79-.26.05-.53.02-.8.02-5.72,0-11.43,0-17.15.01-.62,0-1.26.11-1.86-.55,0-.76.02-1.64,0-2.53-.04-1.06-.16-2.12-.18-3.18-.02-.79.08-1.59.11-2.38.02-.48,0-.97,0-1.45-.04-1.33-.24-2.68-.07-3.98.16-1.2.14-2.39.13-3.58-.01-1.46-.13-2.92-.18-4.38-.01-.35.06-.71.15-1.04.18-.62.59-.98,1.27-.97.36,0,.71-.01,1.07-.01,5.63,0,11.25,0,16.88,0,.22,0,.45-.01.67,0,.65.06,1.04.35,1.07.95.05,1.02.06,2.05.03,3.07-.02.57-.25.73-.88.78-.36.03-.71,0-1.07,0-3.62,0-7.23-.02-10.85,0-.57,0-1.13.16-1.7.25-.13.02-.26.06-.38.11-.68.29-1.11,1.69-.87,2.89.21,1.08.76,1.46,1.85,1.58,2.44.27,4.89.21,7.34.22.44,0,.88,0,1.39,0Z"/>
    <path class="cls-1" d="M94.59,84.39c-.06-1.77-.17-3.63-.18-5.49-.02-5.34,0-10.69,0-16.03,0-.31-.02-.63,0-.93.06-.61.58-1.15,1.19-1.27.09-.02.18-.02.27-.02,2.36-.08,4.72-.31,7.07-.21,2.69.12,5.41.2,8.03.99,1.09.33,2.1.77,2.85,1.64.66.77,1.37,1.54,1.86,2.42.77,1.37.28,4.79-.72,6.08-.27.34-.5.71-.78,1.11.28.42.49.8.77,1.14,2.25,2.7,2.15,5.61.68,8.57-.72,1.45-1.99,2.22-3.64,2.34-1.95.15-3.89.41-5.84.47-1.86.05-3.73-.11-5.6-.16-1.38-.03-2.77-.02-4.15-.03-.58,0-1.17.03-1.82-.61ZM100.01,70.22c.51.11.97.27,1.43.28,1.65.04,3.31.07,4.96.03.88-.02,1.76-.18,2.63-.36.41-.09.86-.29,1.17-.58,1.44-1.36.74-3.44-.51-4.08-.61-.32-1.34-.5-2.03-.55-1.6-.12-3.2-.15-4.8-.18-.48,0-.98.08-1.45.18-.92.2-1.36.73-1.38,1.67-.02,1.15,0,2.31,0,3.59ZM104.6,81.06s0-.08.01-.12c.58,0,1.17.07,1.74-.01,1.09-.15,2.2-.3,3.25-.62,1.08-.33,1.58-1.12,1.64-2.34.05-1.13-.63-2.04-1.77-2.34-.98-.26-2-.49-3-.5-1.69-.02-3.38.11-5.06.22-.92.06-1.36.52-1.36,1.47,0,.79.2,1.59.18,2.38-.03.98.52,1.38,1.34,1.52,1,.17,2.02.24,3.03.36Z"/>
    <path class="cls-1" d="M138.01,70.75c.53,1.56.44,3,.07,4.54-.53.03-.96.05-1.4.07-2.49.08-4.98.14-7.47.23-1.09.04-1.49.4-1.77,1.45-.48,1.83.46,3.06,2.37,3.09.36,0,.71,0,1.07,0,3.35-.01,6.7-.03,10.05-.04.58,0,1.16,0,1.74.04.6.05.76.23.81.84.09,1.08-.11,2.1-.49,3.12-.19.5-.49.71-.94.79-.26.05-.53.02-.8.02-5.72,0-11.43,0-17.15.01-.62,0-1.26.11-1.86-.55,0-.76.02-1.64,0-2.53-.04-1.06-.16-2.12-.18-3.18-.02-.79.08-1.59.11-2.38.02-.48,0-.97,0-1.45-.04-1.33-.24-2.68-.07-3.98.16-1.2.14-2.39.13-3.58-.01-1.46-.13-2.92-.18-4.38-.01-.35.06-.71.15-1.04.18-.62.59-.98,1.27-.97.36,0,.71-.01,1.07-.01,5.63,0,11.25,0,16.88,0,.22,0,.45-.01.67,0,.65.06,1.04.35,1.07.95.05,1.02.06,2.05.03,3.07-.02.57-.25.73-.88.78-.36.03-.71,0-1.07,0-3.62,0-7.23-.02-10.85,0-.57,0-1.13.16-1.7.25-.13.02-.26.06-.38.11-.68.29-1.11,1.69-.87,2.89.21,1.08.76,1.46,1.85,1.58,2.44.27,4.89.21,7.34.22.44,0,.88,0,1.39,0Z"/>
    <path class="cls-1" d="M164.29,70.75c.53,1.56.44,3,.07,4.54-.53.03-.96.05-1.4.07-2.49.08-4.98.14-7.47.23-1.09.04-1.49.4-1.77,1.45-.48,1.83.46,3.06,2.37,3.09.36,0,.71,0,1.07,0,3.35-.01,6.7-.03,10.05-.04.58,0,1.16,0,1.74.04.6.05.76.23.81.84.09,1.08-.11,2.1-.49,3.12-.19.5-.49.71-.94.79-.26.05-.53.02-.8.02-5.72,0-11.43,0-17.15.01-.62,0-1.26.11-1.86-.55,0-.76.02-1.64,0-2.53-.04-1.06-.16-2.12-.18-3.18-.02-.79.08-1.59.11-2.38.02-.48,0-.97,0-1.45-.04-1.33-.24-2.68-.07-3.98.16-1.2.14-2.39.13-3.58-.01-1.46-.13-2.92-.18-4.38-.01-.35.06-.71.15-1.04.18-.62.59-.98,1.27-.97.36,0,.71-.01,1.07-.01,5.63,0,11.25,0,16.88,0,.22,0,.45-.01.67,0,.65.06,1.04.35,1.07.95.05,1.02.06,2.05.03,3.07-.02.57-.25.73-.88.78-.36.03-.71,0-1.07,0-3.62,0-7.23-.02-10.85,0-.57,0-1.13.16-1.7.25-.13.02-.26.06-.38.11-.68.29-1.11,1.69-.87,2.89.21,1.08.76,1.46,1.85,1.58,2.44.27,4.89.21,7.34.22.44,0,.88,0,1.39,0Z"/>
    <path class="cls-1" d="M180.76,70.74c-.69.86-.67,1.87-.69,2.81-.03,1.37.13,2.74.16,4.11.05,2.09.06,4.18.06,6.28,0,.78-.19.97-.93.99-1.16.03-2.32.03-3.48,0-.71-.01-.95-.21-1.13-.89-.08-.29-.08-.61-.08-.92-.01-6.68-.02-13.35-.03-20.03,0-1.94.27-2.2,2.27-2.2,3.12,0,2.56-.21,4.64,1.92,3.11,3.18,6.22,6.37,9.35,9.55.75.76,1.56,1.46,2.55,1.9.86.39,1.22.24,1.46-.66.1-.38.1-.79.1-1.19.02-2.98.02-5.96.04-8.95,0-.27,0-.53,0-.8.06-1.22.5-1.7,1.7-1.76.8-.04,1.61-.04,2.41,0,1.07.04,1.43.39,1.46,1.47.03,1.11.01,2.23,0,3.34,0,2.09.02,4.18-.01,6.28-.03,1.9-.19,3.81-.18,5.71,0,1.68.16,3.36.24,5.04.02.31.02.62.01.93-.01,1.13-.12,1.24-1.2,1.26-.98.02-1.97-.02-2.95.02-.72.03-1.29-.22-1.79-.72-3.88-3.88-7.77-7.74-11.63-11.63-.56-.56-.99-1.25-1.72-1.63-.19-.1-.4-.14-.63-.22Z"/>
    <path class="cls-1" d="M16.9,108.81c-.38.26-.82.14-1.23.13-.2,0-.4-.07-.6-.07-.3,0-.49-.12-.61-.39-.06-.15-.14-.3-.2-.46-.14-.37-.42-.57-.79-.61-.55-.05-1.11-.1-1.66-.1-.83,0-1.67.05-2.5.09-.51.02-.92.25-1.06.75-.21.77-.76.93-1.44.91-.28,0-.56,0-.84,0-.26,0-.47-.07-.65-.28.04-.11.08-.22.12-.32.36-.71.71-1.42,1.09-2.12.75-1.38,1.33-2.84,1.97-4.27.43-.96.87-1.92,1.29-2.88.11-.24.3-.34.52-.34.63-.02,1.27-.02,1.9-.02.33,0,.49.24.61.49.26.53.51,1.07.75,1.61.32.73.61,1.46.94,2.19.76,1.66,1.54,3.32,2.32,4.98.11.23.16.45.08.71ZM11.29,106.08h0c.32,0,.64.02.95-.01.63-.07.88-.54.61-1.1-.33-.7-.64-1.41-.97-2.12-.05-.12-.12-.23-.21-.32-.26-.29-.5-.3-.81-.01-.08.07-.12.18-.17.28-.2.44-.39.88-.58,1.32-.16.35-.32.71-.46,1.07-.11.3-.03.56.23.71.17.1.38.16.57.18.28.03.56,0,.84,0Z"/>
    <path class="cls-1" d="M22.9,98.92c.64-.26,1.24-.13,1.83-.15.09,0,.24.13.27.22.07.26.12.54.12.82.01,1,0,2,0,3,0,.11,0,.22,0,.33.02.32.08.37.41.39.02,0,.04,0,.06,0,1.17,0,2.35.01,3.52,0,.56,0,.74-.17.86-.73.04-.18.06-.36.06-.55,0-.87,0-1.74.01-2.62,0-.55.22-.75.78-.78.26-.01.52-.01.78,0,.4.01.61.19.69.58.05.23.08.47.08.71,0,1.52,0,3.04,0,4.56,0,.18-.04.37-.06.55-.01.18-.05.38-.02.55.16.96.04,1.92.09,2.88.02.34-.07.42-.43.42-.45,0-.89,0-1.34,0-.39,0-.53-.13-.56-.53-.02-.22,0-.45,0-.67,0-.54,0-1.08-.02-1.61,0-.32-.07-.63-.36-.83-.12-.08-.27-.15-.41-.15-.81.02-1.62-.23-2.44-.04-.3.07-.63.03-.95.02-.7-.02-.89.38-.86.94.05.7.07,1.4.11,2.1,0,.09,0,.19,0,.28,0,.41-.06.47-.49.48-.43,0-.86,0-1.28,0-.39,0-.52-.13-.57-.52,0-.07,0-.15,0-.22,0-2.86,0-5.71,0-8.57,0-.29.07-.58.1-.88Z"/>
    <path class="cls-1" d="M34.65,104.01c0-1.37,0-2.74,0-4.11,0-.15,0-.3,0-.44.03-.29.16-.45.45-.46.48-.02.97-.02,1.45,0,.25,0,.32.09.34.35.01.15,0,.3,0,.44,0,2.32,0,4.63,0,6.95,0,.55.08,1.1.1,1.66.02.51-.1.61-.62.62-.33,0-.67,0-1,0-.61,0-.72-.12-.72-.71,0-1.43,0-2.85,0-4.28h0Z"/>
    <path class="cls-1" d="M39.91,106.15c.71.27,1.35.52,1.98.76.89.35,1.81.38,2.74.28.58-.06,1.16-.24,1.6-.67.51-.5.43-1.19-.19-1.54-.37-.21-.78-.33-1.21-.33-.32,0-.64.02-.95,0-.53-.04-1.07-.11-1.6-.17-.35-.04-.7-.07-1.04-.16-.78-.21-1.47-.55-1.96-1.22-.69-.93-.36-2.2.25-2.91.85-.99,1.97-1.34,3.22-1.44.41-.03.81-.09,1.22-.08,1.21.03,2.38.27,3.52.65.51.17.62.41.47.92-.04.15-.1.31-.18.45-.3.48-.5.49-.9.35-.57-.2-1.16-.38-1.75-.49-1.08-.2-2.15-.11-3.16.32-.36.15-.69.38-.66.83.03.46.3.77.73.92.61.22,1.26.29,1.9.32.37.02.75,0,1.12,0,.83.03,1.61.23,2.33.63.92.51,1.39,1.53,1.26,2.5-.06.43-.11.89-.46,1.23-.19.19-.41.36-.62.53-.1.08-.25.11-.32.21-.38.46-.93.56-1.46.71-.61.18-1.23.24-1.87.21-.65-.03-1.3.06-1.94-.1-.92-.22-1.83-.44-2.66-.9-.13-.07-.27-.13-.36-.24-.07-.08-.11-.24-.07-.33.21-.5.56-.91,1.01-1.21Z"/>
    <path class="cls-1" d="M53.53,105.05c0-1.02,0-2.04,0-3.06,0-.13,0-.26,0-.39-.03-.39-.16-.52-.55-.56-.15-.01-.3,0-.45-.01-.74,0-1.49,0-2.23-.01-.18,0-.37-.03-.54-.09-.1-.04-.23-.18-.23-.27,0-.44,0-.89.06-1.33.06-.4.11-.41.52-.42.65,0,1.3,0,1.95,0,2.23,0,4.46.01,6.7.02.09,0,.19,0,.28,0,.55-.04.78.18.76.76-.01.28,0,.56,0,.83-.01.3-.09.4-.37.47-.14.03-.29.03-.44.03-.74,0-1.49,0-2.23.01-.13,0-.26,0-.39.02-.38.07-.58.3-.59.68,0,.37.02.74,0,1.11-.02.44-.08.88-.08,1.32,0,.31.06.62.07.93.01,1.11.01,2.22.02,3.34,0,.06,0,.11,0,.17-.04.29-.17.42-.47.43-.37.01-.74.01-1.12,0-.47-.01-.63-.17-.63-.65,0-1.11,0-2.23,0-3.34h0Z"/>
    <path class="cls-1" d="M66.1,108.98c-.96.1-1.88-.12-2.79-.41-.33-.1-.61-.26-.85-.52-.12-.14-.28-.24-.42-.37-.13-.11-.26-.22-.37-.35-1.04-1.31-1.51-2.78-1.18-4.48.03-.13.01-.27.03-.4.06-.48.15-.93.54-1.28.16-.14.22-.4.37-.57.4-.48.86-.91,1.41-1.19.78-.41,1.58-.75,2.48-.71.29.01.59-.11.88-.08.86.09,1.73.12,2.56.45.49.2.89.54,1.33.83.53.34.84.85,1.05,1.44.04.12.09.26.16.37.63.92.54,1.96.49,2.99-.01.27-.2.53-.31.79s-.25.51-.34.78c-.22.63-.6,1.1-1.1,1.54-1.04.92-2.24,1.2-3.55,1.19-.13,0-.26,0-.39,0ZM66.12,100.67c-1.03,0-1.75.19-2.41,1.04-.08.1-.18.19-.28.28-.26.23-.41.53-.51.87-.27.9-.25,1.81.23,2.6.67,1.11,1.7,1.66,2.98,1.68.46,0,.87-.18,1.29-.3.62-.17,1.08-.59,1.36-1.18.19-.41.32-.86.51-1.27.2-.45.21-.88,0-1.32-.04-.08-.09-.17-.12-.26-.33-1.2-1.82-2.27-3.05-2.14Z"/>
    <path class="cls-1" d="M84.61,108.81c-.08.04-.13.07-.18.08-.68.04-1.37.05-2.05.11-.55.05-.97-.16-1.35-.51-.61-.57-1.24-1.12-1.82-1.72-.46-.46-.99-.68-1.64-.66-.3,0-.6-.01-.89,0-.51.01-.75.25-.77.75-.01.26-.05.54.03.77.12.35,0,.66-.04.98-.02.25-.18.38-.46.39-.43.02-.86.02-1.28.01-.28,0-.35-.08-.38-.37-.04-.48-.09-.96-.09-1.44,0-2.41,0-4.83-.01-7.24,0-.69.09-.97.99-.98,1.47,0,2.94-.01,4.41,0,.59,0,1.19.03,1.77.12.53.08,1.03.29,1.48.61,1.01.72,1.57,1.65,1.53,2.91,0,.13-.01.26,0,.39.04.75-.25,1.36-.76,1.89-.23.24-.44.5-.64.76-.23.29-.26.51-.03.8.31.39.64.77,1,1.12.34.33.74.62,1.1.93.07.06.08.18.13.29ZM75.98,101.23c0,.65.02,1.26,0,1.87-.02.55.29.93.93.9.45-.02.9-.04,1.34.02.61.08,1.22-.04,1.82-.05.34,0,.69-.13,1.02-.24.39-.13.6-.42.61-.84,0-.13,0-.26,0-.39.03-.69-.39-1.28-1.15-1.41-.42-.07-.85-.05-1.27-.14-.86-.18-1.7,0-2.55.04-.25.01-.49.15-.76.23Z"/>
    <path class="cls-1" d="M86.23,104.01c0-1.37,0-2.74,0-4.11,0-.15,0-.3,0-.44.03-.29.16-.45.45-.46.48-.02.97-.02,1.45,0,.25,0,.32.09.34.35.01.15,0,.3,0,.44,0,2.32,0,4.63,0,6.95,0,.55.08,1.1.1,1.66.02.51-.1.61-.62.62-.33,0-.67,0-1,0-.61,0-.72-.12-.72-.71,0-1.43,0-2.85,0-4.28h0Z"/>
    <path class="cls-1" d="M98.84,101.76c-.25-.18-.45-.34-.67-.48-.85-.53-1.73-.75-2.75-.63-1.41.16-2.18,1.06-2.59,2.29-.4,1.18.02,2.89,1.38,3.66.72.4,1.44.59,2.24.36.27-.08.55-.08.82-.15.42-.11.82-.25,1.14-.57.11-.1.24-.18.36-.27.21-.15.46-.16.63-.03.33.26.76.44.91.94-.34.83-.98,1.34-1.79,1.66-.59.23-1.19.42-1.84.37-.25-.02-.51.09-.77.08-1.06-.02-2.1-.17-3.08-.59-.19-.08-.36-.26-.52-.42-.16-.16-.27-.38-.45-.5-.56-.38-.86-.95-1.09-1.56-.42-1.09-.44-2.22-.29-3.39.09-.72.37-1.33.75-1.89.23-.34.6-.56.9-.85.5-.49,1.13-.72,1.73-1,.07-.03.14-.06.21-.07.81-.04,1.63-.14,2.44-.1.67.03,1.38.07,1.99.44.49.3,1,.59,1.45.94.38.29.35.69,0,1.02-.17.15-.34.29-.53.42-.17.11-.36.19-.58.31Z"/>
    <path class="cls-1" d="M112.76,108.81c-.38.26-.82.14-1.23.13-.2,0-.4-.07-.6-.07-.3,0-.49-.12-.61-.39-.06-.15-.14-.3-.2-.46-.14-.37-.42-.57-.79-.61-.55-.05-1.11-.1-1.66-.1-.83,0-1.67.05-2.5.09-.51.02-.92.25-1.06.75-.21.77-.76.93-1.44.91-.28,0-.56,0-.84,0-.26,0-.47-.07-.65-.28.04-.11.08-.22.12-.32.36-.71.71-1.42,1.09-2.12.75-1.38,1.33-2.84,1.97-4.27.43-.96.87-1.92,1.29-2.88.11-.24.3-.34.52-.34.63-.02,1.27-.02,1.9-.02.33,0,.49.24.61.49.26.53.51,1.07.75,1.61.32.73.61,1.46.94,2.19.76,1.66,1.54,3.32,2.32,4.98.11.23.16.45.08.71ZM107.16,106.08h0c.32,0,.64.02.95-.01.63-.07.88-.54.61-1.1-.33-.7-.64-1.41-.97-2.12-.05-.12-.12-.23-.21-.32-.26-.29-.5-.3-.81-.01-.08.07-.12.18-.17.28-.2.44-.39.88-.58,1.32-.16.35-.32.71-.46,1.07-.11.3-.03.56.23.71.17.1.38.16.57.18.28.03.56,0,.84,0Z"/>
    <path class="cls-1" d="M114.4,108.81c-.03-.23-.08-.48-.08-.74-.01-1.39-.02-2.78-.01-4.18,0-.46.06-.92.09-1.38,0-.07.02-.15,0-.22-.16-.85-.05-1.7-.08-2.55,0-.13,0-.26.04-.38.08-.28.18-.36.48-.37.54-.01,1.08,0,1.61,0,.3.29.21.63.19.96-.02.27-.02.55-.02.82,0,.07.04.15.03.22-.19,1.68-.03,3.37-.09,5.06-.02.49.19.89.91.96.24.02.48,0,.73,0,.88,0,1.75,0,2.63-.01.44,0,.89-.07,1.33-.08.24,0,.48.04.71.08.39.08.38.09.42.45.04.44-.11.84-.25,1.24-.03.1-.17.18-.28.22-.12.04-.26.01-.39.01-1.83,0-3.65,0-5.48,0-.42,0-.85.06-1.27.07-.37.01-.75.06-1.18-.18Z"/>
    <path class="cls-1" d="M132.25,105.05c0-1.02,0-2.04,0-3.06,0-.13,0-.26,0-.39-.03-.39-.16-.52-.55-.56-.15-.01-.3,0-.45-.01-.74,0-1.49,0-2.23-.01-.18,0-.37-.03-.54-.09-.1-.04-.23-.18-.23-.27,0-.44,0-.89.06-1.33.06-.4.11-.41.52-.42.65,0,1.3,0,1.95,0,2.23,0,4.46.01,6.7.02.09,0,.19,0,.28,0,.55-.04.78.18.76.76-.01.28,0,.56,0,.83-.01.3-.09.4-.37.47-.14.03-.29.03-.44.03-.74,0-1.49,0-2.23.01-.13,0-.26,0-.39.02-.38.07-.58.3-.59.68,0,.37.02.74,0,1.11-.02.44-.08.88-.08,1.32,0,.31.06.62.07.93.01,1.11.01,2.22.02,3.34,0,.06,0,.11,0,.17-.04.29-.17.42-.47.43-.37.01-.74.01-1.12,0-.47-.01-.63-.17-.63-.65,0-1.11,0-2.23,0-3.34h0Z"/>
    <path class="cls-1" d="M140.02,104.01c0-1.37,0-2.74,0-4.11,0-.15,0-.3,0-.44.03-.29.16-.45.45-.46.48-.02.97-.02,1.45,0,.25,0,.32.09.34.35.01.15,0,.3,0,.44,0,2.32,0,4.63,0,6.95,0,.55.08,1.1.1,1.66.02.51-.1.61-.62.62-.33,0-.67,0-1,0-.61,0-.72-.12-.72-.71,0-1.43,0-2.85,0-4.28h0Z"/>
    <path class="cls-1" d="M156.54,109.12c-.56,0-1.14,0-1.72,0-.34,0-.42-.08-.42-.44,0-.95,0-1.89,0-2.84,0-.2.02-.41,0-.61-.02-.16-.07-.33-.16-.46-.21-.32-.57-.3-.74.05-.3.63-.57,1.28-.85,1.93-.25.59-.49,1.19-.74,1.79-.13.31-.41.47-.75.44-.31-.03-.62-.07-.94-.07-.27,0-.47-.09-.62-.3-.12-.17-.24-.33-.33-.51-.42-.85-.82-1.7-1.23-2.55-.09-.18-.19-.36-.32-.52-.25-.33-.63-.29-.77.09-.08.22-.11.47-.11.7,0,.44.06.88.08,1.32.02.5.02,1,.02,1.5,0,.41-.06.47-.49.48-.45,0-.89,0-1.34,0-.36,0-.49-.15-.52-.51,0-.07,0-.15,0-.22,0-2.86,0-5.71,0-8.57,0-.29.06-.58.08-.86.28-.17.55-.21.83-.2.33,0,.67,0,1,0,.44.01.77.18.96.62.64,1.45,1.3,2.9,1.96,4.34.19.42.41.83.61,1.25.02.03.03.07.05.1.33.49.75.5,1.04-.02.3-.53.54-1.09.81-1.64.02-.05.03-.11.05-.16.57-1.25,1.16-2.48,1.69-3.74.18-.43.46-.6.87-.63.46-.03.93-.03,1.4-.02.37.01.53.15.62.51.05.19.07.4.07.6,0,2.45,0,4.9.02,7.35,0,.31.06.62.08.93.01.27.07.56-.2.86Z"/>
    <path class="cls-1" d="M165.56,103.09c.22.65.18,1.25.03,1.89-.22,0-.4.02-.58.03-1.04.03-2.08.06-3.11.1-.46.02-.62.17-.74.6-.2.76.19,1.27.99,1.29.15,0,.3,0,.45,0,1.4,0,2.79-.01,4.19-.02.24,0,.48,0,.73.02.25.02.32.1.34.35.04.45-.05.88-.2,1.3-.08.21-.2.3-.39.33-.11.02-.22,0-.33,0-2.38,0-4.76,0-7.15,0-.26,0-.53.05-.78-.23,0-.32.01-.68,0-1.05-.02-.44-.07-.88-.07-1.32,0-.33.03-.66.04-.99,0-.2,0-.4,0-.61-.02-.55-.1-1.12-.03-1.66.07-.5.06-1,.05-1.49,0-.61-.06-1.22-.07-1.83,0-.14.02-.29.06-.43.08-.26.25-.41.53-.4.15,0,.3,0,.45,0,2.34,0,4.69,0,7.03,0,.09,0,.19,0,.28,0,.27.02.43.15.45.4.02.43.02.85.01,1.28,0,.24-.1.3-.36.32-.15.01-.3,0-.45,0-1.51,0-3.01,0-4.52,0-.24,0-.47.06-.71.1-.05,0-.11.02-.16.05-.28.12-.46.7-.36,1.21.09.45.32.61.77.66,1.02.11,2.04.09,3.06.09.18,0,.37,0,.58,0Z"/>
    <path class="cls-1" d="M169.72,108.81c-.03-.23-.08-.48-.08-.74-.01-1.39-.02-2.78-.01-4.18,0-.46.06-.92.09-1.38,0-.07.02-.15,0-.22-.16-.85-.05-1.7-.08-2.55,0-.13,0-.26.04-.38.08-.28.18-.36.48-.37.54-.01,1.08,0,1.61,0,.3.29.21.63.19.96-.02.27-.02.55-.02.82,0,.07.04.15.03.22-.19,1.68-.03,3.37-.09,5.06-.02.49.19.89.91.96.24.02.48,0,.73,0,.88,0,1.75,0,2.63-.01.44,0,.89-.07,1.33-.08.24,0,.48.04.71.08.39.08.38.09.42.45.04.44-.11.84-.25,1.24-.03.1-.17.18-.28.22-.12.04-.26.01-.39.01-1.83,0-3.65,0-5.48,0-.42,0-.85.06-1.27.07-.37.01-.75.06-1.18-.18Z"/>
    <path class="cls-1" d="M180.07,104.01c0-1.37,0-2.74,0-4.11,0-.15,0-.3,0-.44.03-.29.16-.45.45-.46.48-.02.97-.02,1.45,0,.25,0,.32.09.34.35.01.15,0,.3,0,.44,0,2.32,0,4.63,0,6.95,0,.55.08,1.1.1,1.66.02.51-.1.61-.62.62-.33,0-.67,0-1,0-.61,0-.72-.12-.72-.71,0-1.43,0-2.85,0-4.28h0Z"/>
    <path class="cls-1" d="M187.22,103.09c-.29.36-.28.78-.29,1.17-.01.57.06,1.14.07,1.71.02.87.03,1.74.03,2.61,0,.32-.08.4-.39.41-.48.01-.97.01-1.45,0-.3,0-.4-.09-.47-.37-.03-.12-.03-.26-.03-.38,0-2.78,0-5.56,0-8.34,0-.81.11-.92.94-.92,1.3,0,1.07-.09,1.93.8,1.3,1.33,2.59,2.66,3.89,3.98.31.32.65.61,1.06.79.36.16.51.1.61-.28.04-.16.04-.33.04-.5,0-1.24.01-2.48.01-3.73,0-.11,0-.22,0-.33.02-.51.21-.71.71-.73.33-.02.67-.01,1,0,.45.02.59.17.61.61.01.46,0,.93,0,1.39,0,.87,0,1.74,0,2.62-.01.79-.08,1.59-.08,2.38,0,.7.07,1.4.1,2.1,0,.13,0,.26,0,.39,0,.47-.05.52-.5.52-.41,0-.82,0-1.23,0-.3.01-.54-.09-.75-.3-1.62-1.62-3.24-3.22-4.85-4.85-.23-.24-.41-.52-.72-.68-.08-.04-.17-.06-.26-.09Z"/>
    <path class="cls-1" d="M204.45,103.09c.22.65.18,1.25.03,1.89-.22,0-.4.02-.58.03-1.04.03-2.08.06-3.11.1-.46.02-.62.17-.74.6-.2.76.19,1.27.99,1.29.15,0,.3,0,.45,0,1.4,0,2.79-.01,4.19-.02.24,0,.48,0,.72.02.25.02.32.1.34.35.04.45-.05.88-.2,1.3-.08.21-.2.3-.39.33-.11.02-.22,0-.33,0-2.38,0-4.76,0-7.14,0-.26,0-.53.05-.78-.23,0-.32.01-.68,0-1.05-.02-.44-.07-.88-.07-1.32,0-.33.03-.66.04-.99,0-.2,0-.4,0-.61-.01-.55-.1-1.12-.03-1.66.07-.5.06-1,.05-1.49,0-.61-.06-1.22-.07-1.83,0-.14.02-.29.06-.43.07-.26.25-.41.53-.4.15,0,.3,0,.45,0,2.34,0,4.69,0,7.03,0,.09,0,.19,0,.28,0,.27.02.43.15.45.4.02.43.02.85.01,1.28,0,.24-.1.3-.36.32-.15.01-.3,0-.45,0-1.51,0-3.01,0-4.52,0-.24,0-.47.06-.71.1-.05,0-.11.02-.16.05-.28.12-.46.7-.36,1.21.09.45.32.61.77.66,1.02.11,2.04.09,3.06.09.18,0,.37,0,.58,0Z"/>
    <path class="cls-1" d="M11.45,121.08c-.96.1-1.88-.12-2.79-.41-.33-.1-.61-.26-.85-.52-.12-.14-.28-.24-.42-.37-.13-.11-.26-.22-.37-.35-1.04-1.31-1.51-2.78-1.18-4.48.03-.13.01-.27.03-.4.06-.48.15-.93.54-1.28.16-.14.22-.4.37-.57.4-.48.86-.91,1.41-1.19.78-.41,1.58-.75,2.48-.71.29.01.59-.11.88-.08.86.09,1.73.12,2.56.45.49.2.89.54,1.33.83.53.34.84.85,1.05,1.44.04.12.09.26.16.37.63.92.54,1.96.49,2.99-.01.27-.2.53-.31.79s-.25.51-.34.78c-.22.63-.6,1.1-1.1,1.54-1.04.92-2.24,1.2-3.55,1.19-.13,0-.26,0-.39,0ZM11.47,112.77c-1.03,0-1.75.19-2.41,1.04-.08.1-.18.19-.28.28-.26.23-.41.53-.51.87-.27.9-.25,1.81.23,2.6.67,1.11,1.7,1.66,2.98,1.68.46,0,.87-.18,1.29-.3.62-.17,1.08-.59,1.36-1.18.19-.41.32-.86.51-1.27.2-.45.21-.88,0-1.32-.04-.08-.09-.17-.12-.26-.33-1.2-1.82-2.27-3.05-2.14Z"/>
    <path class="cls-1" d="M25.68,117.12c-.22.01-.4.03-.58.03-.45,0-.89-.02-1.34,0-.63.02-1.26.06-1.89.1-.38.02-.61.26-.64.63-.04.59-.08,1.18-.09,1.77,0,.29.05.58.08.88.04.36-.01.48-.38.53-.48.06-.96.06-1.44.08-.17,0-.27-.11-.29-.28-.03-.24-.09-.47-.09-.71-.01-2.71,0-5.42-.02-8.13,0-.71.15-.92.91-.9.91.02,1.82,0,2.74,0,.22,0,.44-.04.66-.06.06,0,.11-.02.17-.02,1.24.18,2.49.04,3.73.09.02,0,.04,0,.06,0,.36.02.51.11.54.43.04.4.03.82,0,1.22-.01.2-.17.33-.38.35-.15.01-.3,0-.45,0-1.49,0-2.98-.01-4.47,0-.26,0-.51.07-.77.11-.2.03-.33.17-.41.34-.16.37-.15.75-.03,1.14.07.22.24.32.44.39.08.03.18.03.28.03,1.02.03,2.04.07,3.06.09.58.01.71.13.72.72,0,.18-.04.37-.06.55-.02.18-.04.37-.07.62Z"/>
    <path class="cls-1" d="M37.38,118.97c.06.05.09.09.13.1.31.06.61.12.92.15.44.04.88.05,1.32.06.29,0,.58-.03.87-.05.16,0,.32,0,.49,0,.3.01.6.03.9.06.24.02.47.04.71.06.13.01.19.08.2.21.03.44.11.87,0,1.31-.06.25-.1.29-.37.25-.14-.02-.28-.03-.42-.03-2.43,0-4.86,0-7.29.02-.35,0-.71.04-1.06.05-.13,0-.26-.03-.38-.06-.14-.04-.17-.11-.12-.25.12-.3.23-.6.38-.89.17-.32.35-.64.56-.94.12-.19.29-.34.44-.51.12-.12.26-.23.36-.37.24-.36.57-.61.89-.88.36-.3.73-.6,1.09-.9.06-.05.12-.09.18-.13.26-.16.47-.35.69-.57.25-.26.58-.44.9-.62.41-.25.68-.59.78-1.05.02-.08.01-.17,0-.25-.11-.44-.41-.68-.83-.82-.79-.27-1.46-.05-2.07.46-.14.12-.24.3-.33.47-.06.11-.13.16-.26.16-.73-.02-1.47-.03-2.2-.06-.25,0-.3-.08-.29-.32,0-.14.03-.28.08-.4.13-.31.27-.61.43-.9.24-.4.63-.64,1.03-.85,1.05-.54,2.17-.85,3.36-.75.53.04,1.05.14,1.55.3.4.13.79.28,1.18.43.18.07.3.2.41.36.35.5.53,1.07.65,1.67.02.08,0,.17,0,.26-.02.2-.02.41-.06.61-.02.12-.08.24-.14.35-.15.27-.33.53-.47.8-.09.18-.25.26-.4.36-.24.16-.45.36-.67.56-.2.19-.43.35-.65.52-.17.13-.37.24-.51.4-.54.59-1.19,1.06-1.83,1.52-.04.03-.08.07-.15.13Z"/>
    <path class="cls-1" d="M45.53,118.25c.71.27,1.35.52,1.98.76.89.35,1.81.38,2.74.28.58-.06,1.16-.24,1.6-.67.51-.5.43-1.19-.19-1.54-.37-.21-.78-.33-1.21-.33-.32,0-.64.02-.95,0-.53-.04-1.07-.11-1.6-.17-.35-.04-.7-.07-1.04-.16-.78-.21-1.47-.55-1.96-1.22-.69-.93-.36-2.2.25-2.91.85-.99,1.97-1.34,3.22-1.44.41-.03.81-.09,1.22-.08,1.21.03,2.38.27,3.52.65.51.17.62.41.47.92-.04.15-.1.31-.18.45-.3.48-.5.49-.9.35-.57-.2-1.16-.38-1.75-.49-1.08-.2-2.15-.11-3.16.32-.36.15-.69.38-.66.83.03.46.3.77.73.92.61.22,1.26.29,1.9.32.37.02.75,0,1.12,0,.83.03,1.61.23,2.33.63.92.51,1.39,1.53,1.26,2.5-.06.43-.11.89-.46,1.23-.19.19-.41.36-.62.53-.1.08-.25.11-.32.21-.38.46-.93.56-1.46.71-.61.18-1.23.24-1.87.21-.65-.03-1.3.06-1.94-.1-.92-.22-1.83-.44-2.66-.9-.13-.07-.27-.13-.36-.24-.07-.08-.11-.24-.07-.33.21-.5.56-.91,1.01-1.21Z"/>
    <path class="cls-1" d="M56.26,120.9c-.03-.23-.08-.48-.08-.74-.01-1.39-.02-2.78-.01-4.18,0-.46.06-.92.09-1.38,0-.07.02-.15,0-.22-.16-.85-.05-1.7-.08-2.55,0-.13,0-.26.04-.38.08-.28.18-.36.48-.37.54-.01,1.08,0,1.61,0,.3.29.21.63.19.96-.02.27-.02.55-.02.82,0,.07.04.15.03.22-.19,1.68-.03,3.37-.09,5.06-.02.49.19.89.91.96.24.02.48,0,.73,0,.88,0,1.75,0,2.63-.01.44,0,.89-.07,1.33-.08.24,0,.48.04.71.08.39.08.38.09.42.45.04.44-.11.84-.25,1.24-.03.1-.17.18-.28.22-.12.04-.26.01-.39.01-1.83,0-3.65,0-5.48,0-.42,0-.85.06-1.27.07-.37.01-.75.06-1.18-.18Z"/>
    <path class="cls-1" d="M73.48,115.72c.24,0,.48,0,.73,0,.8.03,1.59.06,2.39.09.29.01.39.15.36.44-.14,1.21-.62,2.27-1.36,3.23-.48.63-1.08.99-1.8,1.26-.69.26-1.39.4-2.11.43-.92.03-1.79-.23-2.66-.51-.23-.07-.45-.18-.67-.26-.3-.1-.56-.25-.78-.51-.31-.37-.69-.68-1.04-1.01-.05-.05-.12-.1-.16-.16-.46-.93-.98-1.84-.91-2.94.04-.56.12-1.12.22-1.68.06-.33.24-.63.46-.89.05-.06.11-.11.14-.17.57-.97,1.45-1.53,2.45-1.94.44-.18.86-.32,1.34-.32.48,0,.96-.11,1.44-.1.67,0,1.34.02,1.99.14.65.12,1.28.39,1.79.86.25.23.28.35.07.63-.24.33-.53.64-.79.95-.17.21-.39.22-.61.12-.2-.09-.4-.2-.6-.3-.75-.38-1.52-.49-2.36-.39-.75.1-1.39.35-1.97.82-.73.58-1.12,1.32-1.16,2.28-.04.85.22,1.58.77,2.18.45.49,1.05.76,1.7.92,1.25.3,2.26.09,3.41-.4.15-.06.28-.19.38-.32.15-.19.29-.5.21-.71-.07-.2-.27-.16-.44-.16-.73,0-1.45,0-2.18,0-.4,0-.39-.03-.53-.43-.12-.36.02-.67.09-1,.04-.17.22-.17.38-.17.48,0,.97,0,1.45.01.11,0,.22,0,.33,0,0,0,0,0,0,0Z"/>
    <path class="cls-1" d="M78.72,120.87c-.02-.74-.07-1.51-.07-2.29,0-2.23,0-4.45,0-6.68,0-.13,0-.26,0-.39.03-.25.24-.48.49-.53.04,0,.07,0,.11,0,.98-.03,1.97-.13,2.95-.09,1.12.05,2.25.08,3.35.41.45.14.87.32,1.19.68.28.32.57.64.78,1.01.32.57.12,2-.3,2.53-.11.14-.21.3-.32.46.12.17.21.33.32.47.94,1.13.9,2.34.28,3.57-.3.6-.83.92-1.52.97-.81.06-1.62.17-2.43.19-.78.02-1.56-.05-2.33-.06-.58-.01-1.15,0-1.73-.01-.24,0-.49.01-.76-.26ZM80.98,114.97c.21.04.4.11.59.12.69.02,1.38.03,2.07.01.37-.01.74-.07,1.1-.15.17-.04.36-.12.49-.24.6-.56.31-1.43-.21-1.7-.25-.13-.56-.21-.85-.23-.67-.05-1.33-.06-2-.08-.2,0-.41.03-.6.08-.38.08-.57.31-.58.7,0,.48,0,.96,0,1.5ZM82.89,119.48s0-.03,0-.05c.24,0,.49.03.73,0,.46-.06.92-.12,1.35-.26.45-.14.66-.47.68-.98.02-.47-.26-.85-.74-.98-.41-.11-.83-.2-1.25-.21-.7,0-1.41.05-2.11.09-.38.03-.57.22-.57.61,0,.33.08.66.07.99-.01.41.22.58.56.63.42.07.84.1,1.26.15Z"/>
    <path class="cls-1" d="M92.91,117.15c0-1.02,0-2.04,0-3.06,0-.13,0-.26,0-.39-.03-.39-.16-.52-.55-.56-.15-.01-.3,0-.45-.01-.74,0-1.49,0-2.23-.01-.18,0-.37-.03-.54-.09-.1-.04-.23-.18-.23-.27,0-.44,0-.89.06-1.33.06-.4.11-.41.52-.42.65,0,1.3,0,1.95,0,2.23,0,4.46.01,6.7.02.09,0,.19,0,.28,0,.55-.04.78.18.76.76-.01.28,0,.56,0,.83-.01.3-.09.4-.37.47-.14.03-.29.03-.44.03-.74,0-1.49,0-2.23.01-.13,0-.26,0-.39.02-.38.07-.58.3-.59.68,0,.37.02.74,0,1.11-.02.44-.08.88-.08,1.32,0,.31.06.62.07.93.01,1.11.01,2.22.02,3.34,0,.06,0,.11,0,.17-.04.29-.17.42-.47.43-.37.01-.74.01-1.12,0-.47-.01-.63-.17-.63-.65,0-1.11,0-2.23,0-3.34h0Z"/>
    <path class="cls-1" d="M111.71,120.96c-.66,0-1.27,0-1.88,0-.07,0-.15,0-.22-.03-.33-.12-.65-.24-1.05-.39-.3.1-.69.22-1.07.36-.37.13-.75.21-1.14.2-.67-.01-1.34,0-2.01-.02-.27-.01-.54-.1-.81-.16-.14-.04-.28-.12-.42-.14-.86-.14-1.47-.69-2.02-1.33-.57-.67-1.06-1.38-1.2-2.29-.07-.5-.21-.99-.08-1.53.11-.48.09-.99.15-1.48.04-.31.15-.58.39-.8.12-.11.23-.25.3-.4.17-.36.44-.62.73-.86.66-.54,1.4-.92,2.19-1.21.05-.02.11-.03.16-.04.68-.04,1.37-.14,2.05-.1.82.05,1.68.07,2.44.47,1.01.53,2,1.12,2.36,2.37.03.11.07.23.13.31.44.6.47,1.31.52,2.02.04.64-.05,1.24-.35,1.83-.23.45-.35.95-.22,1.49.09.33.27.58.48.82.16.18.32.37.46.57.06.08.06.2.1.37ZM105.49,112.78c-.08,0-.19,0-.31,0-.78,0-1.45.26-1.98.87-.12.14-.26.28-.4.41-.4.39-.58.88-.62,1.43-.02.29-.02.58,0,.86.03.65.26,1.22.69,1.71.57.65,1.29,1.02,2.11,1.17.78.14,1.49-.2,2.2-.44.12-.04.21-.15.32-.23.61-.5.89-1.2,1.06-1.96.12-.51.17-1.01.04-1.53-.29-1.14-1.61-2.49-3.11-2.29Z"/>
    <path class="cls-1" d="M113.46,116.11c0-1.37,0-2.74,0-4.11,0-.15,0-.3,0-.44.03-.29.16-.45.45-.46.48-.02.97-.02,1.45,0,.25,0,.32.09.34.35.01.15,0,.3,0,.44,0,2.32,0,4.63,0,6.95,0,.55.08,1.1.1,1.66.02.51-.1.61-.62.62-.33,0-.67,0-1,0-.61,0-.72-.12-.72-.71,0-1.43,0-2.85,0-4.28h0Z"/>
    <path class="cls-1" d="M128.75,120.91c-.38.26-.82.14-1.23.13-.2,0-.4-.07-.6-.07-.3,0-.49-.12-.61-.39-.06-.15-.14-.3-.2-.46-.14-.37-.42-.57-.79-.61-.55-.05-1.11-.1-1.66-.1-.83,0-1.67.05-2.5.09-.51.02-.92.25-1.06.75-.21.77-.76.93-1.44.91-.28,0-.56,0-.84,0-.26,0-.47-.07-.65-.28.04-.11.08-.22.12-.32.36-.71.71-1.42,1.09-2.12.75-1.38,1.33-2.84,1.97-4.27.43-.96.87-1.92,1.29-2.88.11-.24.3-.34.52-.34.63-.02,1.27-.02,1.9-.02.33,0,.49.24.61.49.26.53.51,1.07.75,1.61.32.73.61,1.46.94,2.19.76,1.66,1.54,3.32,2.32,4.98.11.23.16.45.08.71ZM123.15,118.18h0c.32,0,.64.02.95-.01.63-.07.88-.54.61-1.1-.33-.7-.64-1.41-.97-2.12-.05-.12-.12-.23-.21-.32-.26-.29-.5-.3-.81-.01-.08.07-.12.18-.17.28-.2.44-.39.88-.58,1.32-.16.35-.32.71-.46,1.07-.11.3-.03.56.23.71.17.1.38.16.57.18.28.03.56,0,.84,0Z"/>
    <path class="cls-1" d="M134.08,112.97v3.52h3.39v.9h-3.39v3.55h-.96v-3.55h-3.39v-.9h3.39v-3.52h.96Z"/>
    <path class="cls-1" d="M149.04,115.19c.22.65.18,1.25.03,1.89-.22,0-.4.02-.58.03-1.04.03-2.08.06-3.11.1-.46.02-.62.17-.74.6-.2.76.19,1.27.99,1.29.15,0,.3,0,.45,0,1.4,0,2.79-.01,4.19-.02.24,0,.48,0,.73.02.25.02.32.1.34.35.04.45-.05.88-.2,1.3-.08.21-.2.3-.39.33-.11.02-.22,0-.33,0-2.38,0-4.76,0-7.15,0-.26,0-.53.05-.78-.23,0-.32.01-.68,0-1.05-.02-.44-.07-.88-.07-1.32,0-.33.03-.66.04-.99,0-.2,0-.4,0-.61-.02-.55-.1-1.12-.03-1.66.07-.5.06-1,.05-1.49,0-.61-.06-1.22-.07-1.83,0-.14.02-.29.06-.43.08-.26.25-.41.53-.4.15,0,.3,0,.45,0,2.34,0,4.69,0,7.03,0,.09,0,.19,0,.28,0,.27.02.43.15.45.4.02.43.02.85.01,1.28,0,.24-.1.3-.36.32-.15.01-.3,0-.45,0-1.51,0-3.01,0-4.52,0-.24,0-.47.06-.71.1-.05,0-.11.02-.16.05-.28.12-.46.7-.36,1.21.09.45.32.61.77.66,1.02.11,2.04.09,3.06.09.18,0,.37,0,.58,0Z"/>
    <path class="cls-1" d="M152.25,111.04c.28-.03.55-.1.82-.09.42,0,.85.06,1.27.09.27.02.44.18.54.41.33.72.67,1.44,1,2.16.13.29.26.57.39.86.38.82.75,1.65,1.13,2.47.07.15.13.31.23.45.3.44.7.43.95-.03.31-.59.59-1.19.88-1.79.02-.05.03-.11.06-.16.55-1.21,1.1-2.42,1.65-3.63.06-.13.12-.28.21-.39.07-.09.19-.2.29-.21.53-.06,1.07-.08,1.61-.12.06,0,.11,0,.17,0,.3.05.43.28.31.57-.25.56-.49,1.12-.77,1.66-.75,1.43-1.33,2.93-1.99,4.39-.45,1.01-.94,2.01-1.39,3.02-.16.36-.4.5-.78.48-.59-.04-1.18-.07-1.77-.09-.22,0-.33-.13-.41-.31-.29-.64-.6-1.27-.89-1.91-.36-.79-.68-1.6-1.05-2.38-.64-1.38-1.28-2.75-1.94-4.12-.11-.23-.25-.46-.4-.66-.14-.18-.19-.35-.12-.66Z"/>
    <path class="cls-1" d="M171.9,115.19c.22.65.18,1.25.03,1.89-.22,0-.4.02-.58.03-1.04.03-2.08.06-3.11.1-.46.02-.62.17-.74.6-.2.76.19,1.27.99,1.29.15,0,.3,0,.45,0,1.4,0,2.79-.01,4.19-.02.24,0,.48,0,.73.02.25.02.32.1.34.35.04.45-.05.88-.2,1.3-.08.21-.2.3-.39.33-.11.02-.22,0-.33,0-2.38,0-4.76,0-7.15,0-.26,0-.53.05-.78-.23,0-.32.01-.68,0-1.05-.02-.44-.07-.88-.07-1.32,0-.33.03-.66.04-.99,0-.2,0-.4,0-.61-.02-.55-.1-1.12-.03-1.66.07-.5.06-1,.05-1.49,0-.61-.06-1.22-.07-1.83,0-.14.02-.29.06-.43.08-.26.25-.41.53-.4.15,0,.3,0,.45,0,2.34,0,4.69,0,7.03,0,.09,0,.19,0,.28,0,.27.02.43.15.45.4.02.43.02.85.01,1.28,0,.24-.1.3-.36.32-.15.01-.3,0-.45,0-1.51,0-3.01,0-4.52,0-.24,0-.47.06-.71.1-.05,0-.11.02-.16.05-.28.12-.46.7-.36,1.21.09.45.32.61.77.66,1.02.11,2.04.09,3.06.09.18,0,.37,0,.58,0Z"/>
    <path class="cls-1" d="M178.51,115.18c-.29.36-.28.78-.29,1.17-.01.57.06,1.14.07,1.71.02.87.03,1.74.03,2.61,0,.32-.08.4-.39.41-.48.01-.97.01-1.45,0-.3,0-.4-.09-.47-.37-.03-.12-.03-.26-.03-.38,0-2.78,0-5.56,0-8.34,0-.81.11-.92.94-.92,1.3,0,1.07-.09,1.93.8,1.3,1.33,2.59,2.66,3.89,3.98.31.32.65.61,1.06.79.36.16.51.1.61-.28.04-.16.04-.33.04-.5,0-1.24.01-2.48.01-3.73,0-.11,0-.22,0-.33.02-.51.21-.71.71-.73.33-.02.67-.01,1,0,.45.02.59.17.61.61.01.46,0,.93,0,1.39,0,.87,0,1.74,0,2.62-.01.79-.08,1.59-.08,2.38,0,.7.07,1.4.1,2.1,0,.13,0,.26,0,.39,0,.47-.05.52-.5.52-.41,0-.82,0-1.23,0-.3.01-.54-.09-.75-.3-1.62-1.62-3.24-3.22-4.85-4.85-.23-.24-.41-.52-.72-.68-.08-.04-.17-.06-.26-.09Z"/>
    <path class="cls-1" d="M192.28,117.15c0-1.02,0-2.04,0-3.06,0-.13,0-.26,0-.39-.03-.39-.16-.52-.55-.56-.15-.01-.3,0-.45-.01-.74,0-1.49,0-2.23-.01-.18,0-.37-.03-.54-.09-.1-.04-.22-.18-.23-.27,0-.44,0-.89.06-1.33.06-.4.11-.41.52-.42.65,0,1.3,0,1.95,0,2.23,0,4.46.01,6.7.02.09,0,.19,0,.28,0,.55-.04.78.18.75.76-.01.28,0,.56,0,.83,0,.3-.09.4-.37.47-.14.03-.29.03-.44.03-.74,0-1.49,0-2.23.01-.13,0-.26,0-.39.02-.38.07-.58.3-.59.68,0,.37.02.74,0,1.11-.02.44-.08.88-.08,1.32,0,.31.06.62.07.93.01,1.11.01,2.22.02,3.34,0,.06,0,.11,0,.17-.04.29-.17.42-.47.43-.37.01-.74.01-1.12,0-.47-.01-.63-.17-.63-.65,0-1.11,0-2.23,0-3.34h0Z"/>
    <path class="cls-1" d="M200.69,118.25c.71.27,1.35.52,1.98.76.88.35,1.81.38,2.74.28.58-.06,1.16-.24,1.6-.67.51-.5.43-1.19-.19-1.54-.37-.21-.78-.33-1.21-.33-.32,0-.63.02-.95,0-.53-.04-1.06-.11-1.6-.17-.35-.04-.7-.07-1.04-.16-.78-.21-1.47-.55-1.96-1.22-.69-.93-.36-2.2.25-2.91.85-.99,1.97-1.34,3.22-1.44.41-.03.81-.09,1.22-.08,1.21.03,2.38.27,3.52.65.51.17.62.41.47.92-.05.15-.1.31-.18.45-.3.48-.5.49-.9.35-.57-.2-1.16-.38-1.75-.49-1.08-.2-2.15-.11-3.16.32-.36.15-.69.38-.66.83.03.46.3.77.73.92.61.22,1.26.29,1.9.32.37.02.75,0,1.12,0,.83.03,1.61.23,2.33.63.92.51,1.39,1.53,1.26,2.5-.06.43-.11.89-.46,1.23-.19.19-.41.36-.62.53-.1.08-.25.11-.32.21-.38.46-.93.56-1.46.71-.61.18-1.23.24-1.87.21-.65-.03-1.3.06-1.94-.1-.92-.22-1.83-.44-2.66-.9-.13-.07-.27-.13-.36-.24-.07-.08-.11-.24-.07-.33.21-.5.56-.91,1.01-1.21Z"/>
  </g>
  <g>
    <path class="cls-2" d="M8.58,124.27l-.09.4h-1.2l-.67,3.17h-.48l.67-3.17h-1.2l.08-.4h2.88Z"/>
    <path class="cls-2" d="M9.33,124.27l-.31,1.37h0c.21-.28.54-.44.92-.44.49,0,.72.21.72.67,0,.11,0,.16-.08.51l-.32,1.48h-.43l.33-1.51c.02-.12.06-.37.06-.4,0-.22-.18-.36-.45-.36-.39,0-.82.34-.93.84l-.3,1.44h-.43l.76-3.57h.43Z"/>
    <path class="cls-2" d="M11.9,125.26l-.54,2.59h-.43l.54-2.59h.43ZM12.11,124.27l-.11.52h-.43l.11-.52h.43Z"/>
    <path class="cls-2" d="M14.27,126.02h-.43v-.04c0-.22-.22-.4-.54-.4s-.55.11-.55.33c0,.15.09.25.51.41.38.15.62.28.71.39.1.11.15.25.15.4,0,.51-.46.8-1.06.8-.69,0-1.04-.28-1.04-.88h.43v.04c0,.3.24.46.66.46.35,0,.59-.13.59-.4,0-.12-.09-.22-.27-.31-.18-.08-.32-.14-.44-.19-.49-.2-.66-.38-.66-.69,0-.45.44-.75.96-.75.57,0,.98.29.98.82Z"/>
    <path class="cls-2" d="M16.8,125.26l-.54,2.59h-.43l.54-2.59h.43ZM17.01,124.27l-.11.52h-.43l.11-.52h.43Z"/>
    <path class="cls-2" d="M19.17,126.02h-.43v-.04c0-.22-.22-.4-.54-.4s-.55.11-.55.33c0,.15.1.25.51.41.38.15.62.28.71.39.09.11.15.25.15.4,0,.51-.46.8-1.06.8-.69,0-1.04-.28-1.04-.88h.43v.04c0,.3.24.46.66.46.35,0,.59-.13.59-.4,0-.12-.09-.22-.27-.31-.18-.08-.32-.14-.44-.19-.49-.2-.66-.38-.66-.69,0-.45.44-.75.96-.75.57,0,.98.29.98.82Z"/>
    <path class="cls-2" d="M23.1,125.86c0,.11-.03.25-.05.35l-.23.98c-.02.1-.03.17-.03.22,0,.09.03.16.12.16.02,0,.04,0,.06-.01l.07-.02-.07.32c-.06.03-.19.06-.26.06-.21,0-.34-.1-.34-.32,0-.02,0-.04,0-.05h-.01c-.21.27-.48.37-.87.37-.49,0-.79-.25-.79-.73,0-.26.08-.44.26-.58.18-.14.44-.22,1.05-.27.52-.03.65-.11.65-.41,0-.23-.21-.34-.52-.34-.37,0-.65.17-.7.47h-.43c.08-.53.52-.84,1.12-.84s.95.22.95.66ZM22.55,126.52c-.1.07-.27.11-.51.13-.36.03-.59.08-.72.16-.12.08-.19.2-.19.35,0,.23.21.36.47.36.38,0,.61-.15.75-.37.07-.11.13-.32.2-.64h-.01Z"/>
    <path class="cls-2" d="M26,124.27l-.47,2.22c-.04.17-.04.25-.04.33,0,.47.29.71.89.71.48,0,.74-.18.89-.47.07-.14.16-.44.25-.89l.4-1.91h.48l-.45,2.14c-.08.38-.15.63-.22.77-.21.41-.63.75-1.36.75-.86,0-1.34-.38-1.34-1.12,0-.12,0-.19.08-.56l.42-1.99h.48Z"/>
    <path class="cls-2" d="M28.99,127.29l-.12.56h-.56l.12-.56h.56Z"/>
    <path class="cls-2" d="M32.71,125.28v.05h-.48v-.04c0-.47-.25-.71-.82-.71-.41,0-.83.2-.83.58,0,.31.19.47.6.58l.46.12c.5.13.87.38.87.97,0,.73-.72,1.09-1.39,1.09-.89,0-1.41-.4-1.41-1.13,0-.04,0-.08,0-.13h.48v.06c0,.55.32.8.95.8.54,0,.9-.27.9-.69,0-.38-.33-.51-.64-.59l-.4-.1c-.59-.16-.89-.43-.89-.93,0-.7.68-1.04,1.31-1.04.77,0,1.29.4,1.29,1.09Z"/>
    <path class="cls-2" d="M33.62,127.29l-.12.56h-.56l.12-.56h.56Z"/>
    <path class="cls-2" d="M37.51,124.27l-.07.36c-.14-.03-.15-.03-.2-.03-.22,0-.36.11-.42.32l-.08.33h.5l-.07.38h-.5l-.48,2.21h-.43l.48-2.21h-.44l.07-.38h.44c.14-.58.18-1.03.84-1.03.18,0,.29.02.35.04Z"/>
    <path class="cls-2" d="M39.74,126.27c0,.86-.53,1.64-1.43,1.64-.65,0-1.09-.44-1.09-1.09,0-.82.53-1.62,1.45-1.62.71,0,1.08.39,1.08,1.07ZM38.35,127.53c.61,0,.96-.7.96-1.23,0-.43-.25-.73-.69-.73-.61,0-.99.66-.99,1.25,0,.46.27.71.71.71Z"/>
    <path class="cls-2" d="M42.51,126.08h-.43c0-.32-.21-.51-.55-.51-.63,0-1.01.6-1.01,1.22,0,.48.22.74.64.74.35,0,.63-.19.76-.53h.43c-.16.59-.59.91-1.18.91-.69,0-1.07-.4-1.07-1.12,0-.88.55-1.59,1.43-1.59.63,0,.95.31.97.88Z"/>
    <path class="cls-2" d="M43.58,125.26l-.35,1.59c-.03.14-.04.25-.04.33,0,.23.17.36.45.36.23,0,.43-.08.6-.25.17-.17.27-.36.33-.58l.3-1.44h.43l-.55,2.59h-.41l.08-.39h0c-.23.3-.57.45-.92.45-.49,0-.72-.21-.72-.67,0-.12.03-.3.08-.54l.31-1.45h.43Z"/>
    <path class="cls-2" d="M47.67,126.02h-.43v-.04c0-.22-.22-.4-.54-.4s-.55.11-.55.33c0,.15.1.25.51.41.38.15.62.28.71.39.09.11.15.25.15.4,0,.51-.46.8-1.06.8-.69,0-1.04-.28-1.04-.88h.43v.04c0,.3.24.46.66.46.35,0,.59-.13.59-.4,0-.12-.09-.22-.27-.31-.18-.08-.32-.14-.44-.19-.49-.2-.66-.38-.66-.69,0-.45.44-.75.96-.75.57,0,.98.29.98.82Z"/>
    <path class="cls-2" d="M50.35,126.34c0,.1-.03.29-.04.34h-1.95c-.01.08-.02.16-.02.22,0,.38.31.63.67.63s.62-.17.75-.5h.43c-.14.57-.6.87-1.17.87-.71,0-1.1-.42-1.1-1.05,0-.93.58-1.66,1.33-1.66s1.1.39,1.1,1.14ZM49.92,126.3s0-.05,0-.07c0-.4-.23-.66-.62-.66-.43,0-.73.24-.89.73h1.5Z"/>
    <path class="cls-2" d="M53.59,124.27l-.76,3.57h-.4l.09-.37h0c-.22.3-.47.43-.86.43-.63,0-1.02-.41-1.02-1.06,0-.83.57-1.65,1.44-1.65.41,0,.72.16.81.46h.01l.27-1.38h.42ZM51.73,127.53c.62,0,1.02-.7,1.02-1.29,0-.4-.25-.67-.66-.67-.65,0-1.02.67-1.02,1.27,0,.45.23.69.66.69Z"/>
    <path class="cls-2" d="M56.06,124.27l-.75,3.57h-.43l.75-3.57h.43Z"/>
    <path class="cls-2" d="M56.96,125.26l-.54,2.59h-.43l.54-2.59h.43ZM57.17,124.27l-.11.52h-.43l.11-.52h.43Z"/>
    <path class="cls-2" d="M59.33,126.02h-.43v-.04c0-.22-.22-.4-.54-.4s-.55.11-.55.33c0,.15.09.25.51.41.38.15.62.28.71.39.1.11.15.25.15.4,0,.51-.46.8-1.06.8-.69,0-1.04-.28-1.04-.88h.43v.04c0,.3.24.46.66.46.35,0,.59-.13.59-.4,0-.12-.09-.22-.27-.31-.18-.08-.32-.14-.44-.19-.49-.2-.66-.38-.66-.69,0-.45.44-.75.96-.75.57,0,.98.29.98.82Z"/>
    <path class="cls-2" d="M60.8,124.49l-.16.77h.52l-.08.38h-.52l-.31,1.51c-.01.07-.02.12-.02.19,0,.12.1.17.26.17.07,0,.15,0,.25-.04l-.08.39c-.11.02-.2.03-.3.03-.4,0-.58-.15-.58-.42,0-.05.01-.16.03-.24l.34-1.59h-.44l.08-.38h.44l.16-.77h.43Z"/>
    <path class="cls-2" d="M63.16,125.26l.16,2.06h0l.93-2.06h.48l.12,2.06h0l.98-2.06h.46l-1.34,2.59h-.45l-.13-2.01h-.01l-.93,2.01h-.45l-.31-2.59h.45Z"/>
    <path class="cls-2" d="M67.45,124.27l-.31,1.37h.01c.21-.28.54-.44.92-.44.49,0,.72.21.72.67,0,.11,0,.16-.08.51l-.31,1.48h-.43l.33-1.51c.02-.12.06-.37.06-.4,0-.22-.18-.36-.45-.36-.39,0-.82.34-.93.84l-.3,1.44h-.43l.76-3.57h.43Z"/>
    <path class="cls-2" d="M70.02,125.26l-.54,2.59h-.43l.54-2.59h.43ZM70.23,124.27l-.11.52h-.43l.11-.52h.43Z"/>
    <path class="cls-2" d="M72.69,126.08h-.43c0-.32-.21-.51-.55-.51-.63,0-1.01.6-1.01,1.22,0,.48.22.74.64.74.35,0,.63-.19.76-.53h.43c-.16.59-.59.91-1.18.91-.69,0-1.07-.4-1.07-1.12,0-.88.55-1.59,1.43-1.59.63,0,.95.31.97.88Z"/>
    <path class="cls-2" d="M74.03,124.27l-.31,1.37h.01c.21-.28.54-.44.92-.44.49,0,.72.21.72.67,0,.11,0,.16-.08.51l-.31,1.48h-.43l.33-1.51c.02-.12.06-.37.06-.4,0-.22-.18-.36-.45-.36-.39,0-.82.34-.93.84l-.3,1.44h-.43l.76-3.57h.43Z"/>
    <path class="cls-2" d="M77.98,125.26l-.54,2.59h-.43l.54-2.59h.43ZM78.19,124.27l-.11.52h-.43l.11-.52h.43Z"/>
    <path class="cls-2" d="M80.65,125.86c0,.11,0,.16-.08.51l-.32,1.48h-.43l.36-1.67c.02-.12.03-.21.03-.25,0-.22-.18-.36-.45-.36-.2,0-.39.08-.58.24-.19.16-.3.37-.35.59l-.31,1.45h-.43l.55-2.59h.41l-.08.39h0c.21-.29.54-.45.92-.45.49,0,.72.21.72.67Z"/>
    <path class="cls-2" d="M83.44,126.08h-.43c0-.32-.21-.51-.55-.51-.63,0-1.01.6-1.01,1.22,0,.48.22.74.64.74.35,0,.63-.19.76-.53h.43c-.16.59-.59.91-1.18.91-.69,0-1.07-.4-1.07-1.12,0-.88.55-1.59,1.43-1.59.63,0,.95.31.97.88Z"/>
    <path class="cls-2" d="M84.77,124.27l-.75,3.57h-.43l.75-3.57h.43Z"/>
    <path class="cls-2" d="M85.62,125.26l-.35,1.59c-.03.14-.04.25-.04.33,0,.23.17.36.45.36.23,0,.43-.08.6-.25.17-.17.27-.36.33-.58l.3-1.44h.43l-.55,2.59h-.41l.08-.39h0c-.23.3-.57.45-.92.45-.49,0-.72-.21-.72-.67,0-.12.03-.3.08-.54l.31-1.45h.43Z"/>
    <path class="cls-2" d="M90.54,124.27l-.76,3.57h-.4l.09-.37h0c-.22.3-.47.43-.86.43-.63,0-1.02-.41-1.02-1.06,0-.83.57-1.65,1.44-1.65.41,0,.72.16.81.46h.01l.27-1.38h.42ZM88.68,127.53c.62,0,1.02-.7,1.02-1.29,0-.4-.25-.67-.66-.67-.65,0-1.02.67-1.02,1.27,0,.45.23.69.66.69Z"/>
    <path class="cls-2" d="M92.95,126.34c0,.1-.03.29-.04.34h-1.95c0,.08-.01.16-.01.22,0,.38.31.63.67.63s.62-.17.75-.5h.43c-.14.57-.6.87-1.17.87-.71,0-1.1-.42-1.1-1.05,0-.93.58-1.66,1.33-1.66s1.1.39,1.1,1.14ZM92.52,126.3s0-.05,0-.07c0-.4-.23-.66-.62-.66-.43,0-.73.24-.89.73h1.5Z"/>
    <path class="cls-2" d="M95.36,126.02h-.43v-.04c0-.22-.22-.4-.54-.4s-.55.11-.55.33c0,.15.09.25.51.41.38.15.62.28.71.39.1.11.15.25.15.4,0,.51-.46.8-1.06.8-.69,0-1.04-.28-1.04-.88h.43v.04c0,.3.24.46.66.46.35,0,.59-.13.59-.4,0-.12-.09-.22-.27-.31-.18-.08-.32-.14-.44-.19-.49-.2-.66-.38-.66-.69,0-.45.44-.75.96-.75.57,0,.98.29.98.82Z"/>
    <path class="cls-2" d="M99.65,126.26c0,.8-.55,1.65-1.44,1.65-.39,0-.72-.16-.81-.46h0l-.28,1.39h-.42l.76-3.58h.4l-.09.37h0c.21-.29.45-.43.86-.43.63,0,1.02.41,1.02,1.06ZM98.2,127.53c.64,0,1.03-.65,1.03-1.27,0-.45-.23-.69-.67-.69-.27,0-.51.14-.71.4-.2.27-.3.57-.3.89,0,.41.25.67.65.67Z"/>
    <path class="cls-2" d="M102.25,125.86c0,.11-.03.25-.05.35l-.23.98c-.03.1-.04.17-.04.22,0,.09.03.16.12.16.02,0,.04,0,.06-.01l.07-.02-.06.32c-.06.03-.19.06-.26.06-.21,0-.34-.1-.34-.32,0-.02,0-.04,0-.05h-.01c-.21.27-.48.37-.87.37-.49,0-.79-.25-.79-.73,0-.26.09-.44.26-.58.17-.14.44-.22,1.05-.27.52-.03.65-.11.65-.41,0-.23-.21-.34-.52-.34-.37,0-.65.17-.7.47h-.43c.08-.53.52-.84,1.12-.84s.95.22.95.66ZM101.7,126.52c-.1.07-.27.11-.51.13-.36.03-.59.08-.72.16-.12.08-.19.2-.19.35,0,.23.21.36.47.36.38,0,.61-.15.75-.37.07-.11.14-.32.2-.64h0Z"/>
    <path class="cls-2" d="M104.4,125.2l-.1.46s-.04,0-.1,0c-.4,0-.55.11-.77.37-.11.12-.21.35-.28.69l-.25,1.15h-.43l.54-2.59h.4l-.13.56h.01c.28-.45.55-.62,1.01-.62.04,0,.07,0,.08,0Z"/>
    <path class="cls-2" d="M105.46,124.49l-.16.77h.52l-.08.38h-.52l-.31,1.51c-.01.07-.02.12-.02.19,0,.12.1.17.26.17.07,0,.15,0,.25-.04l-.08.39c-.11.02-.2.03-.3.03-.4,0-.58-.15-.58-.42,0-.05.01-.16.03-.24l.34-1.59h-.44l.08-.38h.44l.16-.77h.43Z"/>
    <path class="cls-2" d="M107.97,126.02h-.43v-.04c0-.22-.22-.4-.54-.4s-.55.11-.55.33c0,.15.1.25.51.41.38.15.62.28.71.39.09.11.15.25.15.4,0,.51-.46.8-1.06.8-.69,0-1.04-.28-1.04-.88h.43v.04c0,.3.24.46.66.46.35,0,.59-.13.59-.4,0-.12-.09-.22-.27-.31-.18-.08-.32-.14-.44-.19-.49-.2-.66-.38-.66-.69,0-.45.44-.75.96-.75.57,0,.98.29.98.82Z"/>
    <path class="cls-2" d="M112.17,126.27c0,.86-.53,1.64-1.43,1.64-.65,0-1.09-.44-1.09-1.09,0-.82.53-1.62,1.45-1.62.71,0,1.08.39,1.08,1.07ZM110.79,127.53c.61,0,.96-.7.96-1.23,0-.43-.25-.73-.69-.73-.61,0-.99.66-.99,1.25,0,.46.27.71.71.71Z"/>
    <path class="cls-2" d="M114.3,124.27l-.07.36c-.14-.03-.15-.03-.2-.03-.22,0-.36.11-.42.32l-.08.33h.5l-.07.38h-.5l-.48,2.21h-.43l.48-2.21h-.44l.07-.38h.44c.14-.58.18-1.03.84-1.03.18,0,.29.02.35.04Z"/>
    <path class="cls-2" d="M115.96,125.26l.16,2.06h0l.93-2.06h.48l.12,2.06h.01l.98-2.06h.46l-1.34,2.59h-.45l-.13-2.01h-.01l-.93,2.01h-.45l-.31-2.59h.45Z"/>
    <path class="cls-2" d="M121.71,126.27c0,.86-.53,1.64-1.43,1.64-.65,0-1.09-.44-1.09-1.09,0-.82.53-1.62,1.45-1.62.71,0,1.08.39,1.08,1.07ZM120.32,127.53c.61,0,.96-.7.96-1.23,0-.43-.25-.73-.69-.73-.61,0-.99.66-.99,1.25,0,.46.28.71.71.71Z"/>
    <path class="cls-2" d="M123.86,125.2l-.1.46s-.04,0-.1,0c-.4,0-.55.11-.77.37-.11.12-.21.35-.28.69l-.25,1.15h-.43l.54-2.59h.4l-.13.56h.01c.28-.45.55-.62,1.01-.62.04,0,.07,0,.08,0Z"/>
    <path class="cls-2" d="M124.79,124.27l-.75,3.57h-.43l.75-3.57h.43Z"/>
    <path class="cls-2" d="M127.78,124.27l-.76,3.57h-.4l.09-.37h0c-.22.3-.47.43-.86.43-.63,0-1.02-.41-1.02-1.06,0-.83.57-1.65,1.44-1.65.41,0,.72.16.81.46h.01l.27-1.38h.42ZM125.92,127.53c.62,0,1.02-.7,1.02-1.29,0-.4-.25-.67-.66-.67-.65,0-1.02.67-1.02,1.27,0,.45.23.69.66.69Z"/>
    <path class="cls-2" d="M130.26,124.27l-.31,1.37h.01c.21-.28.54-.44.92-.44.49,0,.72.21.72.67,0,.11,0,.16-.08.51l-.31,1.48h-.43l.33-1.51c.02-.12.06-.37.06-.4,0-.22-.18-.36-.45-.36-.39,0-.82.34-.93.84l-.3,1.44h-.43l.76-3.57h.43Z"/>
    <path class="cls-2" d="M132.82,125.26l-.54,2.59h-.43l.54-2.59h.43ZM133.03,124.27l-.11.52h-.43l.11-.52h.43Z"/>
    <path class="cls-2" d="M135.19,126.02h-.43v-.04c0-.22-.22-.4-.54-.4s-.55.11-.55.33c0,.15.09.25.51.41.38.15.62.28.71.39.1.11.15.25.15.4,0,.51-.46.8-1.06.8-.69,0-1.04-.28-1.04-.88h.43v.04c0,.3.24.46.66.46.35,0,.59-.13.59-.4,0-.12-.09-.22-.27-.31-.18-.08-.32-.14-.44-.19-.49-.2-.66-.38-.66-.69,0-.45.44-.75.96-.75.57,0,.98.29.98.82Z"/>
    <path class="cls-2" d="M136.66,124.49l-.16.77h.52l-.08.38h-.52l-.31,1.51c-.01.07-.02.12-.02.19,0,.12.1.17.26.17.07,0,.15,0,.25-.04l-.08.39c-.11.02-.2.03-.3.03-.4,0-.58-.15-.58-.42,0-.05.01-.16.03-.24l.34-1.59h-.44l.08-.38h.44l.16-.77h.43Z"/>
    <path class="cls-2" d="M139.52,126.27c0,.86-.53,1.64-1.43,1.64-.65,0-1.09-.44-1.09-1.09,0-.82.53-1.62,1.45-1.62.71,0,1.08.39,1.08,1.07ZM138.13,127.53c.61,0,.96-.7.96-1.23,0-.43-.25-.73-.69-.73-.61,0-.99.66-.99,1.25,0,.46.28.71.71.71Z"/>
    <path class="cls-2" d="M141.67,125.2l-.1.46s-.04,0-.1,0c-.4,0-.55.11-.77.37-.11.12-.21.35-.28.69l-.25,1.15h-.43l.54-2.59h.4l-.13.56h.01c.28-.45.55-.62,1.01-.62.04,0,.07,0,.08,0Z"/>
    <path class="cls-2" d="M142.14,125.26l.3,2.06h.01l1.09-2.06h.47l-1.71,3.03s-.08.12-.17.24c-.17.25-.37.37-.67.37-.12,0-.26-.04-.3-.06l.08-.35c.08.04.17.07.25.07.17,0,.28-.08.37-.23l.3-.49-.46-2.59h.46Z"/>
    <path class="cls-2" d="M147.6,125.86c0,.11-.03.25-.05.35l-.23.98c-.02.1-.03.17-.03.22,0,.09.03.16.12.16.02,0,.04,0,.06-.01l.07-.02-.07.32c-.06.03-.19.06-.26.06-.21,0-.34-.1-.34-.32,0-.02,0-.04,0-.05h-.01c-.21.27-.48.37-.87.37-.49,0-.79-.25-.79-.73,0-.26.08-.44.26-.58.18-.14.44-.22,1.05-.27.52-.03.65-.11.65-.41,0-.23-.21-.34-.52-.34-.37,0-.65.17-.7.47h-.43c.08-.53.52-.84,1.12-.84s.95.22.95.66ZM147.05,126.52c-.1.07-.27.11-.51.13-.36.03-.59.08-.72.16-.12.08-.19.2-.19.35,0,.23.21.36.47.36.38,0,.61-.15.75-.37.07-.11.13-.32.2-.64h-.01Z"/>
    <path class="cls-2" d="M150.07,126.02h-.43v-.04c0-.22-.22-.4-.54-.4s-.55.11-.55.33c0,.15.1.25.51.41.38.15.62.28.71.39.09.11.15.25.15.4,0,.51-.46.8-1.06.8-.69,0-1.04-.28-1.04-.88h.43v.04c0,.3.24.46.66.46.35,0,.59-.13.59-.4,0-.12-.09-.22-.27-.31-.18-.08-.32-.14-.44-.19-.49-.2-.66-.38-.66-.69,0-.45.44-.75.96-.75.57,0,.98.29.98.82Z"/>
    <path class="cls-2" d="M152.6,125.26l-.54,2.59h-.43l.54-2.59h.43ZM152.81,124.27l-.11.52h-.43l.11-.52h.43Z"/>
    <path class="cls-2" d="M154.04,124.49l-.16.77h.52l-.08.38h-.52l-.31,1.51c-.01.07-.02.12-.02.19,0,.12.1.17.26.17.07,0,.15,0,.25-.04l-.08.39c-.11.02-.2.03-.3.03-.4,0-.58-.15-.58-.42,0-.05.01-.16.03-.24l.34-1.59h-.44l.08-.38h.44l.16-.77h.43Z"/>
    <path class="cls-2" d="M156.68,125.26l-.54,2.59h-.43l.54-2.59h.43ZM156.89,124.27l-.11.52h-.43l.11-.52h.43Z"/>
    <path class="cls-2" d="M159.23,125.66c.19-.27.54-.47.89-.47.44,0,.72.22.72.58,0,.14-.02.28-.07.52l-.33,1.55h-.43l.35-1.6c.05-.22.05-.3.05-.32,0-.21-.18-.36-.4-.36-.15,0-.29.05-.44.16-.3.21-.38.41-.46.77l-.29,1.35h-.43l.3-1.42c.07-.32.09-.46.09-.51,0-.21-.13-.34-.36-.34s-.43.12-.64.33c-.18.18-.21.29-.28.62l-.29,1.33h-.43l.55-2.59h.4l-.1.39h.01c.23-.29.56-.45.9-.45.37,0,.58.17.65.47Z"/>
    <path class="cls-2" d="M163.81,126.26c0,.8-.55,1.65-1.44,1.65-.39,0-.72-.16-.81-.46h0l-.28,1.39h-.42l.76-3.58h.4l-.09.37h0c.21-.29.45-.43.86-.43.63,0,1.02.41,1.02,1.06ZM162.36,127.53c.64,0,1.03-.65,1.03-1.27,0-.45-.23-.69-.67-.69-.27,0-.51.14-.71.4-.2.27-.3.57-.3.89,0,.41.25.67.65.67Z"/>
    <path class="cls-2" d="M166.4,125.86c0,.11-.03.25-.05.35l-.23.98c-.02.1-.03.17-.03.22,0,.09.03.16.12.16.02,0,.04,0,.06-.01l.07-.02-.07.32c-.06.03-.19.06-.26.06-.21,0-.34-.1-.34-.32,0-.02,0-.04,0-.05h-.01c-.21.27-.48.37-.87.37-.49,0-.79-.25-.79-.73,0-.26.08-.44.26-.58.18-.14.44-.22,1.05-.27.52-.03.65-.11.65-.41,0-.23-.21-.34-.52-.34-.37,0-.65.17-.7.47h-.43c.08-.53.52-.84,1.12-.84s.95.22.95.66ZM165.85,126.52c-.1.07-.27.11-.51.13-.36.03-.59.08-.72.16-.12.08-.19.2-.19.35,0,.23.21.36.47.36.38,0,.61-.15.75-.37.07-.11.13-.32.2-.64h-.01Z"/>
    <path class="cls-2" d="M169.17,126.08h-.43c0-.32-.21-.51-.55-.51-.63,0-1.01.6-1.01,1.22,0,.48.22.74.64.74.35,0,.63-.19.76-.53h.43c-.16.59-.59.91-1.18.91-.69,0-1.07-.4-1.07-1.12,0-.88.55-1.59,1.43-1.59.63,0,.95.31.97.88Z"/>
    <path class="cls-2" d="M170.62,124.49l-.16.77h.52l-.08.38h-.52l-.32,1.51c0,.07-.02.12-.02.19,0,.12.1.17.25.17.07,0,.15,0,.25-.04l-.07.39c-.11.02-.2.03-.3.03-.4,0-.58-.15-.58-.42,0-.05.02-.16.03-.24l.34-1.59h-.44l.08-.38h.44l.16-.77h.43Z"/>
    <path class="cls-2" d="M173.13,126.02h-.43v-.04c0-.22-.22-.4-.54-.4s-.55.11-.55.33c0,.15.1.25.51.41.38.15.62.28.71.39.09.11.15.25.15.4,0,.51-.46.8-1.06.8-.69,0-1.04-.28-1.04-.88h.43v.04c0,.3.24.46.66.46.35,0,.59-.13.59-.4,0-.12-.09-.22-.27-.31-.18-.08-.32-.14-.44-.19-.49-.2-.66-.38-.66-.69,0-.45.44-.75.96-.75.57,0,.98.29.98.82Z"/>
    <path class="cls-2" d="M175.99,124.49l-.16.77h.52l-.08.38h-.52l-.31,1.51c-.01.07-.02.12-.02.19,0,.12.1.17.26.17.07,0,.15,0,.25-.04l-.08.39c-.11.02-.2.03-.3.03-.4,0-.58-.15-.58-.42,0-.05.01-.16.03-.24l.34-1.59h-.44l.08-.38h.44l.16-.77h.43Z"/>
    <path class="cls-2" d="M177.45,124.27l-.31,1.37h.01c.21-.28.54-.44.92-.44.49,0,.72.21.72.67,0,.11,0,.16-.08.51l-.31,1.48h-.43l.33-1.51c.02-.12.06-.37.06-.4,0-.22-.18-.36-.45-.36-.39,0-.82.34-.93.84l-.3,1.44h-.43l.76-3.57h.43Z"/>
    <path class="cls-2" d="M181.55,126.34c0,.1-.03.29-.04.34h-1.95c-.01.08-.02.16-.02.22,0,.38.31.63.67.63s.62-.17.75-.5h.43c-.14.57-.6.87-1.17.87-.71,0-1.1-.42-1.1-1.05,0-.93.58-1.66,1.33-1.66s1.1.39,1.1,1.14ZM181.13,126.3s0-.05,0-.07c0-.4-.23-.66-.62-.66-.43,0-.73.24-.89.73h1.5Z"/>
    <path class="cls-2" d="M184.4,124.27l-.47,2.22c-.04.17-.04.25-.04.33,0,.47.29.71.89.71.48,0,.74-.18.89-.47.08-.14.16-.44.26-.89l.4-1.91h.48l-.45,2.14c-.08.38-.15.63-.22.77-.21.41-.63.75-1.36.75-.86,0-1.34-.38-1.34-1.12,0-.12,0-.19.08-.56l.42-1.99h.48Z"/>
    <path class="cls-2" d="M189.26,125.86c0,.11,0,.16-.08.51l-.31,1.48h-.43l.36-1.67c.03-.12.03-.21.03-.25,0-.22-.18-.36-.45-.36-.19,0-.39.08-.58.24-.19.16-.3.37-.35.59l-.31,1.45h-.43l.55-2.59h.41l-.08.39h.01c.21-.29.54-.45.92-.45.49,0,.72.21.72.67Z"/>
    <path class="cls-2" d="M190.48,125.26l-.54,2.59h-.43l.54-2.59h.43ZM190.69,124.27l-.11.52h-.43l.11-.52h.43Z"/>
    <path class="cls-2" d="M191.92,124.49l-.16.77h.52l-.08.38h-.52l-.31,1.51c-.01.07-.02.12-.02.19,0,.12.1.17.26.17.07,0,.15,0,.25-.04l-.08.39c-.11.02-.2.03-.3.03-.4,0-.58-.15-.58-.42,0-.05.01-.16.03-.24l.34-1.59h-.44l.08-.38h.44l.16-.77h.43Z"/>
    <path class="cls-2" d="M194.67,126.34c0,.1-.03.29-.04.34h-1.95c0,.08-.01.16-.01.22,0,.38.31.63.67.63s.62-.17.75-.5h.43c-.14.57-.6.87-1.17.87-.71,0-1.1-.42-1.1-1.05,0-.93.58-1.66,1.33-1.66s1.1.39,1.1,1.14ZM194.25,126.3s0-.05,0-.07c0-.4-.23-.66-.62-.66-.43,0-.73.24-.89.73h1.5Z"/>
    <path class="cls-2" d="M197.91,124.27l-.76,3.57h-.4l.09-.37h0c-.22.3-.47.43-.86.43-.63,0-1.02-.41-1.02-1.06,0-.83.57-1.65,1.44-1.65.41,0,.72.16.81.46h.01l.28-1.38h.42ZM196.05,127.53c.62,0,1.02-.7,1.02-1.29,0-.4-.25-.67-.66-.67-.65,0-1.02.67-1.02,1.27,0,.45.23.69.66.69Z"/>
    <path class="cls-2" d="M202.31,125.28v.05h-.48v-.04c0-.47-.25-.71-.82-.71-.41,0-.83.2-.83.58,0,.31.19.47.6.58l.46.12c.5.13.87.38.87.97,0,.73-.72,1.09-1.39,1.09-.89,0-1.41-.4-1.41-1.13,0-.04,0-.08,0-.13h.48v.06c0,.55.32.8.95.8.54,0,.9-.27.9-.69,0-.38-.33-.51-.64-.59l-.4-.1c-.59-.16-.89-.43-.89-.93,0-.7.68-1.04,1.31-1.04.77,0,1.29.4,1.29,1.09Z"/>
    <path class="cls-2" d="M203.7,124.49l-.16.77h.52l-.08.38h-.52l-.31,1.51c-.01.07-.02.12-.02.19,0,.12.1.17.26.17.07,0,.15,0,.25-.04l-.08.39c-.11.02-.2.03-.3.03-.4,0-.58-.15-.58-.42,0-.05.01-.16.03-.24l.34-1.59h-.44l.08-.38h.44l.16-.77h.43Z"/>
    <path class="cls-2" d="M206.34,125.86c0,.11-.03.25-.05.35l-.23.98c-.03.1-.04.17-.04.22,0,.09.03.16.12.16.02,0,.04,0,.06-.01l.07-.02-.06.32c-.06.03-.19.06-.26.06-.21,0-.34-.1-.34-.32,0-.02,0-.04,0-.05h-.01c-.21.27-.48.37-.87.37-.49,0-.79-.25-.79-.73,0-.26.09-.44.26-.58.17-.14.44-.22,1.05-.27.52-.03.65-.11.65-.41,0-.23-.21-.34-.52-.34-.37,0-.65.17-.7.47h-.43c.08-.53.52-.84,1.12-.84s.95.22.95.66ZM205.79,126.52c-.1.07-.27.11-.51.13-.36.03-.59.08-.72.16-.12.08-.19.2-.19.35,0,.23.21.36.47.36.38,0,.61-.15.75-.37.07-.11.14-.32.2-.64h0Z"/>
    <path class="cls-2" d="M207.87,124.49l-.16.77h.52l-.08.38h-.52l-.31,1.51c-.01.07-.02.12-.02.19,0,.12.1.17.26.17.07,0,.15,0,.25-.04l-.08.39c-.11.02-.2.03-.3.03-.4,0-.58-.15-.58-.42,0-.05.01-.16.03-.24l.34-1.59h-.44l.08-.38h.44l.16-.77h.43Z"/>
    <path class="cls-2" d="M210.63,126.34c0,.1-.03.29-.04.34h-1.95c0,.08-.01.16-.01.22,0,.38.31.63.67.63s.62-.17.75-.5h.43c-.14.57-.6.87-1.17.87-.71,0-1.1-.42-1.1-1.05,0-.93.58-1.66,1.33-1.66s1.1.39,1.1,1.14ZM210.2,126.3s0-.05,0-.07c0-.4-.23-.66-.62-.66-.43,0-.73.24-.89.73h1.5Z"/>
    <path class="cls-2" d="M213.04,126.02h-.43v-.04c0-.22-.22-.4-.54-.4s-.55.11-.55.33c0,.15.1.25.51.41.38.15.62.28.71.39.09.11.15.25.15.4,0,.51-.46.8-1.06.8-.69,0-1.04-.28-1.04-.88h.43v.04c0,.3.24.46.66.46.35,0,.59-.13.59-.4,0-.12-.09-.22-.27-.31-.18-.08-.32-.14-.44-.19-.49-.2-.66-.38-.66-.69,0-.45.44-.75.96-.75.57,0,.98.29.98.82Z"/>
    <path class="cls-2" d="M213.99,127.29l-.12.56h-.56l.12-.56h.56Z"/>
  </g>
</svg>