<svg viewBox="0 0 967 92" fill="none" xmlns="http://www.w3.org/2000/svg">
<path d="M11.2999 24.5001C11.2999 18.4001 11.2999 12.3001 11.2999 6.20007C11.2999 5.50007 11.2999 4.90007 11.2999 4.20007C11.3999 2.90007 11.9999 2.20007 13.2999 2.20007C15.3999 2.20007 17.5999 2.20007 19.6999 2.20007C20.7999 2.20007 21.0999 2.60007 21.1999 3.70007C21.1999 4.40007 21.1999 5.00007 21.1999 5.70007C21.1999 16.0001 21.1999 26.3001 21.1999 36.6001C21.1999 39.1001 21.5999 41.5001 21.5999 44.0001C21.5999 46.2001 21.0999 46.7001 18.7999 46.7001C17.2999 46.7001 15.7999 46.7001 14.2999 46.7001C11.5999 46.7001 11.0999 46.2001 11.0999 43.5001C11.0999 37.2001 11.0999 30.8001 11.0999 24.5001H11.2999Z" fill="#D93530"/>
<path d="M71.5 15.4C72.6 14.6 73.4999 14 74.1999 13.4C77.4999 10.3 80.8 7.30004 84 4.10004C85.3 2.80004 86.6999 2.20002 88.5999 2.30002C90.9999 2.30002 93.4 2.00002 95.8 1.90002C97.1 1.90002 98.3 2.20002 100 2.40002C99.3 3.20002 99 3.70004 98.5 4.20004C93.5 9.00004 88.4 13.8 83.4 18.6C82.2 19.7 81.1999 20.9 80.0999 22.1C78.8999 23.5 78.6999 24.6 79.6999 26.1C80.2999 27.1 81.1 28 82 28.8C85 31.7 88 34.5 91 37.4C93.3 39.6 95.2999 42.2 97.8999 44C98.4999 44.4 99.4 45 99 46.1C95.2 46.6 91.3 47 87.5 46.7C86.6 46.7 85.6999 46 85.0999 45.4C83.3999 44 81.8999 42.4 80.1999 40.9C78.3999 39.3 76.4999 37.6 74.5999 36.1C73.6999 35.3 72.6999 34.7 71.0999 35C70.8999 35.6 70.5 36.3 70.5 37C70.5 39.3 70.4999 41.6 70.6999 43.9C70.8999 45.9 70.2999 46.8 68.0999 46.8C65.9999 46.8 63.9 46.8 61.8 46.8C60.3 46.8 60 46.4 59.9 45C59.7 42 59.5 39.1 59.5 36.1C59.5 26.4 59.5 16.6 59.5 6.90002C59.5 6.70002 59.5 6.40004 59.5 6.20004C59.3 3.40004 60.6999 2.10002 63.6999 2.30002C64.9999 2.30002 66.2999 2.30002 67.5999 2.30002C69.7999 2.40002 70.3 3.00003 70.4 5.00003C70.4 6.90003 70.4 8.80004 70.4 10.7C70.4 12.2 71 13.5 71.4 15.3L71.5 15.4Z" fill="#D93530"/>
<path d="M115.1 20.4C113.8 22 113.9 23.9 113.8 25.6C113.8 28.1 114 30.7 114.1 33.2C114.1 37.1 114.2 41 114.2 44.8C114.2 46.2 113.8 46.6 112.5 46.6C110.4 46.6 108.2 46.6 106 46.6C104.7 46.6 104.2 46.2 103.9 44.9C103.8 44.4 103.8 43.8 103.8 43.2C103.8 30.8 103.8 18.5 103.8 6.10001C103.8 2.50001 104.3 2 108 2C113.8 2 112.7 1.60001 116.6 5.60001C122.4 11.5 128.1 17.4 133.9 23.3C135.3 24.7 136.8 26 138.6 26.8C140.2 27.5 140.9 27.2 141.3 25.6C141.5 24.9 141.5 24.1 141.5 23.4C141.5 17.9 141.5 12.3 141.5 6.79999C141.5 6.29999 141.5 5.79999 141.5 5.29999C141.6 2.99999 142.4 2.2 144.7 2C146.2 2 147.7 2 149.2 2C151.2 2 151.8 2.70001 151.9 4.70001C151.9 6.80001 151.9 8.8 151.9 10.9C151.9 14.8 151.9 18.7 151.9 22.5C151.9 26 151.5 29.6 151.6 33.1C151.6 36.2 151.9 39.3 152 42.4C152 43 152 43.6 152 44.1C152 46.2 151.8 46.4 149.8 46.4C148 46.4 146.2 46.4 144.3 46.4C143 46.4 141.9 46 141 45.1C133.8 37.9 126.6 30.8 119.5 23.5C118.5 22.5 117.7 21.2 116.3 20.5C116 20.3 115.6 20.2 115.1 20.1V20.4Z" fill="#D93530"/>
<path d="M184 46.6C179.7 47 175.7 46 171.6 44.8C170.1 44.3 168.9 43.7 167.8 42.5C167.2 41.9 166.5 41.4 165.9 40.9C165.3 40.4 164.7 39.9 164.3 39.3C159.7 33.5 157.6 26.9 159.1 19.4C159.2 18.8 159.1 18.2 159.2 17.6C159.5 15.5 159.9 13.4 161.6 11.9C162.3 11.3 162.6 10.1 163.2 9.40003C165 7.30003 167 5.40005 169.5 4.10005C173 2.30005 176.5 0.800034 180.5 0.900034C181.8 0.900034 183.1 0.40004 184.4 0.50004C188.2 0.90004 192.1 1.00004 195.8 2.50004C198 3.40004 199.8 4.90005 201.7 6.20005C204 7.70005 205.4 10 206.3 12.6C206.5 13.2 206.7 13.7001 207 14.2001C209.8 18.3001 209.4 22.9 209.2 27.5C209.2 28.7 208.3 29.8 207.8 31C207.3 32.2 206.7 33.3 206.3 34.5C205.3 37.3 203.6 39.4 201.4 41.3C196.8 45.4 191.4 46.6 185.6 46.6C185 46.6 184.4 46.6 183.9 46.6H184ZM184.1 9.70005C179.5 9.70005 176.3 10.5 173.4 14.3C173 14.8 172.6 15.2 172.2 15.6C171 16.6 170.4 18 169.9 19.5C168.7 23.5 168.8 27.5 170.9 31.1C173.9 36 178.4 38.5 184.1 38.6C186.1 38.6 188 37.8 189.8 37.3C192.6 36.5 194.6 34.7 195.8 32C196.7 30.2 197.2 28.2 198.1 26.4C199 24.4 199.1 22.5 198.1 20.5C197.9 20.1 197.7 19.7 197.6 19.3C196.1 14 189.5 9.20003 184.1 9.80003V9.70005Z" fill="#D93530"/>
<path d="M252.5 28.2C254 26.9 254.6 25.4 255.2 23.7C257.2 17.8 259.2 11.9 261.1 5.99999C262.3 2.49999 262.7 2.2 266.4 2.1C267.2 2.1 268.1 2.1 268.9 2.2C270.5 2.6 270.9 3.29998 270.4 4.89998C269.7 7.19998 268.9 9.59998 268.1 11.9C265 21.5 262 31.1 258.9 40.7C258.5 41.9 258.2 43.2 257.8 44.5C257.2 46.4 256.1 47.1 254.1 47.1C252.7 47.1 251.3 46.9 249.9 46.6C249.5 46.6 249.1 46.3 248.9 46C248.3 45.1 247.6 44.3 247.3 43.3C246.4 40.4 245.6 37.5 244.8 34.6C244.5 33.6 244.2 32.6 243.8 31.6C243.6 31.1 243.2 30.6 242.8 30.3C241.3 29 240.5 29 239.4 30.6C238.9 31.3 238.4 32.2 238.1 33C236.8 36.7 235.6 40.5 234.4 44.2C233.7 46.5 232.9 47.1 230.5 47.1C229 47.1 227.4 46.9 225.7 46.8C224.7 44.1 223.6 41.6 222.8 39.1C220.8 32.9 218.8 26.6 216.8 20.4C215 14.7 213.1 8.99998 211.2 3.29998C211.2 3.09998 211.2 2.79999 211.2 2.49999C212.8 1.19999 214.6 1.79998 216.4 1.79998C217.1 1.79998 217.9 2.1 218.6 2.1C220.2 2.1 221.2 2.99999 221.6 4.49999C223.1 9.29999 224.5 14.1 226.1 18.8C227.1 21.7 228.3 24.6 229.4 27.5C229.4 27.6 229.7 27.7 229.9 27.9C231.4 27.3 231.9 25.8 232.4 24.5C233 23.1 233.4 21.6 233.9 20.1C235.4 15.2 236.8 10.2 238.2 5.2C238.3 4.7 238.5 4.19998 238.7 3.79998C239.3 2.49998 240.4 2 242 2.2C243.3 2.3 244.1 2.99998 244.4 4.29998C245.2 7.49998 246 10.6 246.9 13.8C247.9 17.3 248.9 20.7 249.9 24.2C250.4 25.8 251.1 27.3 252.7 28.4L252.5 28.2Z" fill="#D93530"/>
<path d="M340.6 28.2C342.1 26.9 342.7 25.4 343.3 23.7C345.3 17.8 347.3 11.9 349.2 5.99999C350.4 2.49999 350.8 2.2 354.5 2.1C355.3 2.1 356.2 2.1 357 2.2C358.6 2.6 359 3.29998 358.5 4.89998C357.8 7.19998 357 9.59998 356.2 11.9C353.1 21.5 350.1 31.1 347 40.7C346.6 41.9 346.3 43.2 345.9 44.5C345.3 46.4 344.2 47.1 342.2 47.1C340.8 47.1 339.4 46.9 338 46.6C337.6 46.6 337.2 46.3 337 46C336.4 45.1 335.7 44.3 335.4 43.3C334.5 40.4 333.7 37.5 332.9 34.6C332.6 33.6 332.3 32.6 331.9 31.6C331.7 31.1 331.3 30.6 330.9 30.3C329.4 29 328.6 29 327.5 30.6C327 31.3 326.5 32.2 326.2 33C324.9 36.7 323.7 40.5 322.5 44.2C321.8 46.5 321 47.1 318.6 47.1C317.1 47.1 315.5 46.9 313.8 46.8C312.8 44.1 311.7 41.6 310.9 39.1C308.9 32.9 306.9 26.6 304.9 20.4C303.1 14.7 301.2 8.99998 299.3 3.29998C299.3 3.09998 299.3 2.79999 299.3 2.49999C300.9 1.19999 302.7 1.79998 304.5 1.79998C305.2 1.79998 306 2.1 306.7 2.1C308.3 2.1 309.3 2.99999 309.7 4.49999C311.2 9.29999 312.6 14.1 314.2 18.8C315.2 21.7 316.4 24.6 317.5 27.5C317.5 27.6 317.8 27.7 318 27.9C319.5 27.3 320 25.8 320.5 24.5C321.1 23.1 321.5 21.6 322 20.1C323.5 15.2 324.9 10.2 326.3 5.2C326.4 4.7 326.6 4.19998 326.8 3.79998C327.4 2.49998 328.5 2 330.1 2.2C331.4 2.3 332.2 2.99998 332.5 4.29998C333.3 7.49998 334.1 10.6 335 13.8C336 17.3 337 20.7 338 24.2C338.5 25.8 339.2 27.3 340.8 28.4L340.6 28.2Z" fill="#D93530"/>
<path d="M364.8 1.90009C367.7 0.700093 370.3 1.30011 372.9 1.20011C373.3 1.20011 374 1.80011 374.1 2.20011C374.4 3.40011 374.6 4.60009 374.6 5.80009C374.6 10.3001 374.6 14.7001 374.6 19.2001C374.6 19.7001 374.6 20.2001 374.6 20.7001C374.6 22.1001 374.9 22.3001 376.4 22.4001H376.6C381.8 22.4001 387 22.4001 392.2 22.4001C394.7 22.4001 395.5 21.7001 396 19.2001C396.2 18.4001 396.3 17.6001 396.3 16.8001C396.3 12.9001 396.3 9.00011 396.3 5.20011C396.3 2.80011 397.3 1.80011 399.8 1.70011C401 1.70011 402.1 1.70011 403.3 1.70011C405.1 1.70011 406 2.50009 406.4 4.30009C406.6 5.30009 406.8 6.4001 406.8 7.5001C406.8 14.3001 406.8 21.0001 406.8 27.8001C406.8 28.6001 406.6 29.4001 406.6 30.2001C406.6 31.0001 406.4 31.9001 406.6 32.7001C407.3 37.0001 406.8 41.3001 407 45.5001C407 47.0001 406.7 47.3001 405.1 47.4001C403.1 47.4001 401.1 47.4001 399.1 47.4001C397.4 47.4001 396.8 46.8001 396.6 45.1001C396.6 44.1001 396.6 43.1001 396.6 42.1001C396.6 39.7001 396.6 37.3001 396.6 34.9001C396.6 33.5001 396.3 32.1001 395 31.2001C394.5 30.8001 393.8 30.5001 393.2 30.5001C389.6 30.5001 386 29.5001 382.4 30.3001C381.1 30.6001 379.6 30.5001 378.2 30.4001C375.1 30.3001 374.2 32.1001 374.4 34.6001C374.6 37.7001 374.7 40.8001 374.9 43.9001C374.9 44.3001 374.9 44.7001 374.9 45.1001C374.9 46.9001 374.6 47.2001 372.7 47.2001C370.8 47.2001 368.9 47.2001 367 47.2001C365.3 47.2001 364.7 46.6001 364.5 44.9001C364.5 44.6001 364.5 44.2001 364.5 43.9001C364.5 31.2001 364.5 18.5001 364.5 5.80009C364.5 4.50009 364.8 3.20009 365 1.90009H364.8Z" fill="#D93530"/>
<path d="M443.6 20.4001C444.6 23.3001 444.4 26.0001 443.7 28.8001C442.7 28.8001 441.9 28.8001 441.1 28.9001C436.5 29.0001 431.9 29.2001 427.3 29.3001C425.3 29.3001 424.5 30.0001 424 32.0001C423.1 35.4001 424.9 37.7001 428.4 37.7001C429.1 37.7001 429.7 37.7001 430.4 37.7001C436.6 37.7001 442.8 37.7001 449 37.7001C450.1 37.7001 451.2 37.7001 452.2 37.7001C453.3 37.7001 453.6 38.1001 453.7 39.3001C453.9 41.3001 453.5 43.2001 452.8 45.1001C452.5 46.0001 451.9 46.4001 451.1 46.6001C450.6 46.6001 450.1 46.6001 449.6 46.6001C439 46.6001 428.4 46.6001 417.8 46.6001C416.7 46.6001 415.5 46.8001 414.3 45.6001C414.3 44.2001 414.3 42.6001 414.3 40.9001C414.3 38.9001 414 37.0001 414 35.0001C414 33.5001 414.1 32.1001 414.2 30.6001C414.2 29.7001 414.2 28.8001 414.2 27.9001C414.2 25.4001 413.7 22.9001 414.1 20.5001C414.4 18.3001 414.4 16.1001 414.3 13.9001C414.3 11.2001 414.1 8.50008 414 5.80008C414 5.20008 414.1 4.50009 414.3 3.90009C414.6 2.80009 415.4 2.1001 416.7 2.1001C417.4 2.1001 418 2.1001 418.7 2.1001C429.1 2.1001 439.6 2.1001 450 2.1001C450.4 2.1001 450.8 2.1001 451.2 2.1001C452.4 2.2001 453.1 2.70009 453.2 3.90009C453.3 5.80009 453.3 7.7001 453.2 9.6001C453.2 10.6001 452.7 11.0001 451.6 11.0001C450.9 11.0001 450.3 11.0001 449.6 11.0001C442.9 11.0001 436.2 11.0001 429.5 11.0001C428.4 11.0001 427.4 11.3001 426.3 11.5001C426.1 11.5001 425.8 11.6001 425.6 11.7001C424.3 12.2001 423.5 14.8001 424 17.1001C424.4 19.1001 425.4 19.8001 427.4 20.0001C431.9 20.5001 436.5 20.4001 441 20.4001C441.8 20.4001 442.6 20.4001 443.6 20.4001Z" fill="#D93530"/>
<path d="M509 45.8C508.6 46 508.4 46.1 508.2 46.1C505.2 46.3 502.1 46.3 499.1 46.6C496.7 46.8 494.8 45.9 493.1 44.3C490.4 41.8 487.6 39.3 485 36.7C482.9 34.6 480.6 33.7 477.7 33.7C476.4 33.7 475.1 33.7 473.7 33.7C471.4 33.7 470.4 34.8 470.3 37C470.3 38.2 470.1 39.4 470.4 40.4C470.9 41.9 470.4 43.3 470.2 44.8C470.1 45.9 469.4 46.5 468.2 46.5C466.3 46.5 464.4 46.5 462.5 46.5C461.3 46.5 460.9 46.1 460.8 44.9C460.6 42.8 460.4 40.6 460.4 38.5C460.4 27.8 460.4 17 460.4 6.29999C460.4 3.19999 460.8 2 464.8 2C471.3 2 477.9 2 484.4 2C487 2 489.7 2.1 492.3 2.5C494.7 2.9 496.9 3.80001 498.9 5.20001C503.4 8.40001 505.9 12.5 505.7 18.1C505.7 18.7 505.7 19.3 505.7 19.8C505.9 23.1 504.6 25.9 502.3 28.2C501.3 29.3 500.4 30.4 499.4 31.6C498.4 32.9 498.3 33.9 499.3 35.2C500.7 36.9 502.1 38.6 503.7 40.2C505.2 41.7 507 42.9 508.6 44.4C508.9 44.7 509 45.2 509.2 45.7L509 45.8ZM470.6 12.1C470.6 15 470.6 17.7 470.6 20.4C470.5 22.9 471.9 24.5 474.7 24.4C476.7 24.3 478.7 24.2 480.7 24.4C483.4 24.8 486.1 24.2 488.8 24.2C490.3 24.2 491.9 23.6 493.3 23.1C495 22.5 496 21.2 496 19.4C496 18.8 496 18.2 496 17.7C496.1 14.7 494.3 12 490.9 11.5C489 11.2 487.1 11.3 485.3 10.9C481.5 10.1 477.7 10.9 474 11.1C472.9 11.1 471.8 11.8 470.6 12.1Z" fill="#D93530"/>
<path d="M544.1 20.4001C545.1 23.3001 544.9 26.0001 544.2 28.8001C543.2 28.8001 542.4 28.8001 541.6 28.9001C537 29.0001 532.4 29.2001 527.8 29.3001C525.8 29.3001 525 30.0001 524.5 32.0001C523.6 35.4001 525.4 37.7001 528.9 37.7001C529.6 37.7001 530.2 37.7001 530.9 37.7001C537.1 37.7001 543.3 37.7001 549.5 37.7001C550.6 37.7001 551.7 37.7001 552.7 37.7001C553.8 37.7001 554.1 38.1001 554.2 39.3001C554.4 41.3001 554 43.2001 553.3 45.1001C553 46.0001 552.4 46.4001 551.6 46.6001C551.1 46.6001 550.6 46.6001 550.1 46.6001C539.5 46.6001 528.9 46.6001 518.3 46.6001C517.2 46.6001 516 46.8001 514.8 45.6001C514.8 44.2001 514.8 42.6001 514.8 40.9001C514.8 38.9001 514.5 37.0001 514.5 35.0001C514.5 33.5001 514.6 32.1001 514.7 30.6001C514.7 29.7001 514.7 28.8001 514.7 27.9001C514.7 25.4001 514.2 22.9001 514.6 20.5001C514.9 18.3001 514.9 16.1001 514.8 13.9001C514.8 11.2001 514.6 8.50008 514.5 5.80008C514.5 5.20008 514.6 4.50009 514.8 3.90009C515.1 2.80009 515.9 2.1001 517.2 2.1001C517.9 2.1001 518.5 2.1001 519.2 2.1001C529.6 2.1001 540.1 2.1001 550.5 2.1001C550.9 2.1001 551.3 2.1001 551.7 2.1001C552.9 2.2001 553.6 2.70009 553.7 3.90009C553.8 5.80009 553.8 7.7001 553.7 9.6001C553.7 10.6001 553.2 11.0001 552.1 11.0001C551.4 11.0001 550.8 11.0001 550.1 11.0001C543.4 11.0001 536.7 11.0001 530 11.0001C528.9 11.0001 527.9 11.3001 526.8 11.5001C526.6 11.5001 526.3 11.6001 526.1 11.7001C524.8 12.2001 524 14.8001 524.5 17.1001C524.9 19.1001 525.9 19.8001 527.9 20.0001C532.4 20.5001 537 20.4001 541.5 20.4001C542.3 20.4001 543.1 20.4001 544.1 20.4001Z" fill="#D93530"/>
<path d="M583.3 24.5001C583.3 18.4001 583.3 12.3001 583.3 6.20007C583.3 5.50007 583.3 4.90007 583.3 4.20007C583.4 2.90007 584 2.20007 585.3 2.20007C587.4 2.20007 589.6 2.20007 591.7 2.20007C592.8 2.20007 593.1 2.60007 593.2 3.70007C593.2 4.40007 593.2 5.00007 593.2 5.70007C593.2 16.0001 593.2 26.3001 593.2 36.6001C593.2 39.1001 593.6 41.5001 593.6 44.0001C593.6 46.2001 593.1 46.7001 590.8 46.7001C589.3 46.7001 587.8 46.7001 586.3 46.7001C583.6 46.7001 583.1 46.2001 583.1 43.5001C583.1 37.2001 583.1 30.8001 583.1 24.5001H583.3Z" fill="#D93530"/>
<path d="M603.1 6.00006C603.1 5.30006 603.1 4.60005 603.1 3.90005C603.1 3.40005 603.2 2.90005 603.4 2.40005C603.6 2.10005 604 1.70007 604.3 1.70007C605.5 1.70007 606.6 1.70007 607.8 1.70007C608.9 1.90007 609.1 2.20005 609.3 3.40005C609.6 5.40005 609.7 7.40005 609.3 9.40005C609.1 10.5001 609 10.6001 607.8 10.6001C607 10.6001 606.1 10.6001 605.3 10.6001C604 10.6001 603.2 9.70005 603.1 8.40005C603.1 7.60005 603.1 6.80006 603.1 6.00006Z" fill="#D93530"/>
<path d="M615.4 2.00009C616.6 1.80009 617.8 1.6001 619.1 1.6001C621 1.6001 622.9 1.80009 624.8 2.00009C626 2.00009 626.7 2.80008 627.2 3.80008C628.7 7.00008 630.2 10.2001 631.7 13.4001C632.3 14.7001 632.9 15.9001 633.4 17.2001C635.1 20.9001 636.8 24.5001 638.4 28.2001C638.7 28.9001 639 29.6001 639.4 30.2001C640.7 32.1001 642.5 32.1001 643.6 30.1001C645 27.5001 646.2 24.8001 647.5 22.1001C647.6 21.9001 647.7 21.6001 647.8 21.4001C650.2 16.0001 652.7 10.6001 655.1 5.2001C655.4 4.6001 655.6 4.00009 656 3.50009C656.3 3.10009 656.8 2.6001 657.3 2.6001C659.7 2.4001 662.1 2.2001 664.4 2.1001C664.6 2.1001 664.9 2.1001 665.1 2.1001C666.4 2.3001 667 3.4001 666.5 4.6001C665.4 7.1001 664.3 9.60009 663.1 12.0001C659.8 18.3001 657.2 25.0001 654.3 31.5001C652.3 36.0001 650.1 40.4001 648.1 44.9001C647.4 46.5001 646.3 47.1001 644.6 47.0001C642 46.8001 639.3 46.7001 636.7 46.6001C635.7 46.6001 635.2 46.0001 634.9 45.2001C633.6 42.4001 632.2 39.6001 630.9 36.7001C629.3 33.2001 627.9 29.6001 626.2 26.1001C623.4 20.0001 620.5 13.9001 617.6 7.80008C617.1 6.80008 616.5 5.80009 615.8 4.90009C615.2 4.10009 615 3.30009 615.3 2.00009H615.4Z" fill="#D93530"/>
<path d="M699.9 20.4001C700.9 23.3001 700.7 26.0001 700 28.8001C699 28.8001 698.2 28.8001 697.4 28.9001C692.8 29.0001 688.2 29.2001 683.6 29.3001C681.6 29.3001 680.8 30.0001 680.3 32.0001C679.4 35.4001 681.2 37.7001 684.7 37.7001C685.4 37.7001 686 37.7001 686.7 37.7001C692.9 37.7001 699.1 37.7001 705.3 37.7001C706.4 37.7001 707.5 37.7001 708.5 37.7001C709.6 37.7001 709.9 38.1001 710 39.3001C710.2 41.3001 709.8 43.2001 709.1 45.1001C708.8 46.0001 708.2 46.4001 707.4 46.6001C706.9 46.6001 706.4 46.6001 705.9 46.6001C695.3 46.6001 684.7 46.6001 674.1 46.6001C673 46.6001 671.8 46.8001 670.6 45.6001C670.6 44.2001 670.6 42.6001 670.6 40.9001C670.6 38.9001 670.3 37.0001 670.3 35.0001C670.3 33.5001 670.4 32.1001 670.5 30.6001C670.5 29.7001 670.5 28.8001 670.5 27.9001C670.5 25.4001 670 22.9001 670.4 20.5001C670.7 18.3001 670.7 16.1001 670.6 13.9001C670.6 11.2001 670.4 8.50008 670.3 5.80008C670.3 5.20008 670.4 4.50009 670.6 3.90009C670.9 2.80009 671.7 2.1001 673 2.1001C673.7 2.1001 674.3 2.1001 675 2.1001C685.4 2.1001 695.9 2.1001 706.3 2.1001C706.7 2.1001 707.1 2.1001 707.5 2.1001C708.7 2.2001 709.4 2.70009 709.5 3.90009C709.6 5.80009 709.6 7.7001 709.5 9.6001C709.5 10.6001 709 11.0001 707.9 11.0001C707.2 11.0001 706.6 11.0001 705.9 11.0001C699.2 11.0001 692.5 11.0001 685.8 11.0001C684.7 11.0001 683.7 11.3001 682.6 11.5001C682.4 11.5001 682.1 11.6001 681.9 11.7001C680.6 12.2001 679.8 14.8001 680.3 17.1001C680.7 19.1001 681.7 19.8001 683.7 20.0001C688.2 20.5001 692.8 20.4001 697.3 20.4001C698.1 20.4001 698.9 20.4001 699.9 20.4001Z" fill="#D93530"/>
<path d="M743.6 45.7C743.5 42.4 743.3 39 743.3 35.5C743.3 25.6 743.3 15.7 743.3 5.79996C743.3 5.19996 743.3 4.59998 743.3 4.09998C743.4 2.99998 744.4 1.99996 745.5 1.79996C745.7 1.79996 745.8 1.79996 746 1.79996C750.4 1.59996 754.8 1.19997 759.1 1.39997C764.1 1.59997 769.1 1.79999 774 3.19999C776 3.79999 777.9 4.59999 779.3 6.19999C780.5 7.59999 781.8 8.99999 782.7 10.7C784.1 13.2 783.2 19.6 781.4 22C780.9 22.6 780.5 23.3 780 24.1C780.5 24.9 780.9 25.6 781.4 26.2C785.6 31.2 785.4 36.6 782.7 42.1C781.4 44.8 779 46.2 776 46.4C772.4 46.7 768.8 47.2 765.2 47.3C761.7 47.3 758.3 47.1 754.8 47C752.2 47 749.7 47 747.1 47C746 47 744.9 47 743.7 45.9L743.6 45.7ZM753.6 19.4C754.5 19.6 755.4 19.9 756.2 19.9C759.3 19.9 762.3 20 765.4 19.9C767 19.9 768.7 19.6 770.3 19.2C771.1 19 771.9 18.7 772.5 18.1C775.2 15.6 773.9 11.7 771.6 10.5C770.5 9.89997 769.1 9.59997 767.8 9.49997C764.8 9.29997 761.9 9.19999 758.9 9.19999C758 9.19999 757.1 9.29997 756.2 9.49997C754.5 9.89997 753.7 10.9 753.6 12.6C753.6 14.7 753.6 16.9 753.6 19.3V19.4ZM762.1 39.5C762.1 39.5 762.1 39.4 762.1 39.3C763.2 39.3 764.3 39.4 765.3 39.3C767.3 39 769.4 38.7 771.3 38.2C773.3 37.6 774.2 36.1 774.3 33.9C774.3 31.8 773.1 30.1 771 29.6C769.2 29.1 767.3 28.7 765.4 28.7C762.3 28.7 759.1 28.9 756 29.1C754.3 29.2 753.5 30.1 753.5 31.8C753.5 33.5 753.9 34.7 753.8 36.2C753.8 38 754.8 38.8 756.3 39C758.2 39.3 760 39.4 761.9 39.7L762.1 39.5Z" fill="#D93530"/>
<path d="M818.8 20.4001C819.8 23.3001 819.6 26.0001 818.9 28.8001C817.9 28.8001 817.1 28.8001 816.3 28.9001C811.7 29.0001 807.1 29.2001 802.5 29.3001C800.5 29.3001 799.7 30.0001 799.2 32.0001C798.3 35.4001 800.1 37.7001 803.6 37.7001C804.3 37.7001 804.9 37.7001 805.6 37.7001C811.8 37.7001 818 37.7001 824.2 37.7001C825.3 37.7001 826.4 37.7001 827.4 37.7001C828.5 37.7001 828.8 38.1001 828.9 39.3001C829.1 41.3001 828.7 43.2001 828 45.1001C827.7 46.0001 827.1 46.4001 826.3 46.6001C825.8 46.6001 825.3 46.6001 824.8 46.6001C814.2 46.6001 803.6 46.6001 793 46.6001C791.9 46.6001 790.7 46.8001 789.5 45.6001C789.5 44.2001 789.5 42.6001 789.5 40.9001C789.5 38.9001 789.2 37.0001 789.2 35.0001C789.2 33.5001 789.3 32.1001 789.4 30.6001C789.4 29.7001 789.4 28.8001 789.4 27.9001C789.4 25.4001 788.9 22.9001 789.3 20.5001C789.6 18.3001 789.6 16.1001 789.5 13.9001C789.5 11.2001 789.3 8.50008 789.2 5.80008C789.2 5.20008 789.3 4.50009 789.5 3.90009C789.8 2.80009 790.6 2.1001 791.9 2.1001C792.6 2.1001 793.2 2.1001 793.9 2.1001C804.3 2.1001 814.8 2.1001 825.2 2.1001C825.6 2.1001 826 2.1001 826.4 2.1001C827.6 2.2001 828.3 2.70009 828.4 3.90009C828.5 5.80009 828.5 7.7001 828.4 9.6001C828.4 10.6001 827.9 11.0001 826.8 11.0001C826.1 11.0001 825.5 11.0001 824.8 11.0001C818.1 11.0001 811.4 11.0001 804.7 11.0001C803.6 11.0001 802.6 11.3001 801.5 11.5001C801.3 11.5001 801 11.6001 800.8 11.7001C799.5 12.2001 798.7 14.8001 799.2 17.1001C799.6 19.1001 800.6 19.8001 802.6 20.0001C807.1 20.5001 811.7 20.4001 816.2 20.4001C817 20.4001 817.8 20.4001 818.8 20.4001Z" fill="#D93530"/>
<path d="M863.4 20.4001C864.4 23.3001 864.2 26.0001 863.5 28.8001C862.5 28.8001 861.7 28.8001 860.9 28.9001C856.3 29.0001 851.7 29.2001 847.1 29.3001C845.1 29.3001 844.3 30.0001 843.8 32.0001C842.9 35.4001 844.7 37.7001 848.2 37.7001C848.9 37.7001 849.5 37.7001 850.2 37.7001C856.4 37.7001 862.6 37.7001 868.8 37.7001C869.9 37.7001 871 37.7001 872 37.7001C873.1 37.7001 873.4 38.1001 873.5 39.3001C873.7 41.3001 873.3 43.2001 872.6 45.1001C872.3 46.0001 871.7 46.4001 870.9 46.6001C870.4 46.6001 869.9 46.6001 869.4 46.6001C858.8 46.6001 848.2 46.6001 837.6 46.6001C836.5 46.6001 835.3 46.8001 834.1 45.6001C834.1 44.2001 834.1 42.6001 834.1 40.9001C834.1 38.9001 833.8 37.0001 833.8 35.0001C833.8 33.5001 833.9 32.1001 834 30.6001C834 29.7001 834 28.8001 834 27.9001C834 25.4001 833.5 22.9001 833.9 20.5001C834.2 18.3001 834.2 16.1001 834.1 13.9001C834.1 11.2001 833.9 8.50008 833.8 5.80008C833.8 5.20008 833.9 4.50009 834.1 3.90009C834.4 2.80009 835.2 2.1001 836.5 2.1001C837.2 2.1001 837.8 2.1001 838.5 2.1001C848.9 2.1001 859.4 2.1001 869.8 2.1001C870.2 2.1001 870.6 2.1001 871 2.1001C872.2 2.2001 872.9 2.70009 873 3.90009C873.1 5.80009 873.1 7.7001 873 9.6001C873 10.6001 872.5 11.0001 871.4 11.0001C870.7 11.0001 870.1 11.0001 869.4 11.0001C862.7 11.0001 856 11.0001 849.3 11.0001C848.2 11.0001 847.2 11.3001 846.1 11.5001C845.9 11.5001 845.6 11.6001 845.4 11.7001C844.1 12.2001 843.3 14.8001 843.8 17.1001C844.2 19.1001 845.2 19.8001 847.2 20.0001C851.7 20.5001 856.3 20.4001 860.8 20.4001C861.6 20.4001 862.4 20.4001 863.4 20.4001Z" fill="#D93530"/>
<path d="M890 20.4C888.7 22 888.8 23.9 888.7 25.6C888.7 28.1 888.9 30.7 889 33.2C889 37.1 889.1 41 889.1 44.8C889.1 46.2 888.7 46.6 887.4 46.6C885.3 46.6 883.1 46.6 880.9 46.6C879.6 46.6 879.1 46.2 878.8 44.9C878.7 44.4 878.7 43.8 878.7 43.2C878.7 30.8 878.7 18.5 878.7 6.10001C878.7 2.50001 879.2 2 882.9 2C888.7 2 887.6 1.60001 891.5 5.60001C897.3 11.5 903 17.4 908.8 23.3C910.2 24.7 911.7 26 913.5 26.8C915.1 27.5 915.8 27.2 916.2 25.6C916.4 24.9 916.4 24.1 916.4 23.4C916.4 17.9 916.4 12.3 916.4 6.79999C916.4 6.29999 916.4 5.79999 916.4 5.29999C916.5 2.99999 917.3 2.2 919.6 2C921.1 2 922.6 2 924.1 2C926.1 2 926.7 2.70001 926.8 4.70001C926.8 6.80001 926.8 8.8 926.8 10.9C926.8 14.8 926.8 18.7 926.8 22.5C926.8 26 926.4 29.6 926.5 33.1C926.5 36.2 926.8 39.3 926.9 42.4C926.9 43 926.9 43.6 926.9 44.1C926.9 46.2 926.7 46.4 924.7 46.4C922.9 46.4 921.1 46.4 919.2 46.4C917.9 46.4 916.8 46 915.9 45.1C908.7 37.9 901.5 30.8 894.4 23.5C893.4 22.5 892.6 21.2 891.2 20.5C890.9 20.3 890.5 20.2 890 20.1V20.4Z" fill="#D93530"/>
<path d="M41.1998 90.7001C40.0998 91.5001 38.7998 91.1001 37.4998 91.1001C36.8998 91.1001 36.2998 90.9001 35.6998 90.9001C34.7998 90.9001 34.1998 90.5001 33.8998 89.7001C33.6998 89.2001 33.4998 88.8001 33.2998 88.4001C32.8998 87.3001 32.0998 86.7001 30.8998 86.6001C29.2998 86.4001 27.5998 86.3 25.9998 86.3C23.4998 86.3 21.0998 86.5001 18.5998 86.6001C17.0998 86.6001 15.8998 87.3 15.4998 88.8C14.8998 91.1 13.2998 91.6001 11.1998 91.5001C10.3998 91.5001 9.49981 91.5001 8.69981 91.5001C7.89981 91.5001 7.2998 91.3001 6.7998 90.7001C6.8998 90.4001 6.99981 90.1 7.19981 89.8C8.29981 87.7 9.29981 85.6001 10.3998 83.5001C12.5998 79.4001 14.2998 75.1 16.1998 70.8C17.4998 68 18.7998 65.1001 19.9998 62.2001C20.2998 61.5001 20.8998 61.2001 21.4998 61.2001C23.3998 61.2001 25.2998 61.2001 27.0998 61.2001C28.0998 61.2001 28.4998 61.9001 28.8998 62.7001C29.6998 64.3001 30.3998 65.9001 31.0998 67.5001C32.0998 69.7001 32.8998 71.8001 33.8998 74.0001C36.1998 78.9001 38.4998 83.8 40.7998 88.8C41.0998 89.5 41.2998 90.1001 40.9998 90.9001L41.1998 90.7001ZM24.5998 82.6001C25.4998 82.6001 26.4998 82.6001 27.3998 82.6001C29.2998 82.4001 29.9998 81 29.1998 79.3C28.1998 77.2 27.2998 75.1001 26.2998 73.0001C26.0998 72.7001 25.8998 72.3001 25.6998 72.0001C24.8998 71.1001 24.1998 71.1001 23.2998 72.0001C23.0998 72.2001 22.8998 72.5 22.7998 72.8C22.1998 74.1 21.5998 75.4001 21.0998 76.7001C20.5998 77.8001 20.0998 78.8001 19.6998 79.9001C19.3998 80.8001 19.5998 81.6001 20.3998 82.0001C20.8998 82.3001 21.4998 82.5001 22.0998 82.5001C22.8998 82.5001 23.7998 82.5001 24.5998 82.5001V82.6001Z" fill="#D93530"/>
<path d="M69.1998 84.9C69.3998 85 69.4998 85.2 69.5998 85.2C70.4998 85.4 71.3998 85.6 72.2998 85.6C73.5998 85.7 74.8998 85.8 76.1998 85.8C77.0998 85.8 77.8998 85.7 78.7998 85.7C79.2998 85.7 79.7998 85.7 80.1998 85.7C81.0998 85.7 81.9998 85.8 82.8998 85.9C83.5998 85.9 84.2998 86 84.9998 86.1C85.3998 86.1 85.5998 86.3 85.5998 86.7C85.5998 88 85.8998 89.3 85.5998 90.6C85.3998 91.3 85.2998 91.5 84.4998 91.3C84.0998 91.3 83.6998 91.3 83.2998 91.3C76.0998 91.3 68.8998 91.3 61.6998 91.3C60.5998 91.3 59.5998 91.4 58.4998 91.4C58.0998 91.4 57.6998 91.4 57.3998 91.2C56.9998 91.1 56.8998 90.9 57.0998 90.5C57.3998 89.6 57.7998 88.7 58.1998 87.9C58.6998 86.9 59.1998 86 59.8998 85.1C60.2998 84.6 60.7998 84.1 61.1998 83.6C61.4998 83.2 61.9998 82.9 62.2998 82.5C62.9998 81.4 63.9998 80.7 64.8998 79.9C65.9998 79 67.0998 78.1 68.0998 77.2C68.2998 77.1 68.3998 76.9 68.5998 76.8C69.3998 76.3 69.9998 75.8 70.5998 75.1C71.2998 74.3 72.2998 73.8 73.2998 73.3C74.4998 72.6 75.2998 71.6 75.5998 70.2C75.5998 70 75.5998 69.7 75.5998 69.5C75.2998 68.2 74.3998 67.5 73.0998 67.1C70.7998 66.3 68.7998 66.9 66.9998 68.5C66.5998 68.9 66.2998 69.4 65.9998 69.9C65.7998 70.2 65.5998 70.4 65.1998 70.4C62.9998 70.4 60.8998 70.4 58.6998 70.2C57.9998 70.2 57.7998 70 57.7998 69.2C57.7998 68.8 57.7998 68.4 57.9998 68C58.3998 67.1 58.7998 66.2 59.2998 65.3C59.9998 64.1 61.1998 63.4 62.3998 62.8C65.4998 61.2 68.7998 60.3 72.3998 60.6C73.9998 60.7 75.4998 61 76.9998 61.5C78.1998 61.9 79.2998 62.3 80.4998 62.8C80.9998 63 81.3998 63.4 81.6998 63.9C82.6998 65.4 83.2998 67.1 83.5998 68.8C83.5998 69 83.5998 69.3 83.5998 69.6C83.5998 70.2 83.5998 70.8 83.3998 71.4C83.3998 71.8 83.1998 72.1 82.9998 72.4C82.4998 73.2 81.9998 74 81.5998 74.8C81.2998 75.3 80.7998 75.6 80.3998 75.9C79.6998 76.4 79.0998 77 78.3998 77.6C77.7998 78.2 77.0998 78.6 76.4998 79.1C75.9998 79.5 75.3998 79.8 74.9998 80.3C73.3998 82.1 71.4998 83.4 69.5998 84.8C69.4998 84.8 69.3998 85 69.1998 85.2V84.9Z" fill="#D93530"/>
<path d="M93.3998 82.8C95.4998 83.6 97.3998 84.3 99.2998 85.1C101.9 86.1 104.7 86.2 107.4 85.9C109.1 85.7 110.8 85.2 112.1 83.9C113.6 82.4 113.4 80.4 111.5 79.3C110.4 78.7 109.2 78.3 107.9 78.3C107 78.3 106 78.3 105.1 78.3C103.5 78.2 101.9 78 100.4 77.8C99.3998 77.7 98.2998 77.6 97.2998 77.3C94.9998 76.7 92.8998 75.7 91.4998 73.7C89.4998 70.9 90.3998 67.2 92.1998 65.1C94.6998 62.2 97.9998 61.1 101.8 60.8C103 60.8 104.2 60.5 105.4 60.6C109 60.6 112.5 61.4 115.8 62.5C117.3 63 117.6 63.7 117.2 65.2C117.1 65.7 116.9 66.1 116.7 66.5C115.8 67.9 115.2 68 114 67.5C112.3 66.9 110.6 66.4 108.8 66.1C105.6 65.5 102.4 65.8 99.3998 67C98.2998 67.5 97.3998 68.1 97.3998 69.5C97.3998 70.9 98.2998 71.8 99.5998 72.2C101.4 72.8 103.3 73.1 105.2 73.1C106.3 73.1 107.4 73.1 108.5 73.1C111 73.1 113.3 73.8 115.4 75C118.1 76.5 119.5 79.5 119.1 82.4C118.9 83.7 118.8 85 117.7 86C117.1 86.6 116.5 87.1 115.9 87.6C115.6 87.8 115.2 87.9 114.9 88.2C113.8 89.5 112.2 89.9 110.6 90.3C108.8 90.8 106.9 91 105.1 90.9C103.2 90.9 101.3 91.1 99.2998 90.6C96.5998 89.9 93.8998 89.3 91.3998 87.9C90.9998 87.7 90.5998 87.5 90.2998 87.2C90.0998 87 89.9998 86.5 90.0998 86.2C90.6998 84.7 91.7998 83.5 93.0998 82.6L93.3998 82.8Z" fill="#D93530"/>
<path d="M125.2 90.7C125.2 90 125 89.3 125 88.5C125 84.4 125 80.2 125 76.1C125 74.7 125.2 73.4 125.3 72C125.3 71.8 125.3 71.6 125.3 71.3C124.8 68.8 125.1 66.3 125 63.7C125 63.3 125 62.9 125.1 62.6C125.3 61.8 125.6 61.5 126.5 61.5C128.1 61.5 129.7 61.5 131.3 61.5C132.2 62.4 131.9 63.4 131.9 64.3C131.9 65.1 131.9 65.9 131.9 66.7C131.9 66.9 132 67.1 131.9 67.3C131.3 72.3 131.9 77.3 131.6 82.3C131.6 83.8 132.2 85 134.3 85.1C135 85.1 135.7 85.1 136.5 85.1C139.1 85.1 141.7 85.1 144.3 85.1C145.6 85.1 146.9 84.9 148.2 84.9C148.9 84.9 149.6 85 150.3 85.1C151.5 85.3 151.4 85.4 151.5 86.4C151.6 87.7 151.2 88.9 150.8 90.1C150.8 90.4 150.3 90.6 150 90.7C149.6 90.8 149.2 90.7 148.8 90.7C143.4 90.7 138 90.7 132.6 90.7C131.3 90.7 130.1 90.9 128.8 90.9C127.7 90.9 126.6 91.1 125.3 90.4L125.2 90.7Z" fill="#D93530"/>
<path d="M176.3 75.3C177 75.3 177.7 75.3 178.5 75.3C180.9 75.3 183.2 75.5 185.6 75.6C186.5 75.6 186.8 76 186.7 76.9C186.3 80.5 184.8 83.6 182.7 86.5C181.3 88.4 179.5 89.4 177.4 90.2C175.4 91 173.3 91.4 171.2 91.5C168.5 91.6 165.9 90.8 163.3 90C162.6 89.8 162 89.5 161.3 89.2C160.4 88.9 159.7 88.5 159 87.7C158.1 86.6 157 85.7 155.9 84.7C155.7 84.5 155.5 84.4 155.4 84.2C154 81.4 152.5 78.7 152.7 75.5C152.8 73.8 153.1 72.2 153.4 70.5C153.6 69.5 154.1 68.6 154.8 67.9C154.9 67.7 155.1 67.6 155.2 67.4C156.9 64.5 159.5 62.9 162.5 61.6C163.8 61.1 165.1 60.7 166.5 60.7C167.9 60.7 169.3 60.4 170.8 60.4C172.8 60.4 174.8 60.4 176.7 60.8C178.6 61.2 180.5 62 182 63.3C182.7 64 182.8 64.3 182.2 65.2C181.5 66.2 180.6 67.1 179.9 68C179.4 68.6 178.8 68.6 178.1 68.4C177.5 68.1 176.9 67.8 176.3 67.5C174.1 66.4 171.8 66 169.3 66.4C167.1 66.7 165.2 67.4 163.5 68.8C161.3 70.5 160.2 72.7 160 75.6C159.9 78.1 160.6 80.3 162.3 82.1C163.6 83.6 165.4 84.4 167.3 84.8C171 85.7 174 85.1 177.4 83.6C177.8 83.4 178.2 83 178.5 82.7C178.9 82.1 179.4 81.2 179.1 80.6C178.9 80 178.3 80.1 177.8 80.1C175.6 80.1 173.5 80.1 171.3 80.1C170.1 80.1 170.1 80.1 169.7 78.8C169.3 77.7 169.7 76.8 170 75.8C170.1 75.3 170.7 75.3 171.1 75.3C172.5 75.3 174 75.3 175.4 75.3C175.7 75.3 176.1 75.3 176.4 75.3H176.3Z" fill="#D93530"/>
<path d="M191.8 90.6C191.8 88.4 191.6 86.1 191.6 83.8C191.6 77.2 191.6 70.6 191.6 64C191.6 63.6 191.6 63.2 191.6 62.8C191.6 62 192.3 61.4 193.1 61.2C193.2 61.2 193.3 61.2 193.4 61.2C196.3 61.1 199.2 60.8 202.1 60.9C205.4 61 208.8 61.1 212 62.1C213.3 62.5 214.6 63.1 215.5 64.1C216.3 65.1 217.2 66 217.8 67.1C218.7 68.8 218.1 73 216.9 74.6C216.6 75 216.3 75.5 215.9 76C216.2 76.5 216.5 77 216.9 77.4C219.7 80.7 219.6 84.3 217.7 88C216.8 89.8 215.2 90.7 213.2 90.9C210.8 91.1 208.4 91.4 206 91.5C203.7 91.5 201.4 91.4 199.1 91.3C197.4 91.3 195.7 91.3 194 91.3C193.3 91.3 192.6 91.3 191.7 90.5L191.8 90.6ZM198.5 73.1C199.1 73.2 199.7 73.4 200.3 73.4C202.3 73.4 204.4 73.4 206.4 73.4C207.5 73.4 208.6 73.2 209.6 73C210.1 72.9 210.7 72.6 211 72.3C212.8 70.6 211.9 68.1 210.4 67.3C209.6 66.9 208.7 66.7 207.9 66.6C205.9 66.4 203.9 66.4 202 66.4C201.4 66.4 200.8 66.4 200.2 66.6C199.1 66.8 198.5 67.5 198.5 68.7C198.5 70.1 198.5 71.5 198.5 73.1ZM204.2 86.4C204.2 86.4 204.2 86.4 204.2 86.3C204.9 86.3 205.6 86.3 206.4 86.3C207.8 86.1 209.1 85.9 210.4 85.5C211.7 85.1 212.4 84.1 212.4 82.6C212.4 81.2 211.6 80.1 210.2 79.7C209 79.4 207.7 79.1 206.5 79.1C204.4 79.1 202.3 79.2 200.2 79.4C199.1 79.4 198.5 80 198.5 81.2C198.5 82.4 198.7 83.2 198.7 84.1C198.7 85.3 199.3 85.8 200.4 86C201.6 86.2 202.9 86.3 204.1 86.4H204.2Z" fill="#D93530"/>
<path d="M233.9 79.5C233.9 76.5 233.9 73.5 233.9 70.4C233.9 70 233.9 69.6 233.9 69.2C233.9 68.1 233.4 67.7 232.3 67.5C231.9 67.5 231.4 67.5 231 67.5C228.8 67.5 226.6 67.5 224.4 67.5C223.9 67.5 223.3 67.5 222.8 67.2C222.5 67.1 222.1 66.7 222.1 66.4C222.1 65.1 222.1 63.8 222.3 62.5C222.5 61.3 222.6 61.3 223.8 61.3C225.7 61.3 227.7 61.3 229.6 61.3C236.2 61.3 242.8 61.3 249.5 61.3C249.8 61.3 250.1 61.3 250.3 61.3C251.9 61.2 252.6 61.8 252.5 63.5C252.5 64.3 252.5 65.1 252.5 66C252.5 66.9 252.2 67.2 251.4 67.4C251 67.4 250.5 67.4 250.1 67.4C247.9 67.4 245.7 67.4 243.5 67.4C243.1 67.4 242.7 67.4 242.3 67.4C241.2 67.6 240.6 68.3 240.6 69.4C240.6 70.5 240.6 71.6 240.6 72.7C240.6 74 240.4 75.3 240.4 76.6C240.4 77.5 240.6 78.4 240.6 79.4C240.6 82.7 240.6 86 240.6 89.3C240.6 89.5 240.6 89.6 240.6 89.8C240.5 90.7 240.1 91.1 239.2 91.1C238.1 91.1 237 91.1 235.9 91.1C234.5 91.1 234 90.6 234 89.2C234 85.9 234 82.6 234 79.3L233.9 79.5Z" fill="#D93530"/>
<path d="M289.7 90.7999C287.7 90.7999 285.9 90.7999 284.1 90.7999C283.9 90.7999 283.7 90.7999 283.5 90.7999C282.5 90.4999 281.6 90.1 280.4 89.6C279.5 89.9 278.4 90.3 277.2 90.7C276.1 91.1 275 91.2999 273.8 91.2999C271.8 91.2999 269.8 91.2999 267.8 91.2999C267 91.2999 266.2 90.9999 265.4 90.7999C265 90.6999 264.6 90.3999 264.2 90.3999C261.6 89.9999 259.8 88.4 258.2 86.5C256.5 84.5 255 82.4 254.7 79.7C254.5 78.2 254.1 76.8 254.4 75.2C254.7 73.8 254.7 72.2999 254.9 70.7999C255 69.8999 255.4 69.0999 256.1 68.3999C256.5 68.0999 256.8 67.6 257 67.2C257.5 66.1 258.3 65.4 259.2 64.6C261.1 63 263.3 61.9 265.7 61C265.9 61 266 60.9999 266.2 60.8999C268.2 60.7999 270.3 60.5 272.3 60.6C274.7 60.7 277.3 60.8 279.5 62C282.5 63.6 285.4 65.3 286.5 69C286.5 69.3 286.7 69.6999 286.9 69.8999C288.2 71.6999 288.3 73.7999 288.4 75.8999C288.5 77.7999 288.3 79.5999 287.4 81.2999C286.7 82.5999 286.3 84.1 286.8 85.7C287.1 86.7 287.6 87.4 288.2 88.1C288.7 88.6 289.2 89.1999 289.6 89.7999C289.8 89.9999 289.8 90.3999 289.9 90.8999L289.7 90.7999ZM271.2 66.6C271 66.6 270.6 66.6 270.3 66.6C268 66.6 266 67.4 264.4 69.2C264 69.6 263.6 69.9999 263.2 70.3999C262 71.4999 261.5 73 261.4 74.6C261.4 75.4 261.4 76.3 261.4 77.2C261.4 79.1 262.2 80.7999 263.4 82.2999C265.1 84.1999 267.2 85.2999 269.7 85.7999C272 86.1999 274.1 85.2 276.2 84.5C276.5 84.4 276.8 84.0999 277.1 83.7999C278.9 82.2999 279.7 80.2 280.2 78C280.5 76.5 280.7 75 280.3 73.5C279.4 70.1 275.5 66.1 271.1 66.7L271.2 66.6Z" fill="#D93530"/>
<path d="M294.8 76.4C294.8 72.3 294.8 68.3 294.8 64.2C294.8 63.8 294.8 63.3 294.8 62.9C294.8 62 295.3 61.6 296.1 61.5C297.5 61.5 299 61.5 300.4 61.5C301.1 61.5 301.3 61.8 301.4 62.5C301.4 62.9 301.4 63.4 301.4 63.8C301.4 70.7 301.4 77.5 301.4 84.4C301.4 86 301.6 87.7 301.7 89.3C301.7 90.8 301.4 91.1 299.9 91.1C298.9 91.1 297.9 91.1 296.9 91.1C295.1 91.1 294.8 90.7 294.8 89C294.8 84.8 294.8 80.5 294.8 76.3V76.4Z" fill="#D93530"/>
<path d="M340.2 90.7001C339.1 91.5001 337.8 91.1001 336.5 91.1001C335.9 91.1001 335.3 90.9001 334.7 90.9001C333.8 90.9001 333.2 90.5001 332.9 89.7001C332.7 89.2001 332.5 88.8001 332.3 88.4001C331.9 87.3001 331.1 86.7001 329.9 86.6001C328.3 86.4001 326.6 86.3 325 86.3C322.5 86.3 320.1 86.5001 317.6 86.6001C316.1 86.6001 314.9 87.3 314.5 88.8C313.9 91.1 312.3 91.6001 310.2 91.5001C309.4 91.5001 308.5 91.5001 307.7 91.5001C306.9 91.5001 306.3 91.3001 305.8 90.7001C305.9 90.4001 306 90.1 306.2 89.8C307.3 87.7 308.3 85.6001 309.4 83.5001C311.6 79.4001 313.3 75.1 315.2 70.8C316.5 68 317.8 65.1001 319 62.2001C319.3 61.5001 319.9 61.2001 320.5 61.2001C322.4 61.2001 324.3 61.2001 326.1 61.2001C327.1 61.2001 327.5 61.9001 327.9 62.7001C328.7 64.3001 329.4 65.9001 330.1 67.5001C331.1 69.7001 331.9 71.8001 332.9 74.0001C335.2 78.9001 337.5 83.8 339.8 88.8C340.1 89.5 340.3 90.1001 340 90.9001L340.2 90.7001ZM323.6 82.6001C324.5 82.6001 325.5 82.6001 326.4 82.6001C328.3 82.4001 329 81 328.2 79.3C327.2 77.2 326.3 75.1001 325.3 73.0001C325.1 72.7001 324.9 72.3001 324.7 72.0001C323.9 71.1001 323.2 71.1001 322.3 72.0001C322.1 72.2001 321.9 72.5 321.8 72.8C321.2 74.1 320.6 75.4001 320.1 76.7001C319.6 77.8001 319.1 78.8001 318.7 79.9001C318.4 80.8001 318.6 81.6001 319.4 82.0001C319.9 82.3001 320.5 82.5001 321.1 82.5001C321.9 82.5001 322.8 82.5001 323.6 82.5001V82.6001Z" fill="#D93530"/>
<path d="M360 82.6001C358.8 82.6001 358.2 82.6 358 82.8C357.7 83.1 357.8 83.6001 357.8 84.9001V87.9001C357.8 89.9001 358 90.8 355.2 90.8C352.4 90.8 352.6 89.9001 352.6 87.9001V84.9001C352.6 83.7001 352.6 83 352.4 82.8C352.1 82.6 351.6 82.6001 350.3 82.6001H347.3C345.3 82.6001 344.4 82.8001 344.4 80.0001C344.4 77.2001 345.3 77.4001 347.3 77.4001H350.3C351.5 77.4001 352.1 77.4001 352.4 77.2001C352.6 77.0001 352.6 76.4001 352.6 75.2001V72.2001C352.6 70.2001 352.4 69.3 355.2 69.3C358 69.3 357.8 70.2001 357.8 72.2001V75.2001C357.8 76.4001 357.8 77.0001 358 77.2001C358.2 77.5001 358.8 77.4001 360 77.4001H363C365 77.4001 365.9 77.2001 365.9 80.0001C365.9 82.8001 365 82.6001 363 82.6001H360Z" fill="#D93530"/>
<path d="M385.5 61.3C387.4 60.5 389.2 60.9001 390.9 60.9001C391.2 60.9001 391.6 61.3001 391.7 61.6001C391.9 62.4001 392.1 63.2001 392.1 64.0001C392.1 67.0001 392.1 69.9001 392.1 72.9001C392.1 73.2001 392.1 73.6001 392.1 73.9001C392.1 74.8001 392.3 75.0001 393.3 75.1001C393.3 75.1001 393.4 75.1001 393.5 75.1001C397 75.1001 400.5 75.1001 403.9 75.1001C405.6 75.1001 406.1 74.6001 406.4 72.9001C406.5 72.4001 406.6 71.8 406.6 71.3C406.6 68.7 406.6 66.1001 406.6 63.5001C406.6 61.9001 407.2 61.3001 408.9 61.2001C409.7 61.2001 410.4 61.2001 411.2 61.2001C412.4 61.2001 413 61.8001 413.2 62.9001C413.3 63.6001 413.4 64.3001 413.5 65.0001C413.5 69.5001 413.5 74.0001 413.5 78.5001C413.5 79.0001 413.4 79.6001 413.3 80.1001C413.3 80.6001 413.2 81.2001 413.3 81.7001C413.8 84.5001 413.4 87.4001 413.6 90.2001C413.6 91.2001 413.4 91.4001 412.3 91.5001C411 91.5001 409.7 91.5001 408.3 91.5001C407.2 91.5001 406.7 91.1001 406.6 89.9001C406.6 89.2001 406.6 88.6001 406.6 87.9001C406.6 86.3001 406.6 84.7001 406.6 83.1001C406.6 82.2001 406.4 81.2001 405.5 80.6001C405.1 80.4001 404.7 80.1001 404.3 80.2001C401.9 80.2001 399.5 79.5001 397.1 80.1001C396.2 80.3001 395.2 80.2001 394.3 80.1001C392.2 80.1001 391.7 81.2001 391.8 82.9001C391.9 85.0001 392 87.1001 392.1 89.1001C392.1 89.4001 392.1 89.7001 392.1 89.9001C392.1 91.1001 391.9 91.3 390.6 91.3C389.3 91.3 388.1 91.3 386.8 91.3C385.6 91.3 385.2 90.9 385.1 89.8C385.1 89.6 385.1 89.4001 385.1 89.1001C385.1 80.6001 385.1 72.2001 385.1 63.7001C385.1 62.8001 385.3 62.0001 385.4 61.1001L385.5 61.3Z" fill="#D93530"/>
<path d="M420.3 76.4C420.3 72.3 420.3 68.3 420.3 64.2C420.3 63.8 420.3 63.3 420.3 62.9C420.3 62 420.8 61.6 421.6 61.5C423 61.5 424.5 61.5 425.9 61.5C426.6 61.5 426.8 61.8 426.9 62.5C426.9 62.9 426.9 63.4 426.9 63.8C426.9 70.7 426.9 77.5 426.9 84.4C426.9 86 427.1 87.7 427.2 89.3C427.2 90.8 426.9 91.1 425.4 91.1C424.4 91.1 423.4 91.1 422.4 91.1C420.6 91.1 420.3 90.7 420.3 89C420.3 84.8 420.3 80.5 420.3 76.3V76.4Z" fill="#D93530"/>
<path d="M435.9 82.8C438 83.6 439.9 84.3 441.8 85.1C444.4 86.1 447.2 86.2 449.9 85.9C451.6 85.7 453.3 85.2 454.6 83.9C456.1 82.4 455.9 80.4 454 79.3C452.9 78.7 451.7 78.3 450.4 78.3C449.5 78.3 448.5 78.3 447.6 78.3C446 78.2 444.4 78 442.9 77.8C441.9 77.7 440.8 77.6 439.8 77.3C437.5 76.7 435.4 75.7 434 73.7C432 70.9 432.9 67.2 434.7 65.1C437.2 62.2 440.5 61.1 444.3 60.8C445.5 60.8 446.7 60.5 447.9 60.6C451.5 60.6 455 61.4 458.3 62.5C459.8 63 460.1 63.7 459.7 65.2C459.6 65.7 459.4 66.1 459.2 66.5C458.3 67.9 457.7 68 456.5 67.5C454.8 66.9 453.1 66.4 451.3 66.1C448.1 65.5 444.9 65.8 441.9 67C440.8 67.5 439.9 68.1 439.9 69.5C439.9 70.9 440.8 71.8 442.1 72.2C443.9 72.8 445.8 73.1 447.7 73.1C448.8 73.1 449.9 73.1 451 73.1C453.5 73.1 455.8 73.8 457.9 75C460.6 76.5 462 79.5 461.6 82.4C461.4 83.7 461.3 85 460.2 86C459.6 86.6 459 87.1 458.4 87.6C458.1 87.8 457.7 87.9 457.4 88.2C456.3 89.5 454.7 89.9 453.1 90.3C451.3 90.8 449.4 91 447.6 90.9C445.7 90.9 443.8 91.1 441.8 90.6C439.1 89.9 436.4 89.3 433.9 87.9C433.5 87.7 433.1 87.5 432.8 87.2C432.6 87 432.5 86.5 432.6 86.2C433.2 84.7 434.3 83.5 435.6 82.6L435.9 82.8Z" fill="#D93530"/>
<path d="M476.4 79.5C476.4 76.5 476.4 73.5 476.4 70.4C476.4 70 476.4 69.6 476.4 69.2C476.4 68.1 475.9 67.7 474.8 67.5C474.4 67.5 473.9 67.5 473.5 67.5C471.3 67.5 469.1 67.5 466.9 67.5C466.4 67.5 465.8 67.5 465.3 67.2C465 67.1 464.6 66.7 464.6 66.4C464.6 65.1 464.6 63.8 464.8 62.5C465 61.3 465.1 61.3 466.3 61.3C468.2 61.3 470.2 61.3 472.1 61.3C478.7 61.3 485.3 61.3 492 61.3C492.3 61.3 492.6 61.3 492.8 61.3C494.4 61.2 495.1 61.8 495 63.5C495 64.3 495 65.1 495 66C495 66.9 494.7 67.2 493.9 67.4C493.5 67.4 493 67.4 492.6 67.4C490.4 67.4 488.2 67.4 486 67.4C485.6 67.4 485.2 67.4 484.8 67.4C483.7 67.6 483.1 68.3 483.1 69.4C483.1 70.5 483.1 71.6 483.1 72.7C483.1 74 482.9 75.3 482.9 76.6C482.9 77.5 483.1 78.4 483.1 79.4C483.1 82.7 483.1 86 483.1 89.3C483.1 89.5 483.1 89.6 483.1 89.8C483 90.7 482.6 91.1 481.7 91.1C480.6 91.1 479.5 91.1 478.4 91.1C477 91.1 476.5 90.6 476.5 89.2C476.5 85.9 476.5 82.6 476.5 79.3L476.4 79.5Z" fill="#D93530"/>
<path d="M513.6 91.2C510.8 91.5 508 90.8 505.3 90C504.3 89.7 503.5 89.2 502.8 88.5C502.4 88.1 502 87.8 501.5 87.4C501.1 87.1 500.7 86.7 500.4 86.4C497.3 82.5 495.9 78.2 496.9 73.1C496.9 72.7 496.9 72.3 496.9 71.9C497.1 70.5 497.4 69.1 498.5 68.1C499 67.7 499.2 66.9 499.6 66.4C500.8 65 502.1 63.7 503.8 62.9C506.1 61.7 508.5 60.7 511.2 60.8C512.1 60.8 513 60.5 513.8 60.6C516.4 60.9 518.9 61 521.4 61.9C522.9 62.5 524 63.5 525.3 64.3C526.9 65.3 527.8 66.8 528.4 68.6C528.5 69 528.7 69.4 528.9 69.7C530.8 72.4 530.5 75.5 530.4 78.6C530.4 79.4 529.8 80.2 529.5 80.9C529.2 81.7 528.8 82.4 528.5 83.2C527.8 85.1 526.7 86.5 525.2 87.8C522.1 90.5 518.6 91.4 514.7 91.3C514.3 91.3 513.9 91.3 513.5 91.3L513.6 91.2ZM513.7 66.5C510.7 66.5 508.5 67.1 506.6 69.6C506.4 69.9 506.1 70.2 505.8 70.4C505 71.1 504.6 72 504.3 73C503.5 75.7 503.6 78.4 505 80.7C507 84 510 85.6 513.8 85.7C515.2 85.7 516.4 85.2 517.6 84.8C519.4 84.3 520.8 83.1 521.6 81.3C522.2 80.1 522.5 78.8 523.1 77.5C523.7 76.2 523.7 74.9 523.1 73.6C523 73.3 522.8 73.1 522.8 72.8C521.8 69.3 517.4 66.1 513.8 66.5H513.7Z" fill="#D93530"/>
<path d="M568.5 90.7001C568.3 90.8001 568.1 90.9001 568 90.9001C566 91.0001 563.9 91.0001 561.9 91.2001C560.3 91.4001 559 90.7001 557.9 89.7001C556.1 88.0001 554.2 86.4001 552.5 84.6001C551.1 83.2001 549.6 82.6001 547.6 82.6001C546.7 82.6001 545.8 82.6001 545 82.6001C543.5 82.6001 542.8 83.3 542.7 84.8C542.7 85.6 542.5 86.4001 542.7 87.1001C543.1 88.1001 542.7 89.1001 542.6 90.0001C542.6 90.8001 542.1 91.1001 541.2 91.1001C539.9 91.1001 538.7 91.1001 537.4 91.1001C536.6 91.1001 536.3 90.9001 536.3 90.0001C536.2 88.6001 536 87.2001 536 85.7001C536 78.5001 536 71.4001 536 64.2001C536 62.1001 536.3 61.3 538.9 61.3C543.3 61.3 547.6 61.3 552 61.3C553.8 61.3 555.5 61.3001 557.3 61.7001C558.9 61.9001 560.3 62.6001 561.7 63.5001C564.7 65.6001 566.4 68.4001 566.2 72.1001C566.2 72.5001 566.2 72.9 566.2 73.3C566.3 75.5 565.5 77.3001 563.9 78.9001C563.2 79.6001 562.6 80.4001 562 81.2001C561.3 82.1001 561.2 82.7001 562 83.6001C562.9 84.8001 563.9 85.9001 565 86.9001C566 87.9001 567.2 88.7001 568.3 89.7001C568.5 89.9001 568.5 90.2001 568.7 90.5001L568.5 90.7001ZM543 68.2001C543 70.1001 543 71.9001 543 73.7001C543 75.3001 543.8 76.5001 545.7 76.4001C547 76.4001 548.4 76.3001 549.7 76.4001C551.5 76.6001 553.3 76.3 555.1 76.3C556.1 76.3 557.1 75.9001 558.1 75.6001C559.3 75.2001 559.9 74.4001 559.9 73.1001C559.9 72.7001 559.9 72.3001 559.9 71.9001C559.9 69.9001 558.8 68.1001 556.5 67.7001C555.3 67.5001 554 67.6 552.7 67.3C550.2 66.8 547.7 67.3001 545.1 67.4001C544.4 67.4001 543.7 67.8001 542.9 68.1001L543 68.2001Z" fill="#D93530"/>
<path d="M573.3 76.4C573.3 72.3 573.3 68.3 573.3 64.2C573.3 63.8 573.3 63.3 573.3 62.9C573.3 62 573.8 61.6 574.6 61.5C576 61.5 577.5 61.5 578.9 61.5C579.6 61.5 579.8 61.8 579.9 62.5C579.9 62.9 579.9 63.4 579.9 63.8C579.9 70.7 579.9 77.5 579.9 84.4C579.9 86 580.1 87.7 580.2 89.3C580.2 90.8 579.9 91.1 578.4 91.1C577.4 91.1 576.4 91.1 575.4 91.1C573.6 91.1 573.3 90.7 573.3 89C573.3 84.8 573.3 80.5 573.3 76.3V76.4Z" fill="#D93530"/>
<path d="M610.7 69.7999C610 69.2999 609.4 68.7999 608.7 68.3999C606.2 66.7999 603.6 66.2 600.6 66.5C596.4 67 594.1 69.5999 592.9 73.2999C591.7 76.7999 592.9 81.9 597 84.1C599.1 85.3 601.3 85.8 603.6 85.2C604.4 85 605.2 84.9999 606 84.7999C607.2 84.4999 608.4 84.1 609.4 83.1C609.7 82.8 610.1 82.5999 610.5 82.2999C611.1 81.8999 611.9 81.7999 612.4 82.2999C613.4 83.0999 614.6 83.6 615.1 85.1C614.1 87.6 612.2 89.1 609.8 90C608.1 90.7 606.3 91.2 604.3 91.1C603.5 91.1 602.8 91.3999 602 91.3999C598.9 91.3999 595.8 90.9 592.9 89.6C592.3 89.4 591.8 88.7999 591.4 88.3999C590.9 87.8999 590.6 87.2999 590.1 86.8999C588.4 85.7999 587.6 84.0999 586.9 82.2999C585.6 79.0999 585.6 75.7 586 72.2C586.3 70.1 587.1 68.3 588.2 66.6C588.9 65.6 590 64.9 590.9 64.1C592.4 62.6 594.2 62 596 61.1C596.2 61.1 596.4 60.8999 596.6 60.8999C599 60.7999 601.4 60.5 603.8 60.6C605.8 60.6 607.9 60.7999 609.7 61.8999C611.2 62.7999 612.7 63.6 614 64.7C615.1 65.6 615.1 66.7 614 67.7C613.5 68.2 613 68.5999 612.4 68.8999C611.9 69.1999 611.3 69.4999 610.7 69.7999Z" fill="#D93530"/>
<path d="M652 90.7C650.9 91.5 649.6 91.0999 648.3 91.0999C647.7 91.0999 647.1 90.8999 646.5 90.8999C645.6 90.8999 645 90.5 644.7 89.7C644.5 89.2 644.3 88.7999 644.1 88.3999C643.7 87.2999 642.9 86.6999 641.7 86.5999C640.1 86.3999 638.4 86.2999 636.8 86.2999C634.3 86.2999 631.9 86.4999 629.4 86.5999C627.9 86.5999 626.7 87.2999 626.3 88.7999C625.7 91.0999 624.1 91.5999 622 91.4999C621.2 91.4999 620.3 91.4999 619.5 91.4999C618.7 91.4999 618.1 91.3 617.6 90.7C617.7 90.4 617.8 90.0999 618 89.7999C619.1 87.6999 620.1 85.5999 621.2 83.4999C623.4 79.3999 625.1 75.0999 627 70.7999C628.3 67.9999 629.6 65.1 630.8 62.2C631.1 61.5 631.7 61.2 632.3 61.2C634.2 61.2 636.1 61.2 637.9 61.2C638.9 61.2 639.3 61.9 639.7 62.7C640.5 64.3 641.2 65.8999 641.9 67.4999C642.9 69.6999 643.7 71.7999 644.7 73.9999C647 78.8999 649.3 83.7999 651.6 88.7999C651.9 89.4999 652.1 90.0999 651.8 90.8999L652 90.7ZM635.4 82.5999C636.3 82.5999 637.3 82.5999 638.2 82.5999C640.1 82.3999 640.8 80.9999 640 79.2999C639 77.1999 638.1 75.0999 637.1 72.9999C636.9 72.6999 636.7 72.2999 636.5 71.9999C635.7 71.0999 635 71.0999 634.1 71.9999C633.9 72.1999 633.7 72.4999 633.6 72.7999C633 74.0999 632.4 75.4 631.9 76.7C631.4 77.8 630.9 78.7999 630.5 79.8999C630.2 80.7999 630.5 81.5999 631.2 81.9999C631.7 82.2999 632.3 82.4999 632.9 82.4999C633.7 82.4999 634.6 82.4999 635.4 82.4999V82.5999Z" fill="#D93530"/>
<path d="M656.8 90.7C656.8 90 656.6 89.3 656.6 88.5C656.6 84.4 656.6 80.2 656.6 76.1C656.6 74.7 656.8 73.4 656.9 72C656.9 71.8 656.9 71.6 656.9 71.3C656.4 68.8 656.7 66.3 656.6 63.7C656.6 63.3 656.6 62.9 656.7 62.6C656.9 61.8 657.2 61.5 658.1 61.5C659.7 61.5 661.3 61.5 662.9 61.5C663.8 62.4 663.5 63.4 663.5 64.3C663.5 65.1 663.5 65.9 663.5 66.7C663.5 66.9 663.6 67.1 663.5 67.3C662.9 72.3 663.5 77.3 663.2 82.3C663.2 83.8 663.8 85 665.9 85.1C666.6 85.1 667.3 85.1 668.1 85.1C670.7 85.1 673.3 85.1 675.9 85.1C677.2 85.1 678.5 84.9 679.8 84.9C680.5 84.9 681.2 85 681.9 85.1C683.1 85.3 683 85.4 683.1 86.4C683.2 87.7 682.8 88.9 682.4 90.1C682.4 90.4 681.9 90.6 681.6 90.7C681.2 90.8 680.8 90.7 680.4 90.7C675 90.7 669.6 90.7 664.2 90.7C662.9 90.7 661.7 90.9 660.4 90.9C659.3 90.9 658.2 91.1 656.9 90.4L656.8 90.7Z" fill="#D93530"/>
<path d="M709.4 79.5C709.4 76.5 709.4 73.5 709.4 70.4C709.4 70 709.4 69.6 709.4 69.2C709.4 68.1 708.9 67.7 707.8 67.5C707.4 67.5 706.9 67.5 706.5 67.5C704.3 67.5 702.1 67.5 699.9 67.5C699.4 67.5 698.8 67.5 698.3 67.2C698 67.1 697.6 66.7 697.6 66.4C697.6 65.1 697.6 63.8 697.8 62.5C698 61.3 698.1 61.3 699.3 61.3C701.2 61.3 703.2 61.3 705.1 61.3C711.7 61.3 718.3 61.3 725 61.3C725.3 61.3 725.6 61.3 725.8 61.3C727.4 61.2 728.1 61.8 728 63.5C728 64.3 728 65.1 728 66C728 66.9 727.7 67.2 726.9 67.4C726.5 67.4 726 67.4 725.6 67.4C723.4 67.4 721.2 67.4 719 67.4C718.6 67.4 718.2 67.4 717.8 67.4C716.7 67.6 716.1 68.3 716.1 69.4C716.1 70.5 716.1 71.6 716.1 72.7C716.1 74 715.9 75.3 715.9 76.6C715.9 77.5 716.1 78.4 716.1 79.4C716.1 82.7 716.1 86 716.1 89.3C716.1 89.5 716.1 89.6 716.1 89.8C716 90.7 715.6 91.1 714.7 91.1C713.6 91.1 712.5 91.1 711.4 91.1C710 91.1 709.5 90.6 709.5 89.2C709.5 85.9 709.5 82.6 709.5 79.3L709.4 79.5Z" fill="#D93530"/>
<path d="M732.4 76.4C732.4 72.3 732.4 68.3 732.4 64.2C732.4 63.8 732.4 63.3 732.4 62.9C732.4 62 732.9 61.6 733.7 61.5C735.1 61.5 736.6 61.5 738 61.5C738.7 61.5 738.9 61.8 739 62.5C739 62.9 739 63.4 739 63.8C739 70.7 739 77.5 739 84.4C739 86 739.2 87.7 739.3 89.3C739.3 90.8 739 91.1 737.5 91.1C736.5 91.1 735.5 91.1 734.5 91.1C732.7 91.1 732.4 90.7 732.4 89C732.4 84.8 732.4 80.5 732.4 76.3V76.4Z" fill="#D93530"/>
<path d="M781.4 91.6C779.7 91.6 778 91.6 776.3 91.6C775.3 91.6 775.1 91.4 775 90.3C775 87.5 775 84.7 775 81.9C775 81.3 775 80.7 775 80.1C775 79.6 774.8 79.1 774.5 78.7C773.9 77.8 772.8 77.8 772.3 78.9C771.4 80.8 770.6 82.7 769.8 84.6C769 86.4 768.3 88.1 767.6 89.9C767.2 90.8 766.4 91.3 765.4 91.2C764.5 91.2 763.5 91 762.6 91C761.8 91 761.2 90.7 760.8 90.1C760.5 89.6 760.1 89.1 759.8 88.6C758.6 86.1 757.4 83.6 756.1 81C755.8 80.5 755.5 79.9 755.2 79.5C754.5 78.5 753.3 78.7 752.9 79.8C752.7 80.4 752.6 81.2 752.6 81.9C752.6 83.2 752.8 84.5 752.8 85.8C752.8 87.3 752.8 88.8 752.8 90.3C752.8 91.5 752.6 91.7 751.3 91.7C750 91.7 748.7 91.7 747.3 91.7C746.2 91.7 745.8 91.2 745.8 90.2C745.8 90 745.8 89.8 745.8 89.5C745.8 81 745.8 72.6 745.8 64.1C745.8 63.2 746 62.4 746 61.6C746.8 61.1 747.6 61 748.5 61C749.5 61 750.5 61 751.5 61C752.8 61 753.8 61.5 754.3 62.8C756.2 67.1 758.2 71.4 760.1 75.7C760.7 76.9 761.3 78.2 761.9 79.4C761.9 79.4 761.9 79.6 762 79.7C763 81.1 764.2 81.2 765.1 79.7C766 78.1 766.7 76.5 767.5 74.8C767.5 74.7 767.5 74.5 767.6 74.3C769.3 70.6 771 67 772.6 63.2C773.1 61.9 774 61.4 775.2 61.3C776.6 61.3 778 61.3 779.3 61.3C780.4 61.3 780.9 61.7 781.1 62.8C781.3 63.4 781.3 64 781.3 64.6C781.3 71.9 781.3 79.1 781.3 86.4C781.3 87.3 781.5 88.2 781.5 89.2C781.5 90 781.7 90.9 780.9 91.7L781.4 91.6Z" fill="#D93530"/>
<path d="M808.1 73.7C808.8 75.6 808.6 77.4 808.1 79.3C807.5 79.3 806.9 79.3 806.4 79.3C803.3 79.3 800.2 79.5 797.2 79.6C795.9 79.6 795.4 80.1 795 81.4C794.4 83.7 795.6 85.2 797.9 85.2C798.3 85.2 798.8 85.2 799.2 85.2C803.3 85.2 807.5 85.2 811.6 85.2C812.3 85.2 813 85.2 813.7 85.2C814.4 85.2 814.6 85.5 814.7 86.2C814.8 87.5 814.6 88.8 814.1 90.1C813.9 90.7 813.5 91 812.9 91.1C812.6 91.1 812.2 91.1 811.9 91.1C804.8 91.1 797.8 91.1 790.7 91.1C789.9 91.1 789.1 91.2 788.4 90.4C788.4 89.5 788.4 88.4 788.4 87.3C788.4 86 788.2 84.7 788.2 83.4C788.2 82.4 788.2 81.4 788.3 80.5C788.3 79.9 788.3 79.3 788.3 78.7C788.3 77.1 788 75.4 788.3 73.8C788.5 72.3 788.5 70.8 788.5 69.4C788.5 67.6 788.3 65.8 788.3 64C788.3 63.6 788.3 63.1 788.5 62.7C788.7 61.9 789.2 61.5 790.1 61.5C790.5 61.5 791 61.5 791.4 61.5C798.4 61.5 805.3 61.5 812.2 61.5C812.5 61.5 812.8 61.5 813 61.5C813.8 61.5 814.3 61.9 814.3 62.7C814.3 64 814.3 65.2 814.3 66.5C814.3 67.2 814 67.4 813.2 67.5C812.8 67.5 812.3 67.5 811.9 67.5C807.4 67.5 803 67.5 798.5 67.5C797.8 67.5 797.1 67.7 796.4 67.8C796.2 67.8 796.1 67.8 795.9 67.9C795.1 68.3 794.5 70 794.8 71.5C795.1 72.8 795.7 73.3 797.1 73.4C800.1 73.7 803.1 73.7 806.2 73.7C806.7 73.7 807.3 73.7 807.9 73.7H808.1Z" fill="#D93530"/>
<path d="M820.5 90.7C820.5 90 820.3 89.3 820.3 88.5C820.3 84.4 820.3 80.2 820.3 76.1C820.3 74.7 820.5 73.4 820.6 72C820.6 71.8 820.6 71.6 820.6 71.3C820.1 68.8 820.4 66.3 820.3 63.7C820.3 63.3 820.3 62.9 820.4 62.6C820.6 61.8 820.9 61.5 821.8 61.5C823.4 61.5 825 61.5 826.6 61.5C827.5 62.4 827.2 63.4 827.2 64.3C827.2 65.1 827.2 65.9 827.2 66.7C827.2 66.9 827.3 67.1 827.2 67.3C826.6 72.3 827.2 77.3 826.9 82.3C826.9 83.8 827.5 85 829.6 85.1C830.3 85.1 831 85.1 831.8 85.1C834.4 85.1 837 85.1 839.6 85.1C840.9 85.1 842.2 84.9 843.5 84.9C844.2 84.9 844.9 85 845.6 85.1C846.8 85.3 846.7 85.4 846.8 86.4C846.9 87.7 846.5 88.9 846.1 90.1C846.1 90.4 845.6 90.6 845.3 90.7C844.9 90.8 844.5 90.7 844.1 90.7C838.7 90.7 833.3 90.7 827.9 90.7C826.6 90.7 825.4 90.9 824.1 90.9C823 90.9 821.9 91.1 820.6 90.4L820.5 90.7Z" fill="#D93530"/>
<path d="M851.2 76.4C851.2 72.3 851.2 68.3 851.2 64.2C851.2 63.8 851.2 63.3 851.2 62.9C851.2 62 851.7 61.6 852.5 61.5C853.9 61.5 855.4 61.5 856.8 61.5C857.5 61.5 857.7 61.8 857.8 62.5C857.8 62.9 857.8 63.4 857.8 63.8C857.8 70.7 857.8 77.5 857.8 84.4C857.8 86 858 87.7 858.1 89.3C858.1 90.8 857.8 91.1 856.3 91.1C855.3 91.1 854.3 91.1 853.3 91.1C851.5 91.1 851.2 90.7 851.2 89C851.2 84.8 851.2 80.5 851.2 76.3V76.4Z" fill="#D93530"/>
<path d="M872.4 73.7C871.6 74.8 871.6 76 871.5 77.2C871.5 78.9 871.7 80.6 871.7 82.3C871.7 84.9 871.7 87.5 871.7 90.1C871.7 91.1 871.5 91.3 870.5 91.3C869.1 91.3 867.6 91.3 866.2 91.3C865.3 91.3 865 91 864.8 90.2C864.8 89.8 864.8 89.4 864.8 89.1C864.8 80.9 864.8 72.6 864.8 64.4C864.8 62 865.1 61.7 867.6 61.7C871.4 61.7 870.8 61.4 873.3 64.1C877.1 68 881 72 884.8 75.9C885.7 76.8 886.7 77.7 887.9 78.2C889 78.7 889.4 78.5 889.7 77.4C889.8 76.9 889.8 76.4 889.8 75.9C889.8 72.2 889.8 68.5 889.8 64.8C889.8 64.5 889.8 64.1 889.8 63.8C889.8 62.3 890.4 61.7 891.9 61.6C892.9 61.6 893.9 61.6 894.9 61.6C896.2 61.6 896.7 62.1 896.7 63.4C896.7 64.8 896.7 66.1 896.7 67.5C896.7 70.1 896.7 72.7 896.7 75.3C896.7 77.7 896.5 80 896.5 82.4C896.5 84.5 896.7 86.6 896.8 88.6C896.8 89 896.8 89.4 896.8 89.8C896.8 91.2 896.7 91.3 895.3 91.4C894.1 91.4 892.9 91.4 891.7 91.4C890.8 91.4 890.1 91.1 889.5 90.5C884.7 85.7 879.9 80.9 875.1 76.1C874.4 75.4 873.9 74.6 873 74.1C872.8 74 872.5 73.9 872.2 73.8L872.4 73.7Z" fill="#D93530"/>
<path d="M923.4 73.7C924.1 75.6 923.9 77.4 923.4 79.3C922.8 79.3 922.2 79.3 921.7 79.3C918.6 79.3 915.5 79.5 912.5 79.6C911.2 79.6 910.7 80.1 910.3 81.4C909.7 83.7 910.9 85.2 913.2 85.2C913.6 85.2 914.1 85.2 914.5 85.2C918.6 85.2 922.8 85.2 926.9 85.2C927.6 85.2 928.3 85.2 929 85.2C929.7 85.2 929.9 85.5 930 86.2C930.1 87.5 929.9 88.8 929.4 90.1C929.2 90.7 928.8 91 928.2 91.1C927.9 91.1 927.5 91.1 927.2 91.1C920.1 91.1 913.1 91.1 906 91.1C905.2 91.1 904.4 91.2 903.7 90.4C903.7 89.5 903.7 88.4 903.7 87.3C903.7 86 903.5 84.7 903.5 83.4C903.5 82.4 903.5 81.4 903.6 80.5C903.6 79.9 903.6 79.3 903.6 78.7C903.6 77.1 903.3 75.4 903.6 73.8C903.8 72.3 903.8 70.8 903.8 69.4C903.8 67.6 903.6 65.8 903.6 64C903.6 63.6 903.6 63.1 903.8 62.7C904 61.9 904.5 61.5 905.4 61.5C905.8 61.5 906.3 61.5 906.7 61.5C913.7 61.5 920.6 61.5 927.5 61.5C927.8 61.5 928.1 61.5 928.3 61.5C929.1 61.5 929.6 61.9 929.6 62.7C929.6 64 929.6 65.2 929.6 66.5C929.6 67.2 929.3 67.4 928.5 67.5C928.1 67.5 927.6 67.5 927.2 67.5C922.7 67.5 918.3 67.5 913.8 67.5C913.1 67.5 912.4 67.7 911.7 67.8C911.5 67.8 911.4 67.8 911.2 67.9C910.4 68.3 909.8 70 910.1 71.5C910.4 72.8 911 73.3 912.4 73.4C915.4 73.7 918.4 73.7 921.5 73.7C922 73.7 922.6 73.7 923.2 73.7H923.4Z" fill="#D93530"/>
<path d="M1.89966 53.8H950.6" stroke="#FFF200" stroke-width="3"/>
<path d="M1.89966 41.3V66.3" stroke="#FFF200" stroke-width="3"/>
<path d="M966.1 53.8L940.4 44.5V63.2L966.1 53.8Z" fill="#FFF200"/>
</svg>
